Primae-Light.ufo
<glyph name="exclam" format="2">
	<unicode hex="0021"/>
	<advance width="654"/>
	<outline>
		<contour>
			<point x="364" y="396" type="curve" smooth="yes"/>
			<point x="389" y="396"/>
			<point x="407" y="409"/>
			<point x="409" y="441" type="curve" smooth="yes"/>
			<point x="483" y="1529" type="line" smooth="yes"/>
			<point x="484" y="1544"/>
			<point x="484" y="1549"/>
			<point x="484" y="1554" type="curve" smooth="yes"/>
			<point x="484" y="1588"/>
			<point x="471" y="1600"/>
			<point x="442" y="1600" type="curve" smooth="yes"/>
			<point x="418" y="1600"/>
			<point x="400" y="1591"/>
			<point x="397" y="1546" type="curve" smooth="yes"/>
			<point x="325" y="443" type="line" smooth="yes"/>
			<point x="325" y="441"/>
			<point x="325" y="439"/>
			<point x="325" y="437" type="curve" smooth="yes"/>
			<point x="325" y="409"/>
			<point x="338" y="396"/>
		</contour>
		<contour>
			<point x="341" y="-12" type="curve" smooth="yes"/>
			<point x="391" y="-12"/>
			<point x="439" y="35"/>
			<point x="439" y="91" type="curve" smooth="yes"/>
			<point x="439" y="140"/>
			<point x="403" y="177"/>
			<point x="352" y="177" type="curve" smooth="yes"/>
			<point x="303" y="177"/>
			<point x="260" y="134"/>
			<point x="260" y="78" type="curve" smooth="yes"/>
			<point x="260" y="22"/>
			<point x="296" y="-12"/>
		</contour>
	</outline>
</glyph>
<glyph name="numbersign" format="2">
	<unicode hex="0023"/>
	<advance width="1158"/>
	<outline>
		<contour>
			<point x="489" y="1333" type="curve" smooth="yes"/>
			<point x="161" y="116" type="line" smooth="yes"/>
			<point x="141" y="40"/>
			<point x="140" y="32"/>
			<point x="140" y="25" type="curve" smooth="yes"/>
			<point x="140" y="1"/>
			<point x="155" y="-12"/>
			<point x="170" y="-12" type="curve" smooth="yes"/>
			<point x="189" y="-12"/>
			<point x="200" y="-4"/>
			<point x="221" y="73" type="curve" smooth="yes"/>
			<point x="550" y="1281" type="line" smooth="yes"/>
			<point x="561" y="1320"/>
			<point x="562" y="1329"/>
			<point x="562" y="1345" type="curve" smooth="yes"/>
			<point x="562" y="1362"/>
			<point x="545" y="1375"/>
			<point x="527" y="1375" type="curve" smooth="yes"/>
			<point x="511" y="1375"/>
			<point x="497" y="1364"/>
		</contour>
		<contour>
			<point x="901" y="1317" type="curve" smooth="yes"/>
			<point x="575" y="95" type="line" smooth="yes"/>
			<point x="559" y="36"/>
			<point x="559" y="27"/>
			<point x="559" y="19" type="curve" smooth="yes"/>
			<point x="559" y="-1"/>
			<point x="573" y="-12"/>
			<point x="592" y="-12" type="curve" smooth="yes"/>
			<point x="607" y="-12"/>
			<point x="622" y="1"/>
			<point x="637" y="56" type="curve" smooth="yes"/>
			<point x="957" y="1243" type="line" smooth="yes"/>
			<point x="978" y="1322"/>
			<point x="979" y="1336"/>
			<point x="979" y="1344" type="curve" smooth="yes"/>
			<point x="979" y="1361"/>
			<point x="964" y="1375"/>
			<point x="944" y="1375" type="curve" smooth="yes"/>
			<point x="923" y="1375"/>
			<point x="915" y="1369"/>
		</contour>
		<contour>
			<point x="204" y="910" type="curve" smooth="yes"/>
			<point x="294" y="910"/>
			<point x="771" y="916"/>
			<point x="1055" y="919" type="curve" smooth="yes"/>
			<point x="1083" y="920"/>
			<point x="1098" y="932"/>
			<point x="1098" y="954" type="curve" smooth="yes"/>
			<point x="1098" y="970"/>
			<point x="1083" y="985"/>
			<point x="1050" y="985" type="curve" smooth="yes"/>
			<point x="204" y="985" type="line" smooth="yes"/>
			<point x="175" y="985"/>
			<point x="159" y="968"/>
			<point x="159" y="947" type="curve" smooth="yes"/>
			<point x="159" y="926"/>
			<point x="175" y="910"/>
		</contour>
		<contour>
			<point x="105" y="421" type="curve" smooth="yes"/>
			<point x="229" y="421"/>
			<point x="663" y="426"/>
			<point x="942" y="429" type="curve" smooth="yes"/>
			<point x="973" y="430"/>
			<point x="989" y="443"/>
			<point x="989" y="466" type="curve" smooth="yes"/>
			<point x="989" y="482"/>
			<point x="977" y="495"/>
			<point x="941" y="495" type="curve" smooth="yes"/>
			<point x="105" y="495" type="line" smooth="yes"/>
			<point x="76" y="495"/>
			<point x="60" y="479"/>
			<point x="60" y="458" type="curve" smooth="yes"/>
			<point x="60" y="437"/>
			<point x="76" y="421"/>
		</contour>
	</outline>
</glyph>
<glyph name="parenleft" format="2">
	<unicode hex="0028"/>
	<advance width="761"/>
	<outline>
		<contour>
			<point x="566" y="-305" type="curve" smooth="yes"/>
			<point x="581" y="-305"/>
			<point x="590" y="-293"/>
			<point x="590" y="-279" type="curve" smooth="yes"/>
			<point x="590" y="-265"/>
			<point x="582" y="-252"/>
			<point x="549" y="-204" type="curve" smooth="yes"/>
			<point x="396" y="15"/>
			<point x="305" y="269"/>
			<point x="305" y="595" type="curve" smooth="yes"/>
			<point x="305" y="902"/>
			<point x="409" y="1241"/>
			<point x="625" y="1505" type="curve" smooth="yes"/>
			<point x="674" y="1565"/>
			<point x="681" y="1578"/>
			<point x="681" y="1591" type="curve" smooth="yes"/>
			<point x="681" y="1606"/>
			<point x="668" y="1625"/>
			<point x="643" y="1625" type="curve" smooth="yes"/>
			<point x="620" y="1625"/>
			<point x="599" y="1609"/>
			<point x="547" y="1543" type="curve" smooth="yes"/>
			<point x="341" y="1284"/>
			<point x="220" y="960"/>
			<point x="220" y="602" type="curve" smooth="yes"/>
			<point x="220" y="255"/>
			<point x="322" y="-20"/>
			<point x="485" y="-237" type="curve" smooth="yes"/>
			<point x="527" y="-293"/>
			<point x="549" y="-305"/>
		</contour>
	</outline>
</glyph>
<glyph name="one" format="2">
	<unicode hex="0031"/>
	<advance width="887"/>
	<outline>
		<contour>
			<point x="500" y="-12" type="curve" smooth="yes"/>
			<point x="529" y="-12"/>
			<point x="544" y="2"/>
			<point x="546" y="31" type="curve" smooth="yes"/>
			<point x="644" y="1523" type="line" smooth="yes"/>
			<point x="646" y="1552"/>
			<point x="647" y="1567"/>
			<point x="647" y="1582" type="curve" smooth="yes"/>
			<point x="647" y="1600"/>
			<point x="629" y="1618"/>
			<point x="604" y="1618" type="curve" smooth="yes"/>
			<point x="590" y="1618"/>
			<point x="581" y="1612"/>
			<point x="543" y="1585" type="curve" smooth="yes"/>
			<point x="457" y="1523"/>
			<point x="294" y="1411"/>
			<point x="116" y="1298" type="curve" smooth="yes"/>
			<point x="95" y="1285"/>
			<point x="90" y="1275"/>
			<point x="90" y="1262" type="curve" smooth="yes"/>
			<point x="90" y="1240"/>
			<point x="110" y="1220"/>
			<point x="128" y="1220" type="curve" smooth="yes"/>
			<point x="140" y="1220"/>
			<point x="150" y="1224"/>
			<point x="169" y="1236" type="curve" smooth="yes"/>
			<point x="330" y="1336"/>
			<point x="471" y="1432"/>
			<point x="574" y="1506" type="curve"/>
			<point x="561" y="1532" type="line"/>
			<point x="464" y="70" type="line" smooth="yes"/>
			<point x="463" y="56"/>
			<point x="462" y="42"/>
			<point x="462" y="31" type="curve" smooth="yes"/>
			<point x="462" y="0"/>
			<point x="477" y="-12"/>
		</contour>
	</outline>
</glyph>
<glyph name="two" format="2">
	<unicode hex="0032"/>
	<advance width="1175"/>
	<outline>
		<contour>
			<point x="160" y="0" type="curve" smooth="yes"/>
			<point x="964" y="0" type="line" smooth="yes"/>
			<point x="1007" y="0"/>
			<point x="1020" y="18"/>
			<point x="1020" y="42" type="curve" smooth="yes"/>
			<point x="1020" y="63"/>
			<point x="1006" y="80"/>
			<point x="974" y="80" type="curve" smooth="yes"/>
			<point x="167" y="80" type="line"/>
			<point x="165" y="47" type="line"/>
			<point x="806" y="639"/>
			<point x="998" y="938"/>
			<point x="998" y="1213" type="curve" smooth="yes"/>
			<point x="998" y="1471"/>
			<point x="842" y="1623"/>
			<point x="614" y="1623" type="curve" smooth="yes"/>
			<point x="466" y="1623"/>
			<point x="320" y="1549"/>
			<point x="222" y="1440" type="curve" smooth="yes"/>
			<point x="203" y="1419"/>
			<point x="192" y="1403"/>
			<point x="192" y="1389" type="curve" smooth="yes"/>
			<point x="192" y="1372"/>
			<point x="208" y="1354"/>
			<point x="231" y="1354" type="curve" smooth="yes"/>
			<point x="244" y="1354"/>
			<point x="250" y="1360"/>
			<point x="270" y="1380" type="curve" smooth="yes"/>
			<point x="368" y="1478"/>
			<point x="490" y="1543"/>
			<point x="612" y="1543" type="curve" smooth="yes"/>
			<point x="792" y="1543"/>
			<point x="913" y="1418"/>
			<point x="913" y="1202" type="curve" smooth="yes"/>
			<point x="913" y="977"/>
			<point x="746" y="693"/>
			<point x="146" y="127" type="curve" smooth="yes"/>
			<point x="104" y="88"/>
			<point x="100" y="72"/>
			<point x="100" y="51" type="curve" smooth="yes"/>
			<point x="100" y="18"/>
			<point x="123" y="0"/>
		</contour>
	</outline>
</glyph>
<glyph name="five" format="2">
	<unicode hex="0035"/>
	<advance width="1117"/>
	<outline>
		<contour>
			<point x="505" y="-12" type="curve" smooth="yes"/>
			<point x="787" y="-12"/>
			<point x="982" y="215"/>
			<point x="982" y="518" type="curve" smooth="yes"/>
			<point x="982" y="804"/>
			<point x="804" y="966"/>
			<point x="570" y="966" type="curve" smooth="yes"/>
			<point x="480" y="966"/>
			<point x="378" y="948"/>
			<point x="284" y="920" type="curve"/>
			<point x="311" y="904" type="line"/>
			<point x="351" y="1522" type="line"/>
			<point x="946" y="1522" type="line" smooth="yes"/>
			<point x="981" y="1522"/>
			<point x="997" y="1533"/>
			<point x="997" y="1564" type="curve" smooth="yes"/>
			<point x="997" y="1590"/>
			<point x="981" y="1600"/>
			<point x="949" y="1600" type="curve" smooth="yes"/>
			<point x="324" y="1600" type="line" smooth="yes"/>
			<point x="291" y="1600"/>
			<point x="278" y="1592"/>
			<point x="276" y="1556" type="curve" smooth="yes"/>
			<point x="237" y="935" type="line" smooth="yes"/>
			<point x="236" y="920"/>
			<point x="236" y="912"/>
			<point x="236" y="900" type="curve" smooth="yes"/>
			<point x="236" y="873"/>
			<point x="256" y="854"/>
			<point x="281" y="854" type="curve" smooth="yes"/>
			<point x="293" y="854"/>
			<point x="309" y="857"/>
			<point x="337" y="864" type="curve" smooth="yes"/>
			<point x="409" y="881"/>
			<point x="487" y="892"/>
			<point x="552" y="892" type="curve" smooth="yes"/>
			<point x="755" y="892"/>
			<point x="898" y="763"/>
			<point x="898" y="502" type="curve" smooth="yes"/>
			<point x="898" y="250"/>
			<point x="730" y="66"/>
			<point x="513" y="66" type="curve" smooth="yes"/>
			<point x="396" y="66"/>
			<point x="283" y="96"/>
			<point x="183" y="160" type="curve" smooth="yes"/>
			<point x="162" y="174"/>
			<point x="152" y="178"/>
			<point x="145" y="178" type="curve" smooth="yes"/>
			<point x="130" y="178"/>
			<point x="110" y="159"/>
			<point x="110" y="138" type="curve" smooth="yes"/>
			<point x="110" y="129"/>
			<point x="115" y="116"/>
			<point x="137" y="101" type="curve" smooth="yes"/>
			<point x="235" y="33"/>
			<point x="381" y="-12"/>
		</contour>
	</outline>
</glyph>
<glyph name="six" format="2">
	<unicode hex="0036"/>
	<advance width="1118"/>
	<outline>
		<contour>
			<point x="539" y="-15" type="curve" smooth="yes"/>
			<point x="794" y="-15"/>
			<point x="998" y="229"/>
			<point x="998" y="544" type="curve" smooth="yes"/>
			<point x="998" y="798"/>
			<point x="857" y="935"/>
			<point x="654" y="935" type="curve" smooth="yes"/>
			<point x="466" y="935"/>
			<point x="297" y="811"/>
			<point x="159" y="606" type="curve"/>
			<point x="202" y="565" type="line"/>
			<point x="334" y="753"/>
			<point x="495" y="857"/>
			<point x="641" y="857" type="curve" smooth="yes"/>
			<point x="817" y="857"/>
			<point x="915" y="741"/>
			<point x="915" y="531" type="curve" smooth="yes"/>
			<point x="915" y="236"/>
			<point x="729" y="63"/>
			<point x="545" y="63" type="curve" smooth="yes"/>
			<point x="349" y="63"/>
			<point x="215" y="248"/>
			<point x="215" y="650" type="curve" smooth="yes"/>
			<point x="215" y="1173"/>
			<point x="430" y="1547"/>
			<point x="730" y="1547" type="curve" smooth="yes"/>
			<point x="794" y="1547"/>
			<point x="855" y="1529"/>
			<point x="915" y="1503" type="curve" smooth="yes"/>
			<point x="922" y="1500"/>
			<point x="936" y="1494"/>
			<point x="944" y="1494" type="curve" smooth="yes"/>
			<point x="959" y="1494"/>
			<point x="975" y="1515"/>
			<point x="975" y="1530" type="curve" smooth="yes"/>
			<point x="975" y="1548"/>
			<point x="950" y="1568"/>
			<point x="919" y="1583" type="curve" smooth="yes"/>
			<point x="874" y="1605"/>
			<point x="796" y="1625"/>
			<point x="723" y="1625" type="curve" smooth="yes"/>
			<point x="385" y="1625"/>
			<point x="130" y="1220"/>
			<point x="130" y="652" type="curve" smooth="yes"/>
			<point x="130" y="210"/>
			<point x="292" y="-15"/>
		</contour>
	</outline>
</glyph>
<glyph name="seven" format="2">
	<unicode hex="0037"/>
	<advance width="1105"/>
	<outline>
		<contour>
			<point x="295" y="-12" type="curve" smooth="yes"/>
			<point x="318" y="-12"/>
			<point x="328" y="-3"/>
			<point x="338" y="26" type="curve" smooth="yes"/>
			<point x="509" y="517"/>
			<point x="737" y="998"/>
			<point x="1022" y="1441" type="curve" smooth="yes"/>
			<point x="1069" y="1514"/>
			<point x="1070" y="1528"/>
			<point x="1070" y="1547" type="curve" smooth="yes"/>
			<point x="1070" y="1576"/>
			<point x="1051" y="1600"/>
			<point x="1008" y="1600" type="curve" smooth="yes"/>
			<point x="195" y="1600" type="line" smooth="yes"/>
			<point x="158" y="1600"/>
			<point x="140" y="1583"/>
			<point x="140" y="1561" type="curve" smooth="yes"/>
			<point x="140" y="1534"/>
			<point x="164" y="1522"/>
			<point x="198" y="1522" type="curve" smooth="yes"/>
			<point x="1027" y="1522" type="line"/>
			<point x="1004" y="1544" type="line"/>
			<point x="681" y="1068"/>
			<point x="444" y="556"/>
			<point x="270" y="87" type="curve" smooth="yes"/>
			<point x="258" y="55"/>
			<point x="253" y="35"/>
			<point x="253" y="23" type="curve" smooth="yes"/>
			<point x="253" y="1"/>
			<point x="274" y="-12"/>
		</contour>
		<contour>
			<point x="296" y="786" type="curve" smooth="yes"/>
			<point x="845" y="786" type="line" smooth="yes"/>
			<point x="871" y="786"/>
			<point x="895" y="798"/>
			<point x="895" y="827" type="curve" smooth="yes"/>
			<point x="895" y="850"/>
			<point x="876" y="859"/>
			<point x="850" y="859" type="curve" smooth="yes"/>
			<point x="301" y="859" type="line" smooth="yes"/>
			<point x="275" y="859"/>
			<point x="252" y="852"/>
			<point x="252" y="823" type="curve" smooth="yes"/>
			<point x="252" y="800"/>
			<point x="270" y="786"/>
		</contour>
	</outline>
</glyph>
<glyph name="nine" format="2">
	<unicode hex="0039"/>
	<advance width="1101"/>
	<outline>
		<contour>
			<point x="922" y="932" type="curve"/>
			<point x="882" y="970" type="line"/>
			<point x="794" y="840"/>
			<point x="663" y="753"/>
			<point x="506" y="753" type="curve" smooth="yes"/>
			<point x="324" y="753"/>
			<point x="205" y="884"/>
			<point x="205" y="1103" type="curve" smooth="yes"/>
			<point x="205" y="1358"/>
			<point x="370" y="1547"/>
			<point x="573" y="1547" type="curve" smooth="yes"/>
			<point x="763" y="1547"/>
			<point x="885" y="1383"/>
			<point x="885" y="1099" type="curve" smooth="yes"/>
			<point x="885" y="815"/>
			<point x="689" y="368"/>
			<point x="490" y="84" type="curve" smooth="yes"/>
			<point x="471" y="57"/>
			<point x="462" y="40"/>
			<point x="462" y="24" type="curve" smooth="yes"/>
			<point x="462" y="3"/>
			<point x="481" y="-15"/>
			<point x="506" y="-15" type="curve" smooth="yes"/>
			<point x="526" y="-15"/>
			<point x="534" y="-8"/>
			<point x="558" y="27" type="curve" smooth="yes"/>
			<point x="784" y="352"/>
			<point x="971" y="777"/>
			<point x="971" y="1103" type="curve" smooth="yes"/>
			<point x="971" y="1425"/>
			<point x="818" y="1625"/>
			<point x="579" y="1625" type="curve" smooth="yes"/>
			<point x="326" y="1625"/>
			<point x="120" y="1390"/>
			<point x="120" y="1097" type="curve" smooth="yes"/>
			<point x="120" y="854"/>
			<point x="272" y="675"/>
			<point x="494" y="675" type="curve" smooth="yes"/>
			<point x="675" y="675"/>
			<point x="830" y="776"/>
		</contour>
	</outline>
</glyph>
<glyph name="question" format="2">
	<unicode hex="003F"/>
	<advance width="965"/>
	<outline>
		<contour>
			<point x="466" y="399" type="curve" smooth="yes"/>
			<point x="565" y="399"/>
			<point x="649" y="440"/>
			<point x="698" y="499" type="curve" smooth="yes"/>
			<point x="714" y="518"/>
			<point x="717" y="532"/>
			<point x="717" y="542" type="curve" smooth="yes"/>
			<point x="717" y="557"/>
			<point x="704" y="567"/>
			<point x="690" y="567" type="curve" smooth="yes"/>
			<point x="678" y="567"/>
			<point x="669" y="561"/>
			<point x="652" y="546" type="curve" smooth="yes"/>
			<point x="613" y="511"/>
			<point x="561" y="473"/>
			<point x="480" y="473" type="curve" smooth="yes"/>
			<point x="376" y="473"/>
			<point x="328" y="526"/>
			<point x="328" y="618" type="curve" smooth="yes"/>
			<point x="328" y="755"/>
			<point x="442" y="844"/>
			<point x="565" y="945" type="curve" smooth="yes"/>
			<point x="701" y="1056"/>
			<point x="845" y="1178"/>
			<point x="845" y="1360" type="curve" smooth="yes"/>
			<point x="845" y="1526"/>
			<point x="725" y="1621"/>
			<point x="568" y="1621" type="curve" smooth="yes"/>
			<point x="453" y="1621"/>
			<point x="332" y="1580"/>
			<point x="225" y="1490" type="curve" smooth="yes"/>
			<point x="189" y="1460"/>
			<point x="180" y="1445"/>
			<point x="180" y="1431" type="curve" smooth="yes"/>
			<point x="180" y="1412"/>
			<point x="195" y="1397"/>
			<point x="214" y="1397" type="curve" smooth="yes"/>
			<point x="226" y="1397"/>
			<point x="234" y="1403"/>
			<point x="257" y="1422" type="curve" smooth="yes"/>
			<point x="364" y="1509"/>
			<point x="459" y="1543"/>
			<point x="555" y="1543" type="curve" smooth="yes"/>
			<point x="676" y="1543"/>
			<point x="765" y="1468"/>
			<point x="765" y="1350" type="curve" smooth="yes"/>
			<point x="765" y="1215"/>
			<point x="653" y="1122"/>
			<point x="525" y="1016" type="curve" smooth="yes"/>
			<point x="389" y="904"/>
			<point x="248" y="787"/>
			<point x="248" y="613" type="curve" smooth="yes"/>
			<point x="248" y="482"/>
			<point x="331" y="399"/>
		</contour>
		<contour>
			<point x="442" y="-12" type="curve" smooth="yes"/>
			<point x="492" y="-12"/>
			<point x="540" y="35"/>
			<point x="540" y="91" type="curve" smooth="yes"/>
			<point x="540" y="140"/>
			<point x="504" y="177"/>
			<point x="453" y="177" type="curve" smooth="yes"/>
			<point x="404" y="177"/>
			<point x="361" y="134"/>
			<point x="361" y="78" type="curve" smooth="yes"/>
			<point x="361" y="22"/>
			<point x="397" y="-12"/>
		</contour>
	</outline>
</glyph>
<glyph name="B" format="2">
	<unicode hex="0042"/>
	<advance width="1174"/>
	<outline>
		<contour>
			<point x="386" y="-12" type="curve" smooth="yes"/>
			<point x="793" y="-12"/>
			<point x="1016" y="193"/>
			<point x="1016" y="469" type="curve" smooth="yes"/>
			<point x="1016" y="666"/>
			<point x="878" y="796"/>
			<point x="670" y="833" type="curve"/>
			<point x="671" y="819" type="line"/>
			<point x="872" y="861"/>
			<point x="1039" y="1002"/>
			<point x="1039" y="1229" type="curve" smooth="yes"/>
			<point x="1039" y="1459"/>
			<point x="862" y="1612"/>
			<point x="560" y="1612" type="curve" smooth="yes"/>
			<point x="466" y="1612"/>
			<point x="358" y="1607"/>
			<point x="319" y="1603" type="curve" smooth="yes"/>
			<point x="275" y="1598"/>
			<point x="256" y="1583"/>
			<point x="253" y="1537" type="curve" smooth="yes"/>
			<point x="154" y="119" type="line" smooth="yes"/>
			<point x="150" y="60"/>
			<point x="150" y="48"/>
			<point x="150" y="38" type="curve" smooth="yes"/>
			<point x="150" y="1"/>
			<point x="187" y="-12"/>
		</contour>
		<contour>
			<point x="399" y="66" type="curve" smooth="yes"/>
			<point x="340" y="66"/>
			<point x="290" y="68"/>
			<point x="236" y="71" type="curve"/>
			<point x="337" y="1527" type="line"/>
			<point x="372" y="1530"/>
			<point x="479" y="1534"/>
			<point x="550" y="1534" type="curve" smooth="yes"/>
			<point x="811" y="1534"/>
			<point x="959" y="1412"/>
			<point x="959" y="1218" type="curve" smooth="yes"/>
			<point x="959" y="1024"/>
			<point x="786" y="864"/>
			<point x="475" y="864" type="curve" smooth="yes"/>
			<point x="260" y="864" type="line"/>
			<point x="255" y="786" type="line"/>
			<point x="468" y="786" type="line" smooth="yes"/>
			<point x="750" y="786"/>
			<point x="936" y="668"/>
			<point x="936" y="451" type="curve" smooth="yes"/>
			<point x="936" y="240"/>
			<point x="746" y="66"/>
		</contour>
	</outline>
</glyph>
<glyph name="C" format="2">
	<unicode hex="0043"/>
	<advance width="1195"/>
	<outline>
		<contour>
			<point x="647" y="-14" type="curve" smooth="yes"/>
			<point x="807" y="-14"/>
			<point x="960" y="46"/>
			<point x="1055" y="131" type="curve" smooth="yes"/>
			<point x="1087" y="160"/>
			<point x="1095" y="173"/>
			<point x="1095" y="188" type="curve" smooth="yes"/>
			<point x="1095" y="207"/>
			<point x="1076" y="222"/>
			<point x="1063" y="222" type="curve" smooth="yes"/>
			<point x="1049" y="222"/>
			<point x="1036" y="211"/>
			<point x="1018" y="195" type="curve" smooth="yes"/>
			<point x="924" y="113"/>
			<point x="790" y="66"/>
			<point x="661" y="66" type="curve" smooth="yes"/>
			<point x="369" y="66"/>
			<point x="205" y="260"/>
			<point x="205" y="683" type="curve" smooth="yes"/>
			<point x="205" y="1198"/>
			<point x="462" y="1545"/>
			<point x="785" y="1545" type="curve" smooth="yes"/>
			<point x="877" y="1545"/>
			<point x="962" y="1516"/>
			<point x="1040" y="1450" type="curve" smooth="yes"/>
			<point x="1062" y="1431"/>
			<point x="1072" y="1428"/>
			<point x="1081" y="1428" type="curve" smooth="yes"/>
			<point x="1104" y="1428"/>
			<point x="1115" y="1446"/>
			<point x="1115" y="1462" type="curve" smooth="yes"/>
			<point x="1115" y="1477"/>
			<point x="1106" y="1498"/>
			<point x="1056" y="1536" type="curve" smooth="yes"/>
			<point x="988" y="1587"/>
			<point x="899" y="1625"/>
			<point x="782" y="1625" type="curve" smooth="yes"/>
			<point x="409" y="1625"/>
			<point x="120" y="1254"/>
			<point x="120" y="678" type="curve" smooth="yes"/>
			<point x="120" y="217"/>
			<point x="317" y="-14"/>
		</contour>
	</outline>
	<anchor name="bottom" x="658" y="0"/>
	<anchor name="top" x="762" y="1600"/>
</glyph>
<glyph name="O" format="2">
	<unicode hex="004F"/>
	<advance width="1352"/>
	<outline>
		<contour>
			<point x="606" y="-12" type="curve" smooth="yes"/>
			<point x="943" y="-12"/>
			<point x="1232" y="348"/>
			<point x="1232" y="898" type="curve" smooth="yes"/>
			<point x="1232" y="1388"/>
			<point x="1008" y="1615"/>
			<point x="743" y="1615" type="curve" smooth="yes"/>
			<point x="409" y="1615"/>
			<point x="120" y="1258"/>
			<point x="120" y="708" type="curve" smooth="yes"/>
			<point x="120" y="218"/>
			<point x="341" y="-12"/>
		</contour>
		<contour>
			<point x="612" y="68" type="curve" smooth="yes"/>
			<point x="392" y="68"/>
			<point x="205" y="249"/>
			<point x="205" y="713" type="curve" smooth="yes"/>
			<point x="205" y="1203"/>
			<point x="452" y="1535"/>
			<point x="740" y="1535" type="curve" smooth="yes"/>
			<point x="960" y="1535"/>
			<point x="1147" y="1356"/>
			<point x="1147" y="892" type="curve" smooth="yes"/>
			<point x="1147" y="402"/>
			<point x="900" y="68"/>
		</contour>
	</outline>
	<anchor name="Qtail" x="780" y="0"/>
	<anchor name="bottom" x="606" y="0"/>
	<anchor name="center" x="671" y="784"/>
	<anchor name="ogonek" x="666" y="0"/>
	<anchor name="top" x="751" y="1600"/>
	<anchor name="topleft" x="237" y="1434"/>
	<anchor name="topright" x="1438" y="1434"/>
</glyph>
<glyph name="P" format="2">
	<unicode hex="0050"/>
	<advance width="1140"/>
	<outline>
		<contour>
			<point x="190" y="-12" type="curve" smooth="yes"/>
			<point x="220" y="-12"/>
			<point x="232" y="4"/>
			<point x="234" y="32" type="curve" smooth="yes"/>
			<point x="337" y="1527" type="line"/>
			<point x="372" y="1530"/>
			<point x="479" y="1534"/>
			<point x="550" y="1534" type="curve" smooth="yes"/>
			<point x="846" y="1534"/>
			<point x="1010" y="1388"/>
			<point x="1010" y="1172" type="curve" smooth="yes"/>
			<point x="1010" y="931"/>
			<point x="820" y="751"/>
			<point x="479" y="751" type="curve" smooth="yes"/>
			<point x="264" y="751" type="line"/>
			<point x="259" y="673" type="line"/>
			<point x="472" y="673" type="line" smooth="yes"/>
			<point x="855" y="673"/>
			<point x="1090" y="876"/>
			<point x="1090" y="1183" type="curve" smooth="yes"/>
			<point x="1090" y="1434"/>
			<point x="900" y="1612"/>
			<point x="560" y="1612" type="curve" smooth="yes"/>
			<point x="466" y="1612"/>
			<point x="358" y="1607"/>
			<point x="319" y="1603" type="curve" smooth="yes"/>
			<point x="275" y="1598"/>
			<point x="256" y="1583"/>
			<point x="253" y="1537" type="curve" smooth="yes"/>
			<point x="154" y="119" type="line" smooth="yes"/>
			<point x="150" y="60"/>
			<point x="150" y="48"/>
			<point x="150" y="38" type="curve" smooth="yes"/>
			<point x="150" y="10"/>
			<point x="150" y="-12"/>
		</contour>
	</outline>
	<anchor name="top" x="558" y="1600"/>
</glyph>
<glyph name="W" format="2">
	<unicode hex="0057"/>
	<advance width="1928"/>
	<outline>
		<contour>
			<point x="480" y="-12" type="curve" smooth="yes"/>
			<point x="508" y="-12"/>
			<point x="527" y="-6"/>
			<point x="542" y="38" type="curve" smooth="yes"/>
			<point x="977" y="1325" type="line" smooth="yes"/>
			<point x="994" y="1374"/>
			<point x="1004" y="1427"/>
			<point x="1018" y="1491" type="curve"/>
			<point x="1000" y="1491" type="line"/>
			<point x="1009" y="1427"/>
			<point x="1016" y="1378"/>
			<point x="1027" y="1328" type="curve" smooth="yes"/>
			<point x="1307" y="38" type="line" smooth="yes"/>
			<point x="1316" y="-3"/>
			<point x="1337" y="-12"/>
			<point x="1361" y="-12" type="curve" smooth="yes"/>
			<point x="1387" y="-12"/>
			<point x="1406" y="-2"/>
			<point x="1421" y="41" type="curve" smooth="yes"/>
			<point x="1948" y="1526" type="line" smooth="yes"/>
			<point x="1955" y="1545"/>
			<point x="1958" y="1556"/>
			<point x="1958" y="1566" type="curve" smooth="yes"/>
			<point x="1958" y="1588"/>
			<point x="1941" y="1600"/>
			<point x="1920" y="1600" type="curve" smooth="yes"/>
			<point x="1891" y="1600"/>
			<point x="1877" y="1583"/>
			<point x="1868" y="1557" type="curve" smooth="yes"/>
			<point x="1411" y="258" type="line" smooth="yes"/>
			<point x="1391" y="202"/>
			<point x="1374" y="145"/>
			<point x="1356" y="78" type="curve"/>
			<point x="1375" y="76" type="line"/>
			<point x="1364" y="144"/>
			<point x="1356" y="201"/>
			<point x="1343" y="259" type="curve" smooth="yes"/>
			<point x="1075" y="1499" type="line" smooth="yes"/>
			<point x="1064" y="1548"/>
			<point x="1045" y="1563"/>
			<point x="1017" y="1563" type="curve" smooth="yes"/>
			<point x="986" y="1563"/>
			<point x="970" y="1553"/>
			<point x="952" y="1500" type="curve" smooth="yes"/>
			<point x="534" y="263" type="line" smooth="yes"/>
			<point x="515" y="207"/>
			<point x="499" y="149"/>
			<point x="482" y="82" type="curve"/>
			<point x="500" y="81" type="line"/>
			<point x="490" y="147"/>
			<point x="482" y="204"/>
			<point x="469" y="259" type="curve" smooth="yes"/>
			<point x="173" y="1546" type="line" smooth="yes"/>
			<point x="163" y="1590"/>
			<point x="149" y="1600"/>
			<point x="124" y="1600" type="curve" smooth="yes"/>
			<point x="99" y="1600"/>
			<point x="80" y="1587"/>
			<point x="80" y="1558" type="curve" smooth="yes"/>
			<point x="80" y="1551"/>
			<point x="81" y="1544"/>
			<point x="83" y="1535" type="curve" smooth="yes"/>
			<point x="433" y="38" type="line" smooth="yes"/>
			<point x="443" y="-3"/>
			<point x="456" y="-12"/>
		</contour>
	</outline>
	<anchor name="bottom" x="669" y="0"/>
	<anchor name="top" x="1053" y="1600"/>
</glyph>
<glyph name="X" format="2">
	<unicode hex="0058"/>
	<advance width="1195"/>
	<outline>
		<contour>
			<point x="34" y="-12" type="curve" smooth="yes"/>
			<point x="53" y="-12"/>
			<point x="62" y="0"/>
			<point x="75" y="18" type="curve" smooth="yes"/>
			<point x="625" y="772" type="line"/>
			<point x="656" y="802" type="line"/>
			<point x="1188" y="1525" type="line" smooth="yes"/>
			<point x="1200" y="1541"/>
			<point x="1205" y="1551"/>
			<point x="1205" y="1565" type="curve" smooth="yes"/>
			<point x="1205" y="1583"/>
			<point x="1189" y="1600"/>
			<point x="1164" y="1600" type="curve" smooth="yes"/>
			<point x="1153" y="1600"/>
			<point x="1142" y="1595"/>
			<point x="1122" y="1567" type="curve" smooth="yes"/>
			<point x="617" y="878" type="line"/>
			<point x="581" y="842" type="line"/>
			<point x="8" y="66" type="line" smooth="yes"/>
			<point x="-5" y="48"/>
			<point x="-10" y="39"/>
			<point x="-10" y="25" type="curve" smooth="yes"/>
			<point x="-10" y="8"/>
			<point x="11" y="-12"/>
		</contour>
		<contour>
			<point x="1026" y="-12" type="curve" smooth="yes"/>
			<point x="1051" y="-12"/>
			<point x="1072" y="11"/>
			<point x="1072" y="29" type="curve" smooth="yes"/>
			<point x="1072" y="42"/>
			<point x="1062" y="61"/>
			<point x="1056" y="72" type="curve" smooth="yes"/>
			<point x="293" y="1562" type="line" smooth="yes"/>
			<point x="279" y="1590"/>
			<point x="270" y="1600"/>
			<point x="250" y="1600" type="curve" smooth="yes"/>
			<point x="223" y="1600"/>
			<point x="202" y="1582"/>
			<point x="202" y="1560" type="curve" smooth="yes"/>
			<point x="202" y="1548"/>
			<point x="207" y="1538"/>
			<point x="217" y="1518" type="curve" smooth="yes"/>
			<point x="981" y="32" type="line" smooth="yes"/>
			<point x="999" y="-4"/>
			<point x="1008" y="-12"/>
		</contour>
	</outline>
	<anchor name="bottom" x="511" y="0"/>
	<anchor name="top" x="700" y="1598"/>
</glyph>
<glyph name="underscore" format="2">
	<unicode hex="005F"/>
	<advance width="1550"/>
	<outline>
		<contour>
			<point x="180" y="-116" type="curve" smooth="yes"/>
			<point x="1365" y="-116" type="line" smooth="yes"/>
			<point x="1391" y="-116"/>
			<point x="1410" y="-105"/>
			<point x="1410" y="-75" type="curve" smooth="yes"/>
			<point x="1410" y="-52"/>
			<point x="1396" y="-41"/>
			<point x="1370" y="-41" type="curve" smooth="yes"/>
			<point x="185" y="-41" type="line" smooth="yes"/>
			<point x="159" y="-41"/>
			<point x="140" y="-52"/>
			<point x="140" y="-81" type="curve" smooth="yes"/>
			<point x="140" y="-105"/>
			<point x="154" y="-116"/>
		</contour>
	</outline>
</glyph>
<glyph name="e" format="2">
	<unicode hex="0065"/>
	<advance width="878"/>
	<outline>
		<contour>
			<point x="443" y="-12" type="curve" smooth="yes"/>
			<point x="548" y="-12"/>
			<point x="651" y="26"/>
			<point x="726" y="92" type="curve" smooth="yes"/>
			<point x="754" y="117"/>
			<point x="768" y="137"/>
			<point x="768" y="148" type="curve" smooth="yes"/>
			<point x="768" y="167"/>
			<point x="748" y="186"/>
			<point x="732" y="186" type="curve" smooth="yes"/>
			<point x="723" y="186"/>
			<point x="715" y="182"/>
			<point x="688" y="157" type="curve" smooth="yes"/>
			<point x="627" y="100"/>
			<point x="539" y="66"/>
			<point x="452" y="66" type="curve" smooth="yes"/>
			<point x="281" y="66"/>
			<point x="204" y="190"/>
			<point x="204" y="370" type="curve" smooth="yes"/>
			<point x="204" y="674"/>
			<point x="358" y="857"/>
			<point x="531" y="857" type="curve" smooth="yes"/>
			<point x="625" y="857"/>
			<point x="683" y="808"/>
			<point x="683" y="724" type="curve" smooth="yes"/>
			<point x="683" y="594"/>
			<point x="543" y="475"/>
			<point x="198" y="475" type="curve" smooth="yes"/>
			<point x="169" y="475"/>
			<point x="151" y="464"/>
			<point x="151" y="444" type="curve" smooth="yes"/>
			<point x="151" y="422"/>
			<point x="172" y="406"/>
			<point x="198" y="406" type="curve" smooth="yes"/>
			<point x="570" y="406"/>
			<point x="763" y="545"/>
			<point x="763" y="737" type="curve" smooth="yes"/>
			<point x="763" y="855"/>
			<point x="680" y="935"/>
			<point x="540" y="935" type="curve" smooth="yes"/>
			<point x="323" y="935"/>
			<point x="120" y="727"/>
			<point x="120" y="365" type="curve" smooth="yes"/>
			<point x="120" y="136"/>
			<point x="232" y="-12"/>
		</contour>
	</outline>
	<anchor name="bottom" x="451" y="0"/>
	<anchor name="ogonek" x="570" y="0"/>
	<anchor name="top" x="525" y="920"/>
</glyph>
<glyph name="o" format="2">
	<unicode hex="006F"/>
	<advance width="1005"/>
	<outline>
		<contour>
			<point x="455" y="-12" type="curve" smooth="yes"/>
			<point x="697" y="-12"/>
			<point x="885" y="218"/>
			<point x="885" y="528" type="curve" smooth="yes"/>
			<point x="885" y="794"/>
			<point x="760" y="935"/>
			<point x="550" y="935" type="curve" smooth="yes"/>
			<point x="302" y="935"/>
			<point x="120" y="705"/>
			<point x="120" y="395" type="curve" smooth="yes"/>
			<point x="120" y="129"/>
			<point x="245" y="-12"/>
		</contour>
		<contour>
			<point x="455" y="66" type="curve" smooth="yes"/>
			<point x="303" y="66"/>
			<point x="205" y="176"/>
			<point x="205" y="406" type="curve" smooth="yes"/>
			<point x="205" y="656"/>
			<point x="354" y="857"/>
			<point x="550" y="857" type="curve" smooth="yes"/>
			<point x="702" y="857"/>
			<point x="800" y="747"/>
			<point x="800" y="517" type="curve" smooth="yes"/>
			<point x="800" y="267"/>
			<point x="654" y="66"/>
		</contour>
	</outline>
	<anchor name="bottom" x="457" y="0"/>
	<anchor name="center" x="503" y="455"/>
	<anchor name="ogonek" x="492" y="0"/>
	<anchor name="top" x="547" y="920"/>
	<anchor name="topright" x="925" y="920"/>
	<note>
u006F
</note>
</glyph>
<glyph name="y" format="2">
	<unicode hex="0079"/>
	<advance width="916"/>
	<outline>
		<contour>
			<point x="125" y="-670" type="curve" smooth="yes"/>
			<point x="159" y="-670"/>
			<point x="167" y="-659"/>
			<point x="255" y="-469" type="curve" smooth="yes"/>
			<point x="845" y="802" type="line" smooth="yes"/>
			<point x="882" y="881"/>
			<point x="886" y="890"/>
			<point x="886" y="902" type="curve" smooth="yes"/>
			<point x="886" y="920"/>
			<point x="857" y="935"/>
			<point x="834" y="935" type="curve" smooth="yes"/>
			<point x="818" y="935"/>
			<point x="811" y="927"/>
			<point x="795" y="893" type="curve" smooth="yes"/>
			<point x="415" y="71" type="line"/>
			<point x="443" y="70" type="line"/>
			<point x="182" y="891" type="line" smooth="yes"/>
			<point x="171" y="925"/>
			<point x="161" y="935"/>
			<point x="142" y="935" type="curve" smooth="yes"/>
			<point x="119" y="935"/>
			<point x="91" y="925"/>
			<point x="91" y="899" type="curve" smooth="yes"/>
			<point x="91" y="889"/>
			<point x="94" y="874"/>
			<point x="102" y="849" type="curve" smooth="yes"/>
			<point x="344" y="100" type="line" smooth="yes"/>
			<point x="366" y="32"/>
			<point x="378" y="10"/>
			<point x="412" y="4" type="curve"/>
			<point x="404" y="44" type="line"/>
			<point x="185" y="-427" type="line" smooth="yes"/>
			<point x="147" y="-508"/>
			<point x="120" y="-557"/>
			<point x="102" y="-587" type="curve" smooth="yes"/>
			<point x="87" y="-612"/>
			<point x="80" y="-625"/>
			<point x="80" y="-635" type="curve" smooth="yes"/>
			<point x="80" y="-653"/>
			<point x="97" y="-670"/>
		</contour>
	</outline>
	<anchor name="top" x="495" y="920"/>
	<anchor name="topright" x="886" y="920"/>
</glyph>
<glyph name="braceleft" format="2">
	<unicode hex="007B"/>
	<advance width="775"/>
	<outline>
		<contour>
			<point x="537" y="-325" type="curve" smooth="yes"/>
			<point x="561" y="-325"/>
			<point x="571" y="-305"/>
			<point x="571" y="-287" type="curve" smooth="yes"/>
			<point x="571" y="-270"/>
			<point x="561" y="-259"/>
			<point x="540" y="-253" type="curve" smooth="yes"/>
			<point x="399" y="-214"/>
			<point x="332" y="-135"/>
			<point x="332" y="-25" type="curve" smooth="yes"/>
			<point x="332" y="51"/>
			<point x="352" y="140"/>
			<point x="373" y="231" type="curve" smooth="yes"/>
			<point x="394" y="323"/>
			<point x="415" y="417"/>
			<point x="415" y="498" type="curve" smooth="yes"/>
			<point x="415" y="580"/>
			<point x="376" y="653"/>
			<point x="288" y="679" type="curve"/>
			<point x="287" y="661" type="line"/>
			<point x="398" y="690"/>
			<point x="448" y="752"/>
			<point x="448" y="875" type="curve" smooth="yes"/>
			<point x="448" y="914"/>
			<point x="445" y="966"/>
			<point x="440" y="1026" type="curve" smooth="yes"/>
			<point x="434" y="1103"/>
			<point x="429" y="1188"/>
			<point x="429" y="1269" type="curve" smooth="yes"/>
			<point x="429" y="1439"/>
			<point x="506" y="1537"/>
			<point x="701" y="1550" type="curve" smooth="yes"/>
			<point x="745" y="1553"/>
			<point x="755" y="1573"/>
			<point x="755" y="1593" type="curve" smooth="yes"/>
			<point x="755" y="1610"/>
			<point x="748" y="1625"/>
			<point x="710" y="1625" type="curve" smooth="yes"/>
			<point x="483" y="1625"/>
			<point x="348" y="1475"/>
			<point x="348" y="1282" type="curve" smooth="yes"/>
			<point x="348" y="1182"/>
			<point x="353" y="1089"/>
			<point x="360" y="1009" type="curve" smooth="yes"/>
			<point x="365" y="950"/>
			<point x="368" y="898"/>
			<point x="368" y="857" type="curve" smooth="yes"/>
			<point x="368" y="763"/>
			<point x="315" y="716"/>
			<point x="233" y="716" type="curve" smooth="yes"/>
			<point x="205" y="716"/>
			<point x="187" y="716"/>
			<point x="169" y="716" type="curve" smooth="yes"/>
			<point x="144" y="716"/>
			<point x="120" y="703"/>
			<point x="120" y="674" type="curve" smooth="yes"/>
			<point x="120" y="649"/>
			<point x="141" y="637"/>
			<point x="180" y="635" type="curve" smooth="yes"/>
			<point x="295" y="630"/>
			<point x="335" y="590"/>
			<point x="335" y="493" type="curve" smooth="yes"/>
			<point x="335" y="419"/>
			<point x="315" y="330"/>
			<point x="294" y="241" type="curve" smooth="yes"/>
			<point x="273" y="151"/>
			<point x="252" y="60"/>
			<point x="252" y="-16" type="curve" smooth="yes"/>
			<point x="252" y="-146"/>
			<point x="308" y="-238"/>
			<point x="438" y="-299" type="curve" smooth="yes"/>
			<point x="480" y="-319"/>
			<point x="517" y="-325"/>
		</contour>
	</outline>
</glyph>
<glyph name="cent" format="2">
	<unicode hex="00A2"/>
	<advance width="1200"/>
	<outline>
		<contour>
			<point x="603" y="324" type="curve" smooth="yes"/>
			<point x="737" y="324"/>
			<point x="845" y="383"/>
			<point x="913" y="456" type="curve" smooth="yes"/>
			<point x="941" y="487"/>
			<point x="945" y="502"/>
			<point x="945" y="514" type="curve" smooth="yes"/>
			<point x="945" y="528"/>
			<point x="930" y="540"/>
			<point x="914" y="540" type="curve" smooth="yes"/>
			<point x="902" y="540"/>
			<point x="893" y="532"/>
			<point x="873" y="512" type="curve" smooth="yes"/>
			<point x="807" y="445"/>
			<point x="720" y="399"/>
			<point x="611" y="399" type="curve" smooth="yes"/>
			<point x="422" y="399"/>
			<point x="304" y="538"/>
			<point x="304" y="767" type="curve" smooth="yes"/>
			<point x="304" y="1007"/>
			<point x="452" y="1234"/>
			<point x="669" y="1234" type="curve" smooth="yes"/>
			<point x="747" y="1234"/>
			<point x="809" y="1204"/>
			<point x="869" y="1149" type="curve" smooth="yes"/>
			<point x="888" y="1131"/>
			<point x="901" y="1124"/>
			<point x="910" y="1124" type="curve" smooth="yes"/>
			<point x="926" y="1124"/>
			<point x="941" y="1137"/>
			<point x="941" y="1154" type="curve" smooth="yes"/>
			<point x="941" y="1166"/>
			<point x="935" y="1181"/>
			<point x="908" y="1210" type="curve" smooth="yes"/>
			<point x="851" y="1270"/>
			<point x="766" y="1309"/>
			<point x="674" y="1309" type="curve" smooth="yes"/>
			<point x="404" y="1309"/>
			<point x="224" y="1049"/>
			<point x="224" y="770" type="curve" smooth="yes"/>
			<point x="224" y="504"/>
			<point x="382" y="324"/>
		</contour>
		<contour>
			<point x="532" y="120" type="curve" smooth="yes"/>
			<point x="548" y="120"/>
			<point x="563" y="131"/>
			<point x="565" y="147" type="curve" smooth="yes"/>
			<point x="752" y="1452" type="line" smooth="yes"/>
			<point x="754" y="1464"/>
			<point x="755" y="1472"/>
			<point x="755" y="1479" type="curve" smooth="yes"/>
			<point x="755" y="1494"/>
			<point x="741" y="1509"/>
			<point x="714" y="1509" type="curve" smooth="yes"/>
			<point x="695" y="1509"/>
			<point x="681" y="1498"/>
			<point x="678" y="1479" type="curve" smooth="yes"/>
			<point x="490" y="170" type="line" smooth="yes"/>
			<point x="489" y="165"/>
			<point x="488" y="157"/>
			<point x="488" y="150" type="curve" smooth="yes"/>
			<point x="488" y="134"/>
			<point x="504" y="120"/>
		</contour>
	</outline>
</glyph>
<glyph name="section" format="2">
	<unicode hex="00A7"/>
	<advance width="1140"/>
	<outline>
		<contour>
			<point x="604" y="105" type="curve"/>
			<point x="658" y="51" type="line"/>
			<point x="857" y="147"/>
			<point x="977" y="277"/>
			<point x="977" y="485" type="curve" smooth="yes"/>
			<point x="977" y="640"/>
			<point x="912" y="769"/>
			<point x="680" y="960" type="curve" smooth="yes"/>
			<point x="493" y="1114"/>
			<point x="451" y="1189"/>
			<point x="451" y="1285" type="curve" smooth="yes"/>
			<point x="451" y="1447"/>
			<point x="569" y="1536"/>
			<point x="721" y="1536" type="curve" smooth="yes"/>
			<point x="796" y="1536"/>
			<point x="867" y="1515"/>
			<point x="938" y="1471" type="curve" smooth="yes"/>
			<point x="959" y="1458"/>
			<point x="969" y="1453"/>
			<point x="980" y="1453" type="curve" smooth="yes"/>
			<point x="999" y="1453"/>
			<point x="1010" y="1473"/>
			<point x="1010" y="1484" type="curve" smooth="yes"/>
			<point x="1010" y="1499"/>
			<point x="992" y="1522"/>
			<point x="951" y="1548" type="curve" smooth="yes"/>
			<point x="884" y="1590"/>
			<point x="793" y="1614"/>
			<point x="710" y="1614" type="curve" smooth="yes"/>
			<point x="505" y="1614"/>
			<point x="368" y="1470"/>
			<point x="368" y="1283" type="curve" smooth="yes"/>
			<point x="368" y="1113"/>
			<point x="510" y="985"/>
			<point x="621" y="897" type="curve" smooth="yes"/>
			<point x="841" y="718"/>
			<point x="894" y="607"/>
			<point x="894" y="476" type="curve" smooth="yes"/>
			<point x="894" y="307"/>
			<point x="805" y="201"/>
		</contour>
		<contour>
			<point x="536" y="999" type="curve"/>
			<point x="482" y="1053" type="line"/>
			<point x="283" y="957"/>
			<point x="163" y="827"/>
			<point x="163" y="619" type="curve" smooth="yes"/>
			<point x="163" y="464"/>
			<point x="228" y="335"/>
			<point x="460" y="144" type="curve" smooth="yes"/>
			<point x="647" y="-10"/>
			<point x="689" y="-85"/>
			<point x="689" y="-181" type="curve" smooth="yes"/>
			<point x="689" y="-343"/>
			<point x="571" y="-432"/>
			<point x="419" y="-432" type="curve" smooth="yes"/>
			<point x="344" y="-432"/>
			<point x="272" y="-410"/>
			<point x="202" y="-367" type="curve" smooth="yes"/>
			<point x="181" y="-354"/>
			<point x="171" y="-349"/>
			<point x="160" y="-349" type="curve" smooth="yes"/>
			<point x="141" y="-349"/>
			<point x="130" y="-369"/>
			<point x="130" y="-380" type="curve" smooth="yes"/>
			<point x="130" y="-395"/>
			<point x="148" y="-418"/>
			<point x="189" y="-444" type="curve" smooth="yes"/>
			<point x="256" y="-486"/>
			<point x="347" y="-510"/>
			<point x="430" y="-510" type="curve" smooth="yes"/>
			<point x="635" y="-510"/>
			<point x="772" y="-366"/>
			<point x="772" y="-179" type="curve" smooth="yes"/>
			<point x="772" y="-9"/>
			<point x="630" y="119"/>
			<point x="519" y="207" type="curve" smooth="yes"/>
			<point x="299" y="386"/>
			<point x="246" y="497"/>
			<point x="246" y="628" type="curve" smooth="yes"/>
			<point x="246" y="797"/>
			<point x="335" y="903"/>
		</contour>
	</outline>
	<anchor name="bottom" x="639" y="0"/>
</glyph>
<glyph name="copyright" format="2">
	<unicode hex="00A9"/>
	<advance width="2173"/>
	<outline>
		<contour>
			<point x="1063" y="176" type="curve" smooth="yes"/>
			<point x="1216" y="176"/>
			<point x="1345" y="234"/>
			<point x="1455" y="333" type="curve" smooth="yes"/>
			<point x="1484" y="360"/>
			<point x="1490" y="373"/>
			<point x="1490" y="385" type="curve" smooth="yes"/>
			<point x="1490" y="402"/>
			<point x="1471" y="417"/>
			<point x="1458" y="417" type="curve" smooth="yes"/>
			<point x="1445" y="417"/>
			<point x="1432" y="406"/>
			<point x="1415" y="391" type="curve" smooth="yes"/>
			<point x="1313" y="300"/>
			<point x="1205" y="252"/>
			<point x="1072" y="252" type="curve" smooth="yes"/>
			<point x="822" y="252"/>
			<point x="685" y="422"/>
			<point x="685" y="713" type="curve" smooth="yes"/>
			<point x="685" y="1073"/>
			<point x="886" y="1317"/>
			<point x="1150" y="1317" type="curve" smooth="yes"/>
			<point x="1243" y="1317"/>
			<point x="1314" y="1285"/>
			<point x="1386" y="1233" type="curve" smooth="yes"/>
			<point x="1407" y="1218"/>
			<point x="1416" y="1212"/>
			<point x="1427" y="1212" type="curve" smooth="yes"/>
			<point x="1445" y="1212"/>
			<point x="1458" y="1228"/>
			<point x="1458" y="1244" type="curve" smooth="yes"/>
			<point x="1458" y="1261"/>
			<point x="1444" y="1279"/>
			<point x="1405" y="1308" type="curve" smooth="yes"/>
			<point x="1332" y="1361"/>
			<point x="1247" y="1393"/>
			<point x="1143" y="1393" type="curve" smooth="yes"/>
			<point x="842" y="1393"/>
			<point x="604" y="1118"/>
			<point x="604" y="719" type="curve" smooth="yes"/>
			<point x="604" y="382"/>
			<point x="773" y="176"/>
		</contour>
		<contour>
			<point x="1012" y="-222" type="curve" smooth="yes"/>
			<point x="1609" y="-222"/>
			<point x="2043" y="200"/>
			<point x="2043" y="850" type="curve" smooth="yes"/>
			<point x="2043" y="1417"/>
			<point x="1713" y="1778"/>
			<point x="1161" y="1778" type="curve" smooth="yes"/>
			<point x="564" y="1778"/>
			<point x="130" y="1357"/>
			<point x="130" y="707" type="curve" smooth="yes"/>
			<point x="130" y="140"/>
			<point x="460" y="-222"/>
		</contour>
		<contour>
			<point x="1015" y="-147" type="curve" smooth="yes"/>
			<point x="507" y="-147"/>
			<point x="209" y="185"/>
			<point x="209" y="710" type="curve" smooth="yes"/>
			<point x="209" y="1330"/>
			<point x="626" y="1703"/>
			<point x="1166" y="1703" type="curve" smooth="yes"/>
			<point x="1673" y="1703"/>
			<point x="1964" y="1375"/>
			<point x="1964" y="851" type="curve" smooth="yes"/>
			<point x="1964" y="233"/>
			<point x="1558" y="-147"/>
		</contour>
	</outline>
</glyph>
<glyph name="registered" format="2">
	<unicode hex="00AE"/>
	<advance width="1836"/>
	<outline>
		<contour>
			<point x="878" y="430" type="curve" smooth="yes"/>
			<point x="1357" y="430"/>
			<point x="1706" y="766"/>
			<point x="1706" y="1283" type="curve" smooth="yes"/>
			<point x="1706" y="1745"/>
			<point x="1426" y="2040"/>
			<point x="958" y="2040" type="curve" smooth="yes"/>
			<point x="478" y="2040"/>
			<point x="130" y="1704"/>
			<point x="130" y="1187" type="curve" smooth="yes"/>
			<point x="130" y="725"/>
			<point x="411" y="430"/>
		</contour>
		<contour>
			<point x="888" y="510" type="curve" smooth="yes"/>
			<point x="462" y="510"/>
			<point x="212" y="774"/>
			<point x="212" y="1192" type="curve" smooth="yes"/>
			<point x="212" y="1671"/>
			<point x="533" y="1960"/>
			<point x="948" y="1960" type="curve" smooth="yes"/>
			<point x="1378" y="1960"/>
			<point x="1624" y="1699"/>
			<point x="1624" y="1282" type="curve" smooth="yes"/>
			<point x="1624" y="804"/>
			<point x="1309" y="510"/>
		</contour>
		<contour>
			<point x="651" y="793" type="curve" smooth="yes"/>
			<point x="683" y="793"/>
			<point x="686" y="809"/>
			<point x="687" y="824" type="curve" smooth="yes"/>
			<point x="751" y="1685" type="line"/>
			<point x="768" y="1687"/>
			<point x="843" y="1689"/>
			<point x="869" y="1689" type="curve" smooth="yes"/>
			<point x="1055" y="1689"/>
			<point x="1143" y="1619"/>
			<point x="1143" y="1490" type="curve" smooth="yes"/>
			<point x="1143" y="1366"/>
			<point x="1035" y="1285"/>
			<point x="859" y="1285" type="curve" smooth="yes"/>
			<point x="699" y="1285" type="line"/>
			<point x="696" y="1219" type="line"/>
			<point x="858" y="1219" type="line" smooth="yes"/>
			<point x="1078" y="1219"/>
			<point x="1214" y="1329"/>
			<point x="1214" y="1497" type="curve" smooth="yes"/>
			<point x="1214" y="1655"/>
			<point x="1104" y="1757"/>
			<point x="876" y="1757" type="curve" smooth="yes"/>
			<point x="833" y="1757"/>
			<point x="751" y="1754"/>
			<point x="723" y="1751" type="curve" smooth="yes"/>
			<point x="695" y="1748"/>
			<point x="684" y="1738"/>
			<point x="682" y="1705" type="curve" smooth="yes"/>
			<point x="620" y="857" type="line" smooth="yes"/>
			<point x="619" y="843"/>
			<point x="618" y="834"/>
			<point x="618" y="825" type="curve" smooth="yes"/>
			<point x="618" y="805"/>
			<point x="622" y="793"/>
		</contour>
		<contour>
			<point x="1177" y="793" type="curve" smooth="yes"/>
			<point x="1196" y="793"/>
			<point x="1217" y="812"/>
			<point x="1217" y="836" type="curve" smooth="yes"/>
			<point x="1217" y="844"/>
			<point x="1213" y="855"/>
			<point x="1200" y="871" type="curve" smooth="yes"/>
			<point x="891" y="1252" type="line"/>
			<point x="835" y="1225" type="line"/>
			<point x="1140" y="821" type="line" smooth="yes"/>
			<point x="1158" y="797"/>
			<point x="1167" y="793"/>
		</contour>
	</outline>
</glyph>
<glyph name="paragraph" format="2">
	<unicode hex="00B6"/>
	<advance width="1279"/>
	<outline>
		<contour>
			<point x="786" y="1516" type="curve" smooth="yes"/>
			<point x="849" y="1516"/>
			<point x="950" y="1498"/>
			<point x="1010" y="1478" type="curve"/>
			<point x="1017" y="1555" type="line"/>
			<point x="944" y="1580"/>
			<point x="856" y="1594"/>
			<point x="780" y="1594" type="curve" smooth="yes"/>
			<point x="416" y="1594"/>
			<point x="180" y="1334"/>
			<point x="180" y="1019" type="curve" smooth="yes"/>
			<point x="180" y="685"/>
			<point x="409" y="479"/>
			<point x="762" y="471" type="curve" smooth="yes"/>
			<point x="834" y="471"/>
			<point x="908" y="481"/>
			<point x="945" y="490" type="curve"/>
			<point x="949" y="569" type="line"/>
			<point x="899" y="557"/>
			<point x="828" y="549"/>
			<point x="767" y="549" type="curve" smooth="yes"/>
			<point x="460" y="549"/>
			<point x="265" y="720"/>
			<point x="265" y="1016" type="curve" smooth="yes"/>
			<point x="265" y="1295"/>
			<point x="474" y="1516"/>
		</contour>
		<contour>
			<point x="669" y="-428" type="curve"/>
			<point x="596" y="-484" type="line"/>
			<point x="631" y="-501"/>
			<point x="675" y="-510"/>
			<point x="715" y="-510" type="curve" smooth="yes"/>
			<point x="867" y="-510"/>
			<point x="950" y="-419"/>
			<point x="968" y="-156" type="curve" smooth="yes"/>
			<point x="1086" y="1579" type="line" smooth="yes"/>
			<point x="1088" y="1602"/>
			<point x="1089" y="1618"/>
			<point x="1089" y="1627" type="curve" smooth="yes"/>
			<point x="1089" y="1648"/>
			<point x="1078" y="1665"/>
			<point x="1048" y="1665" type="curve" smooth="yes"/>
			<point x="1022" y="1665"/>
			<point x="1009" y="1652"/>
			<point x="1005" y="1600" type="curve" smooth="yes"/>
			<point x="888" y="-132" type="line" smooth="yes"/>
			<point x="872" y="-370"/>
			<point x="821" y="-435"/>
			<point x="715" y="-435" type="curve" smooth="yes"/>
			<point x="701" y="-435"/>
			<point x="687" y="-433"/>
		</contour>
		<contour>
			<point x="496" y="-510" type="curve" smooth="yes"/>
			<point x="667" y="-510"/>
			<point x="750" y="-417"/>
			<point x="767" y="-156" type="curve" smooth="yes"/>
			<point x="886" y="1523" type="line"/>
			<point x="804" y="1532" type="line"/>
			<point x="687" y="-118" type="line" smooth="yes"/>
			<point x="669" y="-368"/>
			<point x="634" y="-435"/>
			<point x="502" y="-435" type="curve" smooth="yes"/>
			<point x="418" y="-435"/>
			<point x="332" y="-400"/>
			<point x="272" y="-345" type="curve" smooth="yes"/>
			<point x="257" y="-332"/>
			<point x="251" y="-329"/>
			<point x="243" y="-329" type="curve" smooth="yes"/>
			<point x="229" y="-329"/>
			<point x="208" y="-345"/>
			<point x="208" y="-366" type="curve" smooth="yes"/>
			<point x="208" y="-379"/>
			<point x="218" y="-392"/>
			<point x="230" y="-405" type="curve" smooth="yes"/>
			<point x="282" y="-462"/>
			<point x="394" y="-510"/>
		</contour>
	</outline>
</glyph>
<glyph name="ordmasculine" format="2">
	<unicode hex="00BA"/>
	<advance width="844"/>
	<outline>
		<contour>
			<point x="383" y="795" type="curve" smooth="yes"/>
			<point x="585" y="795"/>
			<point x="741" y="982"/>
			<point x="741" y="1230" type="curve" smooth="yes"/>
			<point x="741" y="1440"/>
			<point x="634" y="1557"/>
			<point x="461" y="1557" type="curve" smooth="yes"/>
			<point x="253" y="1557"/>
			<point x="102" y="1370"/>
			<point x="102" y="1122" type="curve" smooth="yes"/>
			<point x="102" y="912"/>
			<point x="209" y="795"/>
		</contour>
		<contour>
			<point x="382" y="865" type="curve" smooth="yes"/>
			<point x="260" y="865"/>
			<point x="180" y="943"/>
			<point x="180" y="1132" type="curve" smooth="yes"/>
			<point x="180" y="1329"/>
			<point x="302" y="1487"/>
			<point x="461" y="1487" type="curve" smooth="yes"/>
			<point x="584" y="1487"/>
			<point x="664" y="1409"/>
			<point x="664" y="1221" type="curve" smooth="yes"/>
			<point x="664" y="1024"/>
			<point x="545" y="865"/>
		</contour>
	</outline>
</glyph>
<glyph name="Oslash" format="2">
	<unicode hex="00D8"/>
	<advance width="1352"/>
	<outline>
		<contour>
			<point x="606" y="-12" type="curve" smooth="yes"/>
			<point x="943" y="-12"/>
			<point x="1232" y="348"/>
			<point x="1232" y="898" type="curve" smooth="yes"/>
			<point x="1232" y="1142"/>
			<point x="1176" y="1321"/>
			<point x="1088" y="1439" type="curve"/>
			<point x="1150" y="1549" type="line" smooth="yes"/>
			<point x="1166" y="1577"/>
			<point x="1171" y="1591"/>
			<point x="1171" y="1602" type="curve" smooth="yes"/>
			<point x="1171" y="1620"/>
			<point x="1152" y="1634"/>
			<point x="1131" y="1634" type="curve" smooth="yes"/>
			<point x="1117" y="1634"/>
			<point x="1107" y="1626"/>
			<point x="1084" y="1586" type="curve" smooth="yes"/>
			<point x="1035" y="1499" type="line"/>
			<point x="952" y="1577"/>
			<point x="851" y="1615"/>
			<point x="743" y="1615" type="curve" smooth="yes"/>
			<point x="409" y="1615"/>
			<point x="120" y="1258"/>
			<point x="120" y="708" type="curve" smooth="yes"/>
			<point x="120" y="457"/>
			<point x="178" y="275"/>
			<point x="270" y="156" type="curve"/>
			<point x="204" y="41" type="line" smooth="yes"/>
			<point x="187" y="11"/>
			<point x="182" y="0"/>
			<point x="182" y="-11" type="curve" smooth="yes"/>
			<point x="182" y="-30"/>
			<point x="204" y="-45"/>
			<point x="225" y="-45" type="curve" smooth="yes"/>
			<point x="239" y="-45"/>
			<point x="249" y="-33"/>
			<point x="267" y="-1" type="curve" smooth="yes"/>
			<point x="323" y="98" type="line"/>
			<point x="403" y="24"/>
			<point x="501" y="-12"/>
		</contour>
		<contour>
			<point x="205" y="713" type="curve" smooth="yes"/>
			<point x="205" y="1203"/>
			<point x="452" y="1535"/>
			<point x="740" y="1535" type="curve" smooth="yes"/>
			<point x="835" y="1535"/>
			<point x="923" y="1502"/>
			<point x="993" y="1427" type="curve"/>
			<point x="314" y="234" type="line"/>
			<point x="247" y="338"/>
			<point x="205" y="494"/>
		</contour>
		<contour>
			<point x="365" y="170" type="curve"/>
			<point x="1043" y="1362" type="line"/>
			<point x="1107" y="1259"/>
			<point x="1147" y="1105"/>
			<point x="1147" y="892" type="curve" smooth="yes"/>
			<point x="1147" y="402"/>
			<point x="900" y="68"/>
			<point x="612" y="68" type="curve" smooth="yes"/>
			<point x="520" y="68"/>
			<point x="434" y="100"/>
		</contour>
	</outline>
	<anchor name="bottom" x="606" y="-12"/>
	<anchor name="center" x="671" y="784"/>
	<anchor name="ogonek" x="1026" y="10"/>
	<anchor name="top" x="751" y="1600"/>
	<anchor name="topleft" x="237" y="1434"/>
	<anchor name="topright" x="1438" y="1434"/>
</glyph>
<glyph name="Aogonek" format="2">
	<unicode hex="0104"/>
	<advance width="1288"/>
	<outline>
		<contour>
			<point x="85" y="-12" type="curve" smooth="yes"/>
			<point x="104" y="-12"/>
			<point x="116" y="5"/>
			<point x="126" y="31" type="curve" smooth="yes"/>
			<point x="693" y="1494" type="line"/>
			<point x="669" y="1495" type="line"/>
			<point x="1055" y="21" type="line"/>
			<point x="955" y="-59"/>
			<point x="904" y="-167"/>
			<point x="904" y="-250" type="curve" smooth="yes"/>
			<point x="904" y="-334"/>
			<point x="965" y="-386"/>
			<point x="1038" y="-386" type="curve" smooth="yes"/>
			<point x="1111" y="-386"/>
			<point x="1166" y="-354"/>
			<point x="1206" y="-315" type="curve" smooth="yes"/>
			<point x="1224" y="-298"/>
			<point x="1228" y="-287"/>
			<point x="1228" y="-280" type="curve" smooth="yes"/>
			<point x="1228" y="-263"/>
			<point x="1214" y="-249"/>
			<point x="1201" y="-249" type="curve" smooth="yes"/>
			<point x="1191" y="-249"/>
			<point x="1184" y="-253"/>
			<point x="1167" y="-265" type="curve" smooth="yes"/>
			<point x="1130" y="-291"/>
			<point x="1090" y="-309"/>
			<point x="1053" y="-309" type="curve" smooth="yes"/>
			<point x="1010" y="-309"/>
			<point x="984" y="-289"/>
			<point x="984" y="-235" type="curve" smooth="yes"/>
			<point x="984" y="-168"/>
			<point x="1025" y="-86"/>
			<point x="1122" y="-6" type="curve" smooth="yes"/>
			<point x="1142" y="10"/>
			<point x="1143" y="20"/>
			<point x="1143" y="27" type="curve" smooth="yes"/>
			<point x="1143" y="35"/>
			<point x="1139" y="54"/>
			<point x="1135" y="68" type="curve" smooth="yes"/>
			<point x="741" y="1552" type="line" smooth="yes"/>
			<point x="731" y="1590"/>
			<point x="719" y="1600"/>
			<point x="699" y="1600" type="curve" smooth="yes"/>
			<point x="681" y="1600" type="line" smooth="yes"/>
			<point x="663" y="1600"/>
			<point x="650" y="1589"/>
			<point x="636" y="1554" type="curve" smooth="yes"/>
			<point x="50" y="62" type="line" smooth="yes"/>
			<point x="46" y="52"/>
			<point x="40" y="36"/>
			<point x="40" y="22" type="curve" smooth="yes"/>
			<point x="40" y="0"/>
			<point x="60" y="-12"/>
		</contour>
		<contour>
			<point x="341" y="626" type="line"/>
			<point x="913" y="626" type="line"/>
			<point x="892" y="704" type="line"/>
			<point x="371" y="704" type="line"/>
		</contour>
	</outline>
	<anchor name="bottom" x="594" y="0"/>
	<anchor name="top" x="691" y="1600"/>
	<anchor name="topleft" x="293" y="1600"/>
</glyph>
<glyph name="aogonek" format="2">
	<unicode hex="0105"/>
	<advance width="1041"/>
	<outline>
		<contour>
			<point x="333" y="-12" type="curve" smooth="yes"/>
			<point x="513" y="-12"/>
			<point x="700" y="214"/>
			<point x="840" y="691" type="curve"/>
			<point x="794" y="739" type="line"/>
			<point x="679" y="350"/>
			<point x="488" y="66"/>
			<point x="355" y="66" type="curve" smooth="yes"/>
			<point x="262" y="66"/>
			<point x="215" y="157"/>
			<point x="215" y="332" type="curve" smooth="yes"/>
			<point x="215" y="654"/>
			<point x="363" y="857"/>
			<point x="557" y="857" type="curve" smooth="yes"/>
			<point x="644" y="857"/>
			<point x="710" y="834"/>
			<point x="803" y="768" type="curve"/>
			<point x="808" y="844" type="line"/>
			<point x="724" y="907"/>
			<point x="639" y="935"/>
			<point x="553" y="935" type="curve" smooth="yes"/>
			<point x="308" y="935"/>
			<point x="130" y="700"/>
			<point x="130" y="328" type="curve" smooth="yes"/>
			<point x="130" y="108"/>
			<point x="204" y="-12"/>
		</contour>
		<contour>
			<point x="797" y="-15" type="curve" smooth="yes"/>
			<point x="816" y="1"/>
			<point x="825" y="16"/>
			<point x="827" y="41" type="curve" smooth="yes"/>
			<point x="878" y="843" type="line" smooth="yes"/>
			<point x="879" y="866"/>
			<point x="881" y="879"/>
			<point x="881" y="891" type="curve" smooth="yes"/>
			<point x="881" y="922"/>
			<point x="869" y="935"/>
			<point x="840" y="935" type="curve" smooth="yes"/>
			<point x="816" y="935"/>
			<point x="798" y="926"/>
			<point x="795" y="881" type="curve" smooth="yes"/>
			<point x="741" y="49" type="line" smooth="yes"/>
			<point x="740" y="37"/>
			<point x="740" y="35"/>
			<point x="740" y="27" type="curve" smooth="yes"/>
			<point x="740" y="1"/>
			<point x="754" y="-12"/>
			<point x="780" y="-12" type="curve"/>
			<point x="752" y="28" type="line"/>
			<point x="611" y="-78"/>
			<point x="580" y="-177"/>
			<point x="580" y="-250" type="curve" smooth="yes"/>
			<point x="580" y="-334"/>
			<point x="641" y="-386"/>
			<point x="714" y="-386" type="curve" smooth="yes"/>
			<point x="787" y="-386"/>
			<point x="842" y="-354"/>
			<point x="882" y="-315" type="curve" smooth="yes"/>
			<point x="900" y="-298"/>
			<point x="904" y="-287"/>
			<point x="904" y="-280" type="curve" smooth="yes"/>
			<point x="904" y="-263"/>
			<point x="890" y="-249"/>
			<point x="877" y="-249" type="curve" smooth="yes"/>
			<point x="867" y="-249"/>
			<point x="860" y="-253"/>
			<point x="843" y="-265" type="curve" smooth="yes"/>
			<point x="806" y="-291"/>
			<point x="766" y="-309"/>
			<point x="729" y="-309" type="curve" smooth="yes"/>
			<point x="686" y="-309"/>
			<point x="660" y="-289"/>
			<point x="660" y="-235" type="curve" smooth="yes"/>
			<point x="660" y="-168"/>
			<point x="703" y="-91"/>
		</contour>
	</outline>
	<anchor name="bottom" x="355" y="0"/>
	<anchor name="top" x="580" y="920"/>
</glyph>
<glyph name="Eogonek" format="2">
	<unicode hex="0118"/>
	<advance width="1071"/>
	<outline>
		<contour>
			<point x="188" y="-12" type="curve" smooth="yes"/>
			<point x="310" y="-12"/>
			<point x="684" y="-9"/>
			<point x="847" y="-6" type="curve"/>
			<point x="847" y="15" type="line"/>
			<point x="746" y="-65"/>
			<point x="696" y="-160"/>
			<point x="696" y="-250" type="curve" smooth="yes"/>
			<point x="696" y="-334"/>
			<point x="757" y="-386"/>
			<point x="830" y="-386" type="curve" smooth="yes"/>
			<point x="903" y="-386"/>
			<point x="958" y="-354"/>
			<point x="998" y="-315" type="curve" smooth="yes"/>
			<point x="1016" y="-298"/>
			<point x="1020" y="-287"/>
			<point x="1020" y="-280" type="curve" smooth="yes"/>
			<point x="1020" y="-263"/>
			<point x="1006" y="-249"/>
			<point x="993" y="-249" type="curve" smooth="yes"/>
			<point x="983" y="-249"/>
			<point x="976" y="-253"/>
			<point x="959" y="-265" type="curve" smooth="yes"/>
			<point x="922" y="-291"/>
			<point x="882" y="-309"/>
			<point x="845" y="-309" type="curve" smooth="yes"/>
			<point x="802" y="-309"/>
			<point x="776" y="-289"/>
			<point x="776" y="-235" type="curve" smooth="yes"/>
			<point x="776" y="-168"/>
			<point x="817" y="-86"/>
			<point x="914" y="-6" type="curve" smooth="yes"/>
			<point x="935" y="11"/>
			<point x="940" y="17"/>
			<point x="940" y="38" type="curve" smooth="yes"/>
			<point x="940" y="58"/>
			<point x="926" y="73"/>
			<point x="897" y="73" type="curve" smooth="yes"/>
			<point x="842" y="73"/>
			<point x="324" y="68"/>
			<point x="236" y="65" type="curve"/>
			<point x="285" y="803" type="line"/>
			<point x="382" y="803"/>
			<point x="716" y="806"/>
			<point x="769" y="808" type="curve" smooth="yes"/>
			<point x="805" y="809"/>
			<point x="822" y="822"/>
			<point x="822" y="851" type="curve" smooth="yes"/>
			<point x="822" y="869"/>
			<point x="810" y="886"/>
			<point x="781" y="886" type="curve" smooth="yes"/>
			<point x="749" y="886"/>
			<point x="350" y="881"/>
			<point x="290" y="879" type="curve"/>
			<point x="332" y="1522" type="line"/>
			<point x="948" y="1522" type="line" smooth="yes"/>
			<point x="988" y="1522"/>
			<point x="1001" y="1538"/>
			<point x="1001" y="1565" type="curve" smooth="yes"/>
			<point x="1001" y="1585"/>
			<point x="987" y="1600"/>
			<point x="958" y="1600" type="curve" smooth="yes"/>
			<point x="291" y="1600" type="line" smooth="yes"/>
			<point x="265" y="1600"/>
			<point x="252" y="1586"/>
			<point x="250" y="1557" type="curve" smooth="yes"/>
			<point x="152" y="70" type="line" smooth="yes"/>
			<point x="151" y="56"/>
			<point x="150" y="42"/>
			<point x="150" y="31" type="curve" smooth="yes"/>
			<point x="150" y="0"/>
			<point x="165" y="-12"/>
		</contour>
	</outline>
	<anchor name="bottom" x="521" y="0"/>
	<anchor name="ogonek" x="876" y="0"/>
	<anchor name="top" x="637" y="1600"/>
	<anchor name="topleft" x="307" y="1600"/>
	<guideline x="940" y="269" angle="90"/>
</glyph>
<glyph name="iogonek" format="2">
	<unicode hex="012F"/>
	<advance width="461"/>
	<outline>
		<contour>
			<point x="276" y="1154" type="curve" smooth="yes"/>
			<point x="329" y="1154"/>
			<point x="369" y="1194"/>
			<point x="369" y="1248" type="curve" smooth="yes"/>
			<point x="369" y="1288"/>
			<point x="335" y="1322"/>
			<point x="294" y="1322" type="curve" smooth="yes"/>
			<point x="240" y="1322"/>
			<point x="200" y="1283"/>
			<point x="200" y="1229" type="curve" smooth="yes"/>
			<point x="200" y="1188"/>
			<point x="234" y="1154"/>
		</contour>
		<contour>
			<point x="141" y="-386" type="curve" smooth="yes"/>
			<point x="214" y="-386"/>
			<point x="269" y="-354"/>
			<point x="309" y="-315" type="curve" smooth="yes"/>
			<point x="327" y="-298"/>
			<point x="331" y="-287"/>
			<point x="331" y="-280" type="curve" smooth="yes"/>
			<point x="331" y="-263"/>
			<point x="317" y="-249"/>
			<point x="304" y="-249" type="curve" smooth="yes"/>
			<point x="294" y="-249"/>
			<point x="287" y="-253"/>
			<point x="270" y="-265" type="curve" smooth="yes"/>
			<point x="233" y="-291"/>
			<point x="193" y="-309"/>
			<point x="156" y="-309" type="curve" smooth="yes"/>
			<point x="113" y="-309"/>
			<point x="87" y="-289"/>
			<point x="87" y="-235" type="curve" smooth="yes"/>
			<point x="87" y="-168"/>
			<point x="116" y="-107"/>
			<point x="211" y="-16" type="curve" smooth="yes"/>
			<point x="237" y="10"/>
			<point x="244" y="23"/>
			<point x="246" y="49" type="curve" smooth="yes"/>
			<point x="298" y="843" type="line" smooth="yes"/>
			<point x="300" y="866"/>
			<point x="301" y="879"/>
			<point x="301" y="891" type="curve" smooth="yes"/>
			<point x="301" y="922"/>
			<point x="289" y="935"/>
			<point x="260" y="935" type="curve" smooth="yes"/>
			<point x="236" y="935"/>
			<point x="218" y="926"/>
			<point x="215" y="881" type="curve" smooth="yes"/>
			<point x="163" y="79" type="line" smooth="yes"/>
			<point x="162" y="68"/>
			<point x="161" y="53"/>
			<point x="161" y="47" type="curve" smooth="yes"/>
			<point x="161" y="39"/>
			<point x="165" y="31"/>
			<point x="172" y="27" type="curve"/>
			<point x="50" y="-68"/>
			<point x="7" y="-158"/>
			<point x="7" y="-250" type="curve" smooth="yes"/>
			<point x="7" y="-334"/>
			<point x="68" y="-386"/>
		</contour>
	</outline>
	<anchor name="bottom" x="196" y="0"/>
	<anchor name="top" x="294" y="1322"/>
</glyph>
<glyph name="OE" format="2">
	<unicode hex="0152"/>
	<advance width="2019"/>
	<outline>
		<contour>
			<point x="606" y="-12" type="curve" smooth="yes"/>
			<point x="822" y="-12"/>
			<point x="1018" y="136"/>
			<point x="1138" y="424" type="curve"/>
			<point x="1130" y="424" type="line"/>
			<point x="1119" y="335"/>
			<point x="1114" y="278"/>
			<point x="1107" y="173" type="curve" smooth="yes"/>
			<point x="1100" y="70" type="line" smooth="yes"/>
			<point x="1099" y="56"/>
			<point x="1098" y="42"/>
			<point x="1098" y="31" type="curve" smooth="yes"/>
			<point x="1098" y="0"/>
			<point x="1113" y="-12"/>
			<point x="1136" y="-12" type="curve" smooth="yes"/>
			<point x="1334" y="-12"/>
			<point x="1718" y="-9"/>
			<point x="1835" y="-5" type="curve" smooth="yes"/>
			<point x="1875" y="-4"/>
			<point x="1888" y="11"/>
			<point x="1888" y="38" type="curve" smooth="yes"/>
			<point x="1888" y="58"/>
			<point x="1874" y="73"/>
			<point x="1845" y="73" type="curve" smooth="yes"/>
			<point x="1625" y="73"/>
			<point x="1272" y="68"/>
			<point x="1184" y="65" type="curve"/>
			<point x="1233" y="803" type="line"/>
			<point x="1330" y="803"/>
			<point x="1664" y="806"/>
			<point x="1717" y="808" type="curve" smooth="yes"/>
			<point x="1753" y="809"/>
			<point x="1770" y="822"/>
			<point x="1770" y="851" type="curve" smooth="yes"/>
			<point x="1770" y="869"/>
			<point x="1758" y="886"/>
			<point x="1729" y="886" type="curve" smooth="yes"/>
			<point x="1565" y="886"/>
			<point x="1298" y="881"/>
			<point x="1238" y="879" type="curve"/>
			<point x="1280" y="1522" type="line"/>
			<point x="1896" y="1522" type="line" smooth="yes"/>
			<point x="1936" y="1522"/>
			<point x="1949" y="1538"/>
			<point x="1949" y="1565" type="curve" smooth="yes"/>
			<point x="1949" y="1585"/>
			<point x="1935" y="1600"/>
			<point x="1906" y="1600" type="curve" smooth="yes"/>
			<point x="1239" y="1600" type="line" smooth="yes"/>
			<point x="1213" y="1600"/>
			<point x="1200" y="1586"/>
			<point x="1198" y="1557" type="curve" smooth="yes"/>
			<point x="1189" y="1423" type="line" smooth="yes"/>
			<point x="1183" y="1332"/>
			<point x="1182" y="1264"/>
			<point x="1182" y="1199" type="curve"/>
			<point x="1194" y="1199" type="line"/>
			<point x="1128" y="1474"/>
			<point x="952" y="1615"/>
			<point x="743" y="1615" type="curve" smooth="yes"/>
			<point x="409" y="1615"/>
			<point x="120" y="1258"/>
			<point x="120" y="708" type="curve" smooth="yes"/>
			<point x="120" y="218"/>
			<point x="341" y="-12"/>
		</contour>
		<contour>
			<point x="612" y="68" type="curve" smooth="yes"/>
			<point x="392" y="68"/>
			<point x="205" y="249"/>
			<point x="205" y="713" type="curve" smooth="yes"/>
			<point x="205" y="1203"/>
			<point x="452" y="1535"/>
			<point x="740" y="1535" type="curve" smooth="yes"/>
			<point x="960" y="1535"/>
			<point x="1149" y="1356"/>
			<point x="1149" y="892" type="curve" smooth="yes"/>
			<point x="1149" y="402"/>
			<point x="900" y="68"/>
		</contour>
	</outline>
	<anchor name="bottom" x="1012" y="0"/>
	<anchor name="top" x="1118" y="1600"/>
</glyph>
<glyph name="uogonek" format="2">
	<unicode hex="0173"/>
	<advance width="1051"/>
	<outline>
		<contour>
			<point x="809" y="-2" type="curve" smooth="yes"/>
			<point x="822" y="9"/>
			<point x="825" y="25"/>
			<point x="826" y="42" type="curve" smooth="yes"/>
			<point x="879" y="859" type="line" smooth="yes"/>
			<point x="880" y="873"/>
			<point x="881" y="889"/>
			<point x="881" y="899" type="curve" smooth="yes"/>
			<point x="881" y="922"/>
			<point x="867" y="935"/>
			<point x="841" y="935" type="curve" smooth="yes"/>
			<point x="816" y="935"/>
			<point x="801" y="923"/>
			<point x="798" y="891" type="curve" smooth="yes"/>
			<point x="795" y="815" type="line"/>
			<point x="707" y="268"/>
			<point x="561" y="66"/>
			<point x="404" y="66" type="curve" smooth="yes"/>
			<point x="293" y="66"/>
			<point x="245" y="135"/>
			<point x="245" y="256" type="curve" smooth="yes"/>
			<point x="245" y="294"/>
			<point x="248" y="364"/>
			<point x="256" y="446" type="curve" smooth="yes"/>
			<point x="298" y="888" type="line" smooth="yes"/>
			<point x="298" y="891"/>
			<point x="298" y="894"/>
			<point x="298" y="897" type="curve" smooth="yes"/>
			<point x="298" y="921"/>
			<point x="286" y="935"/>
			<point x="258" y="935" type="curve" smooth="yes"/>
			<point x="233" y="935"/>
			<point x="216" y="923"/>
			<point x="213" y="890" type="curve" smooth="yes"/>
			<point x="172" y="451" type="line" smooth="yes"/>
			<point x="162" y="343"/>
			<point x="160" y="288"/>
			<point x="160" y="256" type="curve" smooth="yes"/>
			<point x="160" y="79"/>
			<point x="243" y="-12"/>
			<point x="394" y="-12" type="curve" smooth="yes"/>
			<point x="543" y="-12"/>
			<point x="678" y="103"/>
			<point x="787" y="482" type="curve"/>
			<point x="771" y="493" type="line"/>
			<point x="741" y="71" type="line" smooth="yes"/>
			<point x="740" y="60"/>
			<point x="739" y="48"/>
			<point x="739" y="37" type="curve" smooth="yes"/>
			<point x="739" y="20"/>
			<point x="747" y="12"/>
			<point x="753" y="9" type="curve"/>
			<point x="753" y="25" type="line"/>
			<point x="619" y="-78"/>
			<point x="585" y="-177"/>
			<point x="585" y="-250" type="curve" smooth="yes"/>
			<point x="585" y="-334"/>
			<point x="646" y="-386"/>
			<point x="719" y="-386" type="curve" smooth="yes"/>
			<point x="792" y="-386"/>
			<point x="847" y="-354"/>
			<point x="887" y="-315" type="curve" smooth="yes"/>
			<point x="905" y="-298"/>
			<point x="909" y="-287"/>
			<point x="909" y="-280" type="curve" smooth="yes"/>
			<point x="909" y="-263"/>
			<point x="895" y="-249"/>
			<point x="882" y="-249" type="curve" smooth="yes"/>
			<point x="872" y="-249"/>
			<point x="865" y="-253"/>
			<point x="848" y="-265" type="curve" smooth="yes"/>
			<point x="811" y="-291"/>
			<point x="771" y="-309"/>
			<point x="734" y="-309" type="curve" smooth="yes"/>
			<point x="691" y="-309"/>
			<point x="665" y="-289"/>
			<point x="665" y="-235" type="curve" smooth="yes"/>
			<point x="665" y="-168"/>
			<point x="706" y="-86"/>
		</contour>
	</outline>
	<anchor name="bottom" x="412" y="0"/>
	<anchor name="top" x="555" y="920"/>
	<anchor name="topright" x="828" y="920"/>
</glyph>
<glyph name="Schwa" format="2">
	<unicode hex="018F"/>
	<advance width="1217"/>
	<outline>
		<contour>
			<point x="657" y="1608" type="curve" smooth="yes"/>
			<point x="497" y="1608"/>
			<point x="367" y="1551"/>
			<point x="257" y="1451" type="curve" smooth="yes"/>
			<point x="225" y="1422"/>
			<point x="218" y="1405"/>
			<point x="218" y="1395" type="curve" smooth="yes"/>
			<point x="218" y="1372"/>
			<point x="234" y="1357"/>
			<point x="254" y="1357" type="curve" smooth="yes"/>
			<point x="263" y="1357"/>
			<point x="272" y="1361"/>
			<point x="298" y="1385" type="curve" smooth="yes"/>
			<point x="388" y="1467"/>
			<point x="518" y="1528"/>
			<point x="641" y="1528" type="curve" smooth="yes"/>
			<point x="886" y="1528"/>
			<point x="1012" y="1311"/>
			<point x="1012" y="957" type="curve" smooth="yes"/>
			<point x="1012" y="402"/>
			<point x="754" y="68"/>
			<point x="467" y="68" type="curve" smooth="yes"/>
			<point x="301" y="68"/>
			<point x="200" y="173"/>
			<point x="200" y="352" type="curve" smooth="yes"/>
			<point x="200" y="636"/>
			<point x="488" y="846"/>
			<point x="1039" y="846" type="curve" smooth="yes"/>
			<point x="1059" y="846"/>
			<point x="1073" y="858"/>
			<point x="1073" y="881" type="curve" smooth="yes"/>
			<point x="1073" y="904"/>
			<point x="1057" y="922"/>
			<point x="1038" y="922" type="curve" smooth="yes"/>
			<point x="444" y="922"/>
			<point x="120" y="680"/>
			<point x="120" y="339" type="curve" smooth="yes"/>
			<point x="120" y="135"/>
			<point x="252" y="-12"/>
			<point x="452" y="-12" type="curve" smooth="yes"/>
			<point x="804" y="-12"/>
			<point x="1097" y="344"/>
			<point x="1097" y="965" type="curve" smooth="yes"/>
			<point x="1097" y="1354"/>
			<point x="944" y="1608"/>
		</contour>
	</outline>
</glyph>
<glyph name="jdotless" format="2">
	<unicode hex="0237"/>
	<advance width="484"/>
	<outline>
		<contour>
			<point x="37" y="-690" type="curve" smooth="yes"/>
			<point x="155" y="-690"/>
			<point x="223" y="-608"/>
			<point x="239" y="-366" type="curve" smooth="yes"/>
			<point x="320" y="831" type="line" smooth="yes"/>
			<point x="322" y="858"/>
			<point x="324" y="886"/>
			<point x="324" y="897" type="curve" smooth="yes"/>
			<point x="324" y="924"/>
			<point x="307" y="935"/>
			<point x="282" y="935" type="curve" smooth="yes"/>
			<point x="252" y="935"/>
			<point x="241" y="921"/>
			<point x="239" y="890" type="curve" smooth="yes"/>
			<point x="157" y="-343" type="line" smooth="yes"/>
			<point x="143" y="-557"/>
			<point x="98" y="-612"/>
			<point x="27" y="-612" type="curve" smooth="yes"/>
			<point x="-17" y="-612"/>
			<point x="-59" y="-588"/>
			<point x="-95" y="-546" type="curve" smooth="yes"/>
			<point x="-104" y="-535"/>
			<point x="-110" y="-531"/>
			<point x="-120" y="-531" type="curve" smooth="yes"/>
			<point x="-137" y="-531"/>
			<point x="-159" y="-549"/>
			<point x="-159" y="-569" type="curve" smooth="yes"/>
			<point x="-159" y="-612"/>
			<point x="-66" y="-690"/>
		</contour>
	</outline>
	<anchor name="top" x="282" y="920"/>
</glyph>
<glyph name="circumflexcomb" format="2">
	<unicode hex="0302"/>
	<outline>
		<contour>
			<point x="88" y="1085" type="curve" smooth="yes"/>
			<point x="101" y="1085"/>
			<point x="112" y="1092"/>
			<point x="130" y="1113" type="curve" smooth="yes"/>
			<point x="351" y="1368" type="line"/>
			<point x="307" y="1372" type="line"/>
			<point x="448" y="1133" type="line" smooth="yes"/>
			<point x="474" y="1090"/>
			<point x="483" y="1085"/>
			<point x="502" y="1085" type="curve" smooth="yes"/>
			<point x="523" y="1085"/>
			<point x="544" y="1107"/>
			<point x="544" y="1127" type="curve" smooth="yes"/>
			<point x="544" y="1138"/>
			<point x="538" y="1151"/>
			<point x="525" y="1173" type="curve" smooth="yes"/>
			<point x="386" y="1399" type="line" smooth="yes"/>
			<point x="368" y="1428"/>
			<point x="360" y="1437"/>
			<point x="336" y="1437" type="curve" smooth="yes"/>
			<point x="319" y="1437"/>
			<point x="306" y="1433"/>
			<point x="281" y="1404" type="curve" smooth="yes"/>
			<point x="74" y="1165" type="line" smooth="yes"/>
			<point x="53" y="1141"/>
			<point x="50" y="1134"/>
			<point x="50" y="1121" type="curve" smooth="yes"/>
			<point x="50" y="1098"/>
			<point x="69" y="1085"/>
		</contour>
	</outline>
	<anchor name="_top" x="289" y="920"/>
	<anchor name="top" x="336" y="1437"/>
</glyph>
<glyph name="tildecomb" format="2">
	<unicode hex="0303"/>
	<outline>
		<contour>
			<point x="84" y="1123" type="curve" smooth="yes"/>
			<point x="99" y="1123"/>
			<point x="107" y="1129"/>
			<point x="124" y="1166" type="curve" smooth="yes"/>
			<point x="171" y="1268"/>
			<point x="200" y="1303"/>
			<point x="233" y="1303" type="curve" smooth="yes"/>
			<point x="263" y="1303"/>
			<point x="285" y="1269"/>
			<point x="308" y="1233" type="curve" smooth="yes"/>
			<point x="339" y="1184"/>
			<point x="375" y="1125"/>
			<point x="446" y="1125" type="curve" smooth="yes"/>
			<point x="515" y="1125"/>
			<point x="570" y="1172"/>
			<point x="622" y="1276" type="curve" smooth="yes"/>
			<point x="638" y="1308"/>
			<point x="649" y="1334"/>
			<point x="649" y="1347" type="curve" smooth="yes"/>
			<point x="649" y="1362"/>
			<point x="633" y="1376"/>
			<point x="614" y="1376" type="curve" smooth="yes"/>
			<point x="598" y="1376"/>
			<point x="588" y="1363"/>
			<point x="569" y="1326" type="curve" smooth="yes"/>
			<point x="518" y="1227"/>
			<point x="491" y="1200"/>
			<point x="454" y="1200" type="curve" smooth="yes"/>
			<point x="422" y="1200"/>
			<point x="400" y="1234"/>
			<point x="373" y="1276" type="curve" smooth="yes"/>
			<point x="340" y="1327"/>
			<point x="306" y="1378"/>
			<point x="248" y="1378" type="curve" smooth="yes"/>
			<point x="180" y="1378"/>
			<point x="127" y="1337"/>
			<point x="68" y="1207" type="curve" smooth="yes"/>
			<point x="54" y="1176"/>
			<point x="50" y="1160"/>
			<point x="50" y="1150" type="curve" smooth="yes"/>
			<point x="50" y="1134"/>
			<point x="69" y="1123"/>
		</contour>
	</outline>
	<anchor name="_top" x="300" y="920"/>
	<anchor name="top" x="367" y="1378"/>
</glyph>
<glyph name="macroncomb" format="2">
	<unicode hex="0304"/>
	<outline>
		<contour>
			<point x="272" y="1178" type="curve" smooth="yes"/>
			<point x="394" y="1178"/>
			<point x="471" y="1180"/>
			<point x="506" y="1189" type="curve" smooth="yes"/>
			<point x="530" y="1196"/>
			<point x="544" y="1211"/>
			<point x="544" y="1235" type="curve" smooth="yes"/>
			<point x="544" y="1254"/>
			<point x="532" y="1268"/>
			<point x="506" y="1268" type="curve" smooth="yes"/>
			<point x="477" y="1268"/>
			<point x="380" y="1266"/>
			<point x="299" y="1266" type="curve" smooth="yes"/>
			<point x="224" y="1266"/>
			<point x="114" y="1270"/>
			<point x="94" y="1270" type="curve" smooth="yes"/>
			<point x="63" y="1270"/>
			<point x="50" y="1251"/>
			<point x="50" y="1230" type="curve" smooth="yes"/>
			<point x="50" y="1205"/>
			<point x="66" y="1190"/>
			<point x="95" y="1185" type="curve" smooth="yes"/>
			<point x="127" y="1180"/>
			<point x="205" y="1178"/>
		</contour>
	</outline>
	<anchor name="_center" x="287" y="1222"/>
	<anchor name="_top" x="271" y="920"/>
	<anchor name="top" x="299" y="1266"/>
</glyph>
<glyph name="foursuperior" format="2">
	<unicode hex="2074"/>
	<advance width="767"/>
	<outline>
		<contour>
			<point x="128" y="1228" type="curve" smooth="yes"/>
			<point x="677" y="1228" type="line" smooth="yes"/>
			<point x="709" y="1228"/>
			<point x="717" y="1246"/>
			<point x="717" y="1270" type="curve" smooth="yes"/>
			<point x="717" y="1294"/>
			<point x="704" y="1307"/>
			<point x="683" y="1307" type="curve" smooth="yes"/>
			<point x="661" y="1307"/>
			<point x="639" y="1306"/>
			<point x="626" y="1306" type="curve" smooth="yes"/>
			<point x="120" y="1295" type="line"/>
			<point x="132" y="1272" type="line"/>
			<point x="223" y="1422"/>
			<point x="324" y="1606"/>
			<point x="390" y="1752" type="curve" smooth="yes"/>
			<point x="400" y="1774"/>
			<point x="402" y="1785"/>
			<point x="402" y="1793" type="curve" smooth="yes"/>
			<point x="402" y="1813"/>
			<point x="382" y="1828"/>
			<point x="356" y="1828" type="curve" smooth="yes"/>
			<point x="341" y="1828"/>
			<point x="332" y="1821"/>
			<point x="321" y="1796" type="curve" smooth="yes"/>
			<point x="252" y="1639"/>
			<point x="166" y="1469"/>
			<point x="93" y="1342" type="curve" smooth="yes"/>
			<point x="73" y="1307"/>
			<point x="70" y="1295"/>
			<point x="70" y="1282" type="curve" smooth="yes"/>
			<point x="70" y="1249"/>
			<point x="96" y="1228"/>
		</contour>
		<contour>
			<point x="472" y="1025" type="curve" smooth="yes"/>
			<point x="513" y="1468" type="line" smooth="yes"/>
			<point x="514" y="1478"/>
			<point x="514" y="1494"/>
			<point x="514" y="1497" type="curve" smooth="yes"/>
			<point x="514" y="1516"/>
			<point x="499" y="1524"/>
			<point x="475" y="1524" type="curve" smooth="yes"/>
			<point x="446" y="1524"/>
			<point x="440" y="1510"/>
			<point x="437" y="1478" type="curve" smooth="yes"/>
			<point x="399" y="1073" type="line" smooth="yes"/>
			<point x="396" y="1041"/>
			<point x="395" y="1028"/>
			<point x="395" y="1020" type="curve" smooth="yes"/>
			<point x="395" y="996"/>
			<point x="413" y="989"/>
			<point x="432" y="989" type="curve" smooth="yes"/>
			<point x="454" y="989"/>
			<point x="469" y="993"/>
		</contour>
	</outline>
</glyph>
<glyph name="fivesuperior" format="2">
	<unicode hex="2075"/>
	<advance width="741"/>
	<outline>
		<contour>
			<point x="334" y="988" type="curve" smooth="yes"/>
			<point x="521" y="988"/>
			<point x="654" y="1108"/>
			<point x="654" y="1270" type="curve" smooth="yes"/>
			<point x="654" y="1419"/>
			<point x="544" y="1512"/>
			<point x="408" y="1512" type="curve" smooth="yes"/>
			<point x="347" y="1512"/>
			<point x="279" y="1499"/>
			<point x="199" y="1470" type="curve"/>
			<point x="217" y="1460" type="line"/>
			<point x="241" y="1738" type="line"/>
			<point x="620" y="1738" type="line" smooth="yes"/>
			<point x="648" y="1738"/>
			<point x="661" y="1754"/>
			<point x="661" y="1781" type="curve" smooth="yes"/>
			<point x="661" y="1807"/>
			<point x="649" y="1818"/>
			<point x="623" y="1818" type="curve" smooth="yes"/>
			<point x="210" y="1818" type="line" smooth="yes"/>
			<point x="188" y="1818"/>
			<point x="172" y="1813"/>
			<point x="170" y="1790" type="curve" smooth="yes"/>
			<point x="145" y="1490" type="line" smooth="yes"/>
			<point x="145" y="1484"/>
			<point x="144" y="1468"/>
			<point x="144" y="1463" type="curve" smooth="yes"/>
			<point x="144" y="1426"/>
			<point x="166" y="1407"/>
			<point x="200" y="1407" type="curve" smooth="yes"/>
			<point x="215" y="1407"/>
			<point x="228" y="1411"/>
			<point x="246" y="1416" type="curve" smooth="yes"/>
			<point x="301" y="1431"/>
			<point x="350" y="1439"/>
			<point x="389" y="1439" type="curve" smooth="yes"/>
			<point x="492" y="1439"/>
			<point x="574" y="1374"/>
			<point x="574" y="1263" type="curve" smooth="yes"/>
			<point x="574" y="1152"/>
			<point x="476" y="1068"/>
			<point x="340" y="1068" type="curve" smooth="yes"/>
			<point x="257" y="1068"/>
			<point x="188" y="1083"/>
			<point x="130" y="1109" type="curve" smooth="yes"/>
			<point x="117" y="1115"/>
			<point x="109" y="1117"/>
			<point x="103" y="1117" type="curve" smooth="yes"/>
			<point x="88" y="1117"/>
			<point x="70" y="1092"/>
			<point x="70" y="1072" type="curve" smooth="yes"/>
			<point x="70" y="1065"/>
			<point x="74" y="1054"/>
			<point x="101" y="1040" type="curve" smooth="yes"/>
			<point x="156" y="1012"/>
			<point x="245" y="988"/>
		</contour>
	</outline>
</glyph>
<glyph name="eightsuperior" format="2">
	<unicode hex="2078"/>
	<advance width="774"/>
	<outline>
		<contour>
			<point x="372" y="989" type="curve" smooth="yes"/>
			<point x="553" y="989"/>
			<point x="681" y="1082"/>
			<point x="681" y="1210" type="curve" smooth="yes"/>
			<point x="681" y="1300"/>
			<point x="629" y="1360"/>
			<point x="492" y="1413" type="curve"/>
			<point x="631" y="1477"/>
			<point x="684" y="1555"/>
			<point x="684" y="1637" type="curve" smooth="yes"/>
			<point x="684" y="1752"/>
			<point x="573" y="1828"/>
			<point x="430" y="1828" type="curve" smooth="yes"/>
			<point x="258" y="1828"/>
			<point x="142" y="1728"/>
			<point x="142" y="1607" type="curve" smooth="yes"/>
			<point x="142" y="1532"/>
			<point x="184" y="1471"/>
			<point x="290" y="1422" type="curve"/>
			<point x="144" y="1366"/>
			<point x="90" y="1280"/>
			<point x="90" y="1192" type="curve" smooth="yes"/>
			<point x="90" y="1073"/>
			<point x="204" y="989"/>
		</contour>
		<contour>
			<point x="165" y="1203" type="curve" smooth="yes"/>
			<point x="165" y="1282"/>
			<point x="228" y="1344"/>
			<point x="354" y="1391" type="curve"/>
			<point x="545" y="1327"/>
			<point x="603" y="1281"/>
			<point x="603" y="1208" type="curve" smooth="yes"/>
			<point x="603" y="1122"/>
			<point x="520" y="1061"/>
			<point x="380" y="1061" type="curve" smooth="yes"/>
			<point x="248" y="1061"/>
			<point x="165" y="1120"/>
		</contour>
		<contour>
			<point x="222" y="1616" type="curve" smooth="yes"/>
			<point x="222" y="1703"/>
			<point x="317" y="1756"/>
			<point x="422" y="1756" type="curve" smooth="yes"/>
			<point x="526" y="1756"/>
			<point x="607" y="1706"/>
			<point x="607" y="1626" type="curve" smooth="yes"/>
			<point x="607" y="1559"/>
			<point x="552" y="1500"/>
			<point x="430" y="1444" type="curve"/>
			<point x="261" y="1505"/>
			<point x="222" y="1546"/>
		</contour>
	</outline>
</glyph>
<glyph name="euro" format="2">
	<unicode hex="20AC"/>
	<advance width="1200"/>
	<outline>
		<contour>
			<point x="730" y="-12" type="curve" smooth="yes"/>
			<point x="868" y="-12"/>
			<point x="1002" y="50"/>
			<point x="1087" y="143" type="curve" smooth="yes"/>
			<point x="1109" y="167"/>
			<point x="1118" y="185"/>
			<point x="1118" y="198" type="curve" smooth="yes"/>
			<point x="1118" y="215"/>
			<point x="1104" y="226"/>
			<point x="1090" y="226" type="curve" smooth="yes"/>
			<point x="1080" y="226"/>
			<point x="1074" y="222"/>
			<point x="1044" y="194" type="curve" smooth="yes"/>
			<point x="965" y="120"/>
			<point x="861" y="66"/>
			<point x="739" y="66" type="curve" smooth="yes"/>
			<point x="476" y="66"/>
			<point x="325" y="278"/>
			<point x="325" y="720" type="curve" smooth="yes"/>
			<point x="325" y="1144"/>
			<point x="520" y="1537"/>
			<point x="814" y="1537" type="curve" smooth="yes"/>
			<point x="900" y="1537"/>
			<point x="970" y="1515"/>
			<point x="1032" y="1475" type="curve" smooth="yes"/>
			<point x="1077" y="1446"/>
			<point x="1084" y="1443"/>
			<point x="1096" y="1443" type="curve" smooth="yes"/>
			<point x="1112" y="1443"/>
			<point x="1124" y="1461"/>
			<point x="1124" y="1474" type="curve" smooth="yes"/>
			<point x="1124" y="1489"/>
			<point x="1109" y="1511"/>
			<point x="1062" y="1543" type="curve" smooth="yes"/>
			<point x="991" y="1591"/>
			<point x="907" y="1615"/>
			<point x="820" y="1615" type="curve" smooth="yes"/>
			<point x="470" y="1615"/>
			<point x="245" y="1190"/>
			<point x="245" y="710" type="curve" smooth="yes"/>
			<point x="245" y="241"/>
			<point x="435" y="-12"/>
		</contour>
		<contour>
			<point x="152" y="910" type="curve" smooth="yes"/>
			<point x="797" y="910" type="line" smooth="yes"/>
			<point x="823" y="910"/>
			<point x="842" y="921"/>
			<point x="842" y="951" type="curve" smooth="yes"/>
			<point x="842" y="974"/>
			<point x="828" y="985"/>
			<point x="802" y="985" type="curve" smooth="yes"/>
			<point x="157" y="985" type="line" smooth="yes"/>
			<point x="131" y="985"/>
			<point x="112" y="974"/>
			<point x="112" y="945" type="curve" smooth="yes"/>
			<point x="112" y="921"/>
			<point x="126" y="910"/>
		</contour>
		<contour>
			<point x="123" y="641" type="curve" smooth="yes"/>
			<point x="768" y="641" type="line" smooth="yes"/>
			<point x="794" y="641"/>
			<point x="813" y="652"/>
			<point x="813" y="682" type="curve" smooth="yes"/>
			<point x="813" y="705"/>
			<point x="799" y="716"/>
			<point x="773" y="716" type="curve" smooth="yes"/>
			<point x="128" y="716" type="line" smooth="yes"/>
			<point x="102" y="716"/>
			<point x="83" y="705"/>
			<point x="83" y="676" type="curve" smooth="yes"/>
			<point x="83" y="652"/>
			<point x="97" y="641"/>
		</contour>
	</outline>
</glyph>
<glyph name="minus" format="2">
	<unicode hex="2212"/>
	<advance width="1200"/>
	<outline>
		<contour>
			<point x="216" y="784" type="curve" smooth="yes"/>
			<point x="978" y="784" type="line" smooth="yes"/>
			<point x="1017" y="784"/>
			<point x="1029" y="803"/>
			<point x="1029" y="827" type="curve" smooth="yes"/>
			<point x="1029" y="850"/>
			<point x="1012" y="859"/>
			<point x="985" y="859" type="curve" smooth="yes"/>
			<point x="222" y="859" type="line" smooth="yes"/>
			<point x="187" y="859"/>
			<point x="173" y="842"/>
			<point x="173" y="820" type="curve" smooth="yes"/>
			<point x="173" y="796"/>
			<point x="188" y="784"/>
		</contour>
	</outline>
</glyph>
<glyph name="approxequal" format="2">
	<unicode hex="2248"/>
	<advance width="1200"/>
	<outline>
		<contour>
			<point x="796" y="870" type="curve" smooth="yes"/>
			<point x="896" y="870"/>
			<point x="978" y="943"/>
			<point x="1022" y="1063" type="curve" smooth="yes"/>
			<point x="1032" y="1089"/>
			<point x="1035" y="1101"/>
			<point x="1035" y="1112" type="curve" smooth="yes"/>
			<point x="1035" y="1135"/>
			<point x="1020" y="1146"/>
			<point x="1003" y="1146" type="curve" smooth="yes"/>
			<point x="988" y="1146"/>
			<point x="979" y="1138"/>
			<point x="967" y="1108" type="curve" smooth="yes"/>
			<point x="925" y="1000"/>
			<point x="872" y="945"/>
			<point x="803" y="945" type="curve" smooth="yes"/>
			<point x="739" y="945"/>
			<point x="688" y="991"/>
			<point x="636" y="1041" type="curve" smooth="yes"/>
			<point x="579" y="1096"/>
			<point x="516" y="1154"/>
			<point x="429" y="1154" type="curve" smooth="yes"/>
			<point x="329" y="1154"/>
			<point x="247" y="1083"/>
			<point x="203" y="961" type="curve" smooth="yes"/>
			<point x="194" y="935"/>
			<point x="190" y="923"/>
			<point x="190" y="912" type="curve" smooth="yes"/>
			<point x="190" y="889"/>
			<point x="205" y="878"/>
			<point x="222" y="878" type="curve" smooth="yes"/>
			<point x="237" y="878"/>
			<point x="246" y="886"/>
			<point x="258" y="916" type="curve" smooth="yes"/>
			<point x="300" y="1024"/>
			<point x="353" y="1079"/>
			<point x="422" y="1079" type="curve" smooth="yes"/>
			<point x="486" y="1079"/>
			<point x="537" y="1032"/>
			<point x="589" y="983" type="curve" smooth="yes"/>
			<point x="647" y="928"/>
			<point x="709" y="870"/>
		</contour>
		<contour>
			<point x="771" y="486" type="curve" smooth="yes"/>
			<point x="871" y="486"/>
			<point x="953" y="559"/>
			<point x="997" y="679" type="curve" smooth="yes"/>
			<point x="1007" y="705"/>
			<point x="1010" y="717"/>
			<point x="1010" y="728" type="curve" smooth="yes"/>
			<point x="1010" y="751"/>
			<point x="995" y="762"/>
			<point x="978" y="762" type="curve" smooth="yes"/>
			<point x="963" y="762"/>
			<point x="954" y="754"/>
			<point x="942" y="724" type="curve" smooth="yes"/>
			<point x="900" y="616"/>
			<point x="847" y="561"/>
			<point x="778" y="561" type="curve" smooth="yes"/>
			<point x="714" y="561"/>
			<point x="663" y="607"/>
			<point x="611" y="657" type="curve" smooth="yes"/>
			<point x="554" y="712"/>
			<point x="491" y="770"/>
			<point x="404" y="770" type="curve" smooth="yes"/>
			<point x="304" y="770"/>
			<point x="222" y="699"/>
			<point x="178" y="577" type="curve" smooth="yes"/>
			<point x="169" y="551"/>
			<point x="165" y="539"/>
			<point x="165" y="528" type="curve" smooth="yes"/>
			<point x="165" y="505"/>
			<point x="180" y="494"/>
			<point x="197" y="494" type="curve" smooth="yes"/>
			<point x="212" y="494"/>
			<point x="221" y="502"/>
			<point x="233" y="532" type="curve" smooth="yes"/>
			<point x="275" y="640"/>
			<point x="329" y="695"/>
			<point x="397" y="695" type="curve" smooth="yes"/>
			<point x="461" y="695"/>
			<point x="512" y="648"/>
			<point x="564" y="599" type="curve" smooth="yes"/>
			<point x="622" y="544"/>
			<point x="684" y="486"/>
		</contour>
	</outline>
</glyph>
<glyph name="dotmath" format="2">
	<unicode hex="22C5"/>
	<advance width="1200"/>
	<outline>
		<contour>
			<point x="619" y="683" type="curve" smooth="yes"/>
			<point x="682" y="683"/>
			<point x="742" y="742"/>
			<point x="742" y="812" type="curve" smooth="yes"/>
			<point x="742" y="873"/>
			<point x="697" y="919"/>
			<point x="633" y="919" type="curve" smooth="yes"/>
			<point x="572" y="919"/>
			<point x="518" y="866"/>
			<point x="518" y="796" type="curve" smooth="yes"/>
			<point x="518" y="726"/>
			<point x="563" y="683"/>
		</contour>
	</outline>
</glyph>
<glyph name="whitecircle" format="2">
	<unicode hex="25CB"/>
	<advance width="1708"/>
	<outline>
		<contour>
			<point x="854" y="301" type="curve" smooth="yes"/>
			<point x="1105" y="301"/>
			<point x="1308" y="504"/>
			<point x="1308" y="755" type="curve" smooth="yes"/>
			<point x="1308" y="1006"/>
			<point x="1105" y="1209"/>
			<point x="854" y="1209" type="curve" smooth="yes"/>
			<point x="603" y="1209"/>
			<point x="400" y="1006"/>
			<point x="400" y="755" type="curve" smooth="yes"/>
			<point x="400" y="504"/>
			<point x="603" y="301"/>
		</contour>
		<contour>
			<point x="854" y="383" type="curve" smooth="yes"/>
			<point x="648" y="383"/>
			<point x="482" y="549"/>
			<point x="482" y="755" type="curve" smooth="yes"/>
			<point x="482" y="961"/>
			<point x="648" y="1127"/>
			<point x="854" y="1127" type="curve" smooth="yes"/>
			<point x="1060" y="1127"/>
			<point x="1226" y="961"/>
			<point x="1226" y="755" type="curve" smooth="yes"/>
			<point x="1226" y="549"/>
			<point x="1060" y="383"/>
		</contour>
	</outline>
</glyph>
<glyph name="snowflake" format="2">
	<unicode hex="2744"/>
	<advance width="2436"/>
	<outline>
		<contour>
			<point x="1179" y="-129" type="curve" smooth="yes"/>
			<point x="1195" y="-119"/>
			<point x="1199" y="-80"/>
			<point x="1205" y="36" type="curve" smooth="yes"/>
			<point x="1239" y="727"/>
			<point x="1265" y="1150"/>
			<point x="1278" y="1331" type="curve" smooth="yes"/>
			<point x="1298" y="1610" type="line" smooth="yes"/>
			<point x="1302" y="1661"/>
			<point x="1302" y="1688"/>
			<point x="1295" y="1700" type="curve" smooth="yes"/>
			<point x="1291" y="1709"/>
			<point x="1278" y="1712"/>
			<point x="1268" y="1707" type="curve" smooth="yes"/>
			<point x="1247" y="1695"/>
			<point x="1240" y="1609"/>
			<point x="1212" y="1301" type="curve" smooth="yes"/>
			<point x="1191" y="1056"/>
			<point x="1164" y="498"/>
			<point x="1149" y="247" type="curve" smooth="yes"/>
			<point x="1133" y="5"/>
			<point x="1132" y="-97"/>
			<point x="1147" y="-123" type="curve" smooth="yes"/>
			<point x="1155" y="-136"/>
			<point x="1166" y="-136"/>
		</contour>
		<contour>
			<point x="2028" y="318" type="curve" smooth="yes"/>
			<point x="2028" y="337"/>
			<point x="1996" y="360"/>
			<point x="1898" y="423" type="curve" smooth="yes"/>
			<point x="1316" y="796"/>
			<point x="961" y="1029"/>
			<point x="811" y="1130" type="curve" smooth="yes"/>
			<point x="579" y="1286" type="line" smooth="yes"/>
			<point x="537" y="1315"/>
			<point x="513" y="1329"/>
			<point x="499" y="1329" type="curve" smooth="yes"/>
			<point x="489" y="1329"/>
			<point x="480" y="1320"/>
			<point x="480" y="1308" type="curve" smooth="yes"/>
			<point x="480" y="1284"/>
			<point x="551" y="1235"/>
			<point x="804" y="1058" type="curve" smooth="yes"/>
			<point x="1006" y="918"/>
			<point x="1477" y="617"/>
			<point x="1687" y="479" type="curve" smooth="yes"/>
			<point x="1889" y="345"/>
			<point x="1977" y="294"/>
			<point x="2007" y="294" type="curve" smooth="yes"/>
			<point x="2022" y="294"/>
			<point x="2028" y="304"/>
		</contour>
		<contour>
			<point x="408" y="318" type="curve" smooth="yes"/>
			<point x="408" y="304"/>
			<point x="414" y="294"/>
			<point x="429" y="294" type="curve" smooth="yes"/>
			<point x="459" y="294"/>
			<point x="547" y="345"/>
			<point x="749" y="479" type="curve" smooth="yes"/>
			<point x="959" y="617"/>
			<point x="1430" y="918"/>
			<point x="1632" y="1058" type="curve" smooth="yes"/>
			<point x="1885" y="1235"/>
			<point x="1956" y="1284"/>
			<point x="1956" y="1308" type="curve" smooth="yes"/>
			<point x="1956" y="1320"/>
			<point x="1947" y="1329"/>
			<point x="1937" y="1329" type="curve" smooth="yes"/>
			<point x="1923" y="1329"/>
			<point x="1899" y="1315"/>
			<point x="1857" y="1286" type="curve" smooth="yes"/>
			<point x="1625" y="1130" type="line" smooth="yes"/>
			<point x="1475" y="1029"/>
			<point x="1120" y="796"/>
			<point x="538" y="423" type="curve" smooth="yes"/>
			<point x="440" y="360"/>
			<point x="408" y="337"/>
		</contour>
		<contour>
			<point x="1266" y="1427" type="curve"/>
			<point x="1261" y="1262" type="line"/>
			<point x="1512" y="1532" type="line" smooth="yes"/>
			<point x="1554" y="1575"/>
			<point x="1557" y="1600"/>
			<point x="1547" y="1618" type="curve" smooth="yes"/>
			<point x="1539" y="1632"/>
			<point x="1525" y="1640"/>
			<point x="1503" y="1628" type="curve" smooth="yes"/>
			<point x="1486" y="1619"/>
			<point x="1423" y="1566"/>
		</contour>
		<contour>
			<point x="1683" y="1433" type="curve" smooth="yes"/>
			<point x="1574" y="1081" type="line"/>
			<point x="1713" y="1160" type="line"/>
			<point x="1758" y="1371"/>
			<point x="1771" y="1453"/>
			<point x="1771" y="1473" type="curve" smooth="yes"/>
			<point x="1771" y="1498"/>
			<point x="1757" y="1506"/>
			<point x="1741" y="1506" type="curve" smooth="yes"/>
			<point x="1720" y="1506"/>
			<point x="1699" y="1491"/>
		</contour>
		<contour>
			<point x="1587" y="1064" type="line"/>
			<point x="1849" y="998"/>
			<point x="1953" y="982"/>
			<point x="1996" y="983" type="curve" smooth="yes"/>
			<point x="2018" y="984"/>
			<point x="2036" y="996"/>
			<point x="2036" y="1021" type="curve" smooth="yes"/>
			<point x="2036" y="1044"/>
			<point x="2000" y="1062"/>
			<point x="1950" y="1077" type="curve" smooth="yes"/>
			<point x="1725" y="1146" type="line"/>
		</contour>
		<contour>
			<point x="1587" y="598" type="curve"/>
			<point x="1725" y="516" type="line"/>
			<point x="1950" y="585" type="line" smooth="yes"/>
			<point x="2000" y="600"/>
			<point x="2036" y="618"/>
			<point x="2036" y="641" type="curve" smooth="yes"/>
			<point x="2036" y="666"/>
			<point x="2018" y="678"/>
			<point x="1996" y="679" type="curve" smooth="yes"/>
			<point x="1953" y="680"/>
			<point x="1849" y="664"/>
		</contour>
		<contour>
			<point x="1711" y="501" type="curve"/>
			<point x="1574" y="581" type="line"/>
			<point x="1683" y="229" type="line" smooth="yes"/>
			<point x="1699" y="171"/>
			<point x="1720" y="156"/>
			<point x="1741" y="156" type="curve" smooth="yes"/>
			<point x="1757" y="156"/>
			<point x="1771" y="164"/>
			<point x="1771" y="189" type="curve" smooth="yes"/>
			<point x="1771" y="209"/>
			<point x="1757" y="291"/>
		</contour>
		<contour>
			<point x="1202" y="393" type="curve"/>
			<point x="1200" y="233" type="line"/>
			<point x="1371" y="72" type="line" smooth="yes"/>
			<point x="1409" y="36"/>
			<point x="1443" y="13"/>
			<point x="1463" y="25" type="curve" smooth="yes"/>
			<point x="1485" y="37"/>
			<point x="1486" y="59"/>
			<point x="1476" y="78" type="curve" smooth="yes"/>
			<point x="1455" y="116"/>
			<point x="1390" y="199"/>
		</contour>
		<contour>
			<point x="1180" y="233" type="curve"/>
			<point x="1181" y="396" type="line"/>
			<point x="930" y="126" type="line" smooth="yes"/>
			<point x="887" y="84"/>
			<point x="885" y="58"/>
			<point x="895" y="40" type="curve" smooth="yes"/>
			<point x="903" y="26"/>
			<point x="917" y="18"/>
			<point x="939" y="30" type="curve" smooth="yes"/>
			<point x="955" y="39"/>
			<point x="1020" y="92"/>
		</contour>
		<contour>
			<point x="753" y="229" type="curve" smooth="yes"/>
			<point x="862" y="581" type="line"/>
			<point x="721" y="499" type="line"/>
			<point x="678" y="291"/>
			<point x="665" y="209"/>
			<point x="665" y="189" type="curve" smooth="yes"/>
			<point x="665" y="164"/>
			<point x="679" y="156"/>
			<point x="695" y="156" type="curve" smooth="yes"/>
			<point x="716" y="156"/>
			<point x="737" y="171"/>
		</contour>
		<contour>
			<point x="849" y="598" type="line"/>
			<point x="587" y="664"/>
			<point x="483" y="680"/>
			<point x="440" y="679" type="curve" smooth="yes"/>
			<point x="418" y="678"/>
			<point x="400" y="666"/>
			<point x="400" y="641" type="curve" smooth="yes"/>
			<point x="400" y="618"/>
			<point x="436" y="600"/>
			<point x="486" y="585" type="curve" smooth="yes"/>
			<point x="711" y="516" type="line"/>
		</contour>
		<contour>
			<point x="849" y="1064" type="curve"/>
			<point x="711" y="1146" type="line"/>
			<point x="486" y="1077" type="line" smooth="yes"/>
			<point x="436" y="1062"/>
			<point x="400" y="1044"/>
			<point x="400" y="1021" type="curve" smooth="yes"/>
			<point x="400" y="996"/>
			<point x="418" y="984"/>
			<point x="440" y="983" type="curve" smooth="yes"/>
			<point x="483" y="982"/>
			<point x="587" y="998"/>
		</contour>
		<contour>
			<point x="721" y="1164" type="curve"/>
			<point x="862" y="1081" type="line"/>
			<point x="753" y="1433" type="line" smooth="yes"/>
			<point x="737" y="1491"/>
			<point x="716" y="1506"/>
			<point x="695" y="1506" type="curve" smooth="yes"/>
			<point x="679" y="1506"/>
			<point x="665" y="1498"/>
			<point x="665" y="1473" type="curve" smooth="yes"/>
			<point x="665" y="1454"/>
			<point x="678" y="1372"/>
		</contour>
		<contour>
			<point x="1240" y="1265" type="curve"/>
			<point x="1242" y="1426" type="line"/>
			<point x="1070" y="1586" type="line" smooth="yes"/>
			<point x="1033" y="1622"/>
			<point x="999" y="1645"/>
			<point x="979" y="1633" type="curve" smooth="yes"/>
			<point x="957" y="1621"/>
			<point x="956" y="1599"/>
			<point x="966" y="1580" type="curve" smooth="yes"/>
			<point x="986" y="1542"/>
			<point x="1052" y="1460"/>
		</contour>
	</outline>
</glyph>
<glyph name="tightTrifoliateSnowflake" format="2">
	<unicode hex="2745"/>
	<advance width="2350"/>
	<outline>
		<contour>
			<point x="795" y="208" type="curve" smooth="yes"/>
			<point x="802" y="208"/>
			<point x="811" y="212"/>
			<point x="823" y="219" type="curve" smooth="yes"/>
			<point x="1136" y="411" type="line"/>
			<point x="1428" y="216" type="line" smooth="yes"/>
			<point x="1440" y="208"/>
			<point x="1444" y="207"/>
			<point x="1447" y="207" type="curve" smooth="yes"/>
			<point x="1460" y="207"/>
			<point x="1470" y="216"/>
			<point x="1470" y="231" type="curve" smooth="yes"/>
			<point x="1480" y="604" type="line"/>
			<point x="1822" y="775" type="line" smooth="yes"/>
			<point x="1831" y="779"/>
			<point x="1835" y="783"/>
			<point x="1836" y="791" type="curve" smooth="yes"/>
			<point x="1836" y="800"/>
			<point x="1833" y="808"/>
			<point x="1824" y="812" type="curve" smooth="yes"/>
			<point x="1506" y="984" type="line"/>
			<point x="1548" y="1355" type="line" smooth="yes"/>
			<point x="1549" y="1369"/>
			<point x="1543" y="1379"/>
			<point x="1529" y="1379" type="curve" smooth="yes"/>
			<point x="1524" y="1379"/>
			<point x="1518" y="1377"/>
			<point x="1507" y="1370" type="curve" smooth="yes"/>
			<point x="1189" y="1171" type="line"/>
			<point x="906" y="1364" type="line" smooth="yes"/>
			<point x="887" y="1377"/>
			<point x="883" y="1379"/>
			<point x="875" y="1379" type="curve" smooth="yes"/>
			<point x="863" y="1379"/>
			<point x="854" y="1370"/>
			<point x="854" y="1343" type="curve" smooth="yes"/>
			<point x="850" y="989" type="line"/>
			<point x="511" y="816" type="line" smooth="yes"/>
			<point x="494" y="807"/>
			<point x="490" y="801"/>
			<point x="490" y="791" type="curve" smooth="yes"/>
			<point x="490" y="784"/>
			<point x="494" y="777"/>
			<point x="518" y="764" type="curve" smooth="yes"/>
			<point x="820" y="604" type="line"/>
			<point x="806" y="480"/>
			<point x="791" y="355"/>
			<point x="777" y="231" type="curve" smooth="yes"/>
			<point x="775" y="217"/>
			<point x="785" y="208"/>
		</contour>
		<contour>
			<point x="821" y="269" type="line"/>
			<point x="864" y="625" type="line"/>
			<point x="557" y="791" type="line"/>
			<point x="891" y="966" type="line"/>
			<point x="895" y="1318" type="line"/>
			<point x="1183" y="1122" type="line"/>
			<point x="1501" y="1318" type="line"/>
			<point x="1457" y="960" type="line"/>
			<point x="1768" y="791" type="line"/>
			<point x="1435" y="627" type="line"/>
			<point x="1427" y="269" type="line"/>
			<point x="1141" y="462" type="line"/>
		</contour>
		<contour>
			<point x="1130" y="-112" type="curve" smooth="yes"/>
			<point x="1157" y="-112"/>
			<point x="1163" y="-92"/>
			<point x="1168" y="-9" type="curve" smooth="yes"/>
			<point x="1188" y="456"/>
			<point x="1224" y="1236"/>
			<point x="1247" y="1620" type="curve" smooth="yes"/>
			<point x="1249" y="1660"/>
			<point x="1250" y="1673"/>
			<point x="1250" y="1695" type="curve" smooth="yes"/>
			<point x="1250" y="1713"/>
			<point x="1244" y="1727"/>
			<point x="1218" y="1727" type="curve" smooth="yes"/>
			<point x="1193" y="1727"/>
			<point x="1184" y="1711"/>
			<point x="1181" y="1646" type="curve" smooth="yes"/>
			<point x="1165" y="1237"/>
			<point x="1133" y="469"/>
			<point x="1102" y="-6" type="curve" smooth="yes"/>
			<point x="1100" y="-31"/>
			<point x="1099" y="-49"/>
			<point x="1099" y="-62" type="curve" smooth="yes"/>
			<point x="1099" y="-92"/>
			<point x="1103" y="-111"/>
		</contour>
		<contour>
			<point x="1923" y="293" type="curve" smooth="yes"/>
			<point x="1938" y="293"/>
			<point x="1950" y="305"/>
			<point x="1950" y="322" type="curve" smooth="yes"/>
			<point x="1950" y="336"/>
			<point x="1941" y="348"/>
			<point x="1875" y="389" type="curve" smooth="yes"/>
			<point x="1472" y="644"/>
			<point x="834" y="1072"/>
			<point x="494" y="1300" type="curve" smooth="yes"/>
			<point x="463" y="1321"/>
			<point x="444" y="1330"/>
			<point x="429" y="1330" type="curve" smooth="yes"/>
			<point x="414" y="1330"/>
			<point x="400" y="1316"/>
			<point x="400" y="1298" type="curve" smooth="yes"/>
			<point x="400" y="1285"/>
			<point x="406" y="1275"/>
			<point x="456" y="1243" type="curve" smooth="yes"/>
			<point x="799" y="1022"/>
			<point x="1451" y="592"/>
			<point x="1838" y="334" type="curve" smooth="yes"/>
			<point x="1884" y="304"/>
			<point x="1904" y="293"/>
		</contour>
		<contour>
			<point x="427" y="293" type="curve" smooth="yes"/>
			<point x="446" y="293"/>
			<point x="466" y="304"/>
			<point x="512" y="334" type="curve" smooth="yes"/>
			<point x="899" y="592"/>
			<point x="1551" y="1022"/>
			<point x="1894" y="1243" type="curve" smooth="yes"/>
			<point x="1944" y="1275"/>
			<point x="1950" y="1285"/>
			<point x="1950" y="1298" type="curve" smooth="yes"/>
			<point x="1950" y="1316"/>
			<point x="1936" y="1330"/>
			<point x="1921" y="1330" type="curve" smooth="yes"/>
			<point x="1906" y="1330"/>
			<point x="1887" y="1321"/>
			<point x="1856" y="1300" type="curve" smooth="yes"/>
			<point x="1516" y="1072"/>
			<point x="878" y="644"/>
			<point x="475" y="389" type="curve" smooth="yes"/>
			<point x="409" y="348"/>
			<point x="400" y="336"/>
			<point x="400" y="322" type="curve" smooth="yes"/>
			<point x="400" y="305"/>
			<point x="412" y="293"/>
		</contour>
	</outline>
</glyph>
<glyph name="J.ss06" format="2">
	<advance width="957"/>
	<outline>
		<contour>
			<point x="371" y="-12" type="curve" smooth="yes"/>
			<point x="599" y="-12"/>
			<point x="731" y="113"/>
			<point x="754" y="458" type="curve" smooth="yes"/>
			<point x="825" y="1518" type="line" smooth="yes"/>
			<point x="825" y="1524"/>
			<point x="827" y="1544"/>
			<point x="827" y="1556" type="curve" smooth="yes"/>
			<point x="827" y="1587"/>
			<point x="815" y="1600"/>
			<point x="786" y="1600" type="curve" smooth="yes"/>
			<point x="762" y="1600"/>
			<point x="744" y="1591"/>
			<point x="741" y="1546" type="curve" smooth="yes"/>
			<point x="672" y="492" type="line" smooth="yes"/>
			<point x="650" y="160"/>
			<point x="555" y="66"/>
			<point x="364" y="66" type="curve" smooth="yes"/>
			<point x="282" y="66"/>
			<point x="205" y="81"/>
			<point x="107" y="133" type="curve" smooth="yes"/>
			<point x="88" y="143"/>
			<point x="80" y="144"/>
			<point x="75" y="144" type="curve" smooth="yes"/>
			<point x="56" y="144"/>
			<point x="40" y="124"/>
			<point x="40" y="104" type="curve" smooth="yes"/>
			<point x="40" y="90"/>
			<point x="51" y="78"/>
			<point x="68" y="68" type="curve" smooth="yes"/>
			<point x="157" y="17"/>
			<point x="271" y="-12"/>
		</contour>
	</outline>
	<anchor name="bottom" x="377" y="0"/>
	<anchor name="top" x="786" y="1600"/>
</glyph>
<glyph name="U.ss05" format="2">
	<advance width="1279"/>
	<outline>
		<contour>
			<point x="583" y="-12" type="curve" smooth="yes"/>
			<point x="867" y="-12"/>
			<point x="1064" y="161"/>
			<point x="1094" y="563" type="curve" smooth="yes"/>
			<point x="1166" y="1517" type="line" smooth="yes"/>
			<point x="1167" y="1530"/>
			<point x="1168" y="1544"/>
			<point x="1169" y="1557" type="curve" smooth="yes"/>
			<point x="1170" y="1588"/>
			<point x="1155" y="1600"/>
			<point x="1128" y="1600" type="curve" smooth="yes"/>
			<point x="1101" y="1600"/>
			<point x="1087" y="1585"/>
			<point x="1085" y="1556" type="curve" smooth="yes"/>
			<point x="1012" y="591" type="line" smooth="yes"/>
			<point x="984" y="215"/>
			<point x="830" y="66"/>
			<point x="593" y="66" type="curve" smooth="yes"/>
			<point x="371" y="66"/>
			<point x="251" y="182"/>
			<point x="251" y="449" type="curve" smooth="yes"/>
			<point x="251" y="531"/>
			<point x="256" y="585"/>
			<point x="264" y="685" type="curve" smooth="yes"/>
			<point x="328" y="1489" type="line" smooth="yes"/>
			<point x="331" y="1522"/>
			<point x="334" y="1555"/>
			<point x="334" y="1564" type="curve" smooth="yes"/>
			<point x="334" y="1587"/>
			<point x="325" y="1600"/>
			<point x="296" y="1600" type="curve" smooth="yes"/>
			<point x="265" y="1600"/>
			<point x="251" y="1587"/>
			<point x="248" y="1545" type="curve" smooth="yes"/>
			<point x="183" y="718" type="line" smooth="yes"/>
			<point x="174" y="598"/>
			<point x="170" y="527"/>
			<point x="170" y="438" type="curve" smooth="yes"/>
			<point x="170" y="147"/>
			<point x="318" y="-12"/>
		</contour>
	</outline>
	<anchor name="bottom" x="495" y="0"/>
	<anchor name="ogonek" x="628" y="0"/>
	<anchor name="top" x="711" y="1600"/>
	<anchor name="topright" x="1184" y="1600"/>
</glyph>
<glyph name="acutecomb.case" format="2">
	<outline>
		<contour>
			<point x="75" y="1039" type="curve" smooth="yes"/>
			<point x="104" y="1039"/>
			<point x="187" y="1070"/>
			<point x="289" y="1139" type="curve" smooth="yes"/>
			<point x="393" y="1209"/>
			<point x="419" y="1240"/>
			<point x="419" y="1269" type="curve" smooth="yes"/>
			<point x="419" y="1294"/>
			<point x="398" y="1307"/>
			<point x="382" y="1307" type="curve" smooth="yes"/>
			<point x="369" y="1307"/>
			<point x="356" y="1297"/>
			<point x="335" y="1278" type="curve" smooth="yes"/>
			<point x="273" y="1221"/>
			<point x="152" y="1137"/>
			<point x="79" y="1094" type="curve" smooth="yes"/>
			<point x="54" y="1079"/>
			<point x="50" y="1072"/>
			<point x="50" y="1060" type="curve" smooth="yes"/>
			<point x="50" y="1049"/>
			<point x="59" y="1039"/>
		</contour>
	</outline>
	<anchor name="_top" x="117" y="910"/>
	<anchor name="top" x="241" y="1307"/>
</glyph>
<glyph name="caroncomb.case" format="2">
	<outline>
		<contour>
			<point x="576" y="1357" type="curve" smooth="yes"/>
			<point x="561" y="1357"/>
			<point x="548" y="1353"/>
			<point x="523" y="1333" type="curve" smooth="yes"/>
			<point x="284" y="1143" type="line"/>
			<point x="341" y="1140" type="line"/>
			<point x="168" y="1313" type="line" smooth="yes"/>
			<point x="126" y="1355"/>
			<point x="117" y="1357"/>
			<point x="92" y="1357" type="curve" smooth="yes"/>
			<point x="70" y="1357"/>
			<point x="50" y="1339"/>
			<point x="50" y="1315" type="curve" smooth="yes"/>
			<point x="50" y="1303"/>
			<point x="55" y="1290"/>
			<point x="81" y="1266" type="curve" smooth="yes"/>
			<point x="253" y="1105" type="line" smooth="yes"/>
			<point x="277" y="1082"/>
			<point x="287" y="1075"/>
			<point x="305" y="1075" type="curve" smooth="yes"/>
			<point x="322" y="1075"/>
			<point x="334" y="1082"/>
			<point x="363" y="1104" type="curve" smooth="yes"/>
			<point x="581" y="1274" type="line" smooth="yes"/>
			<point x="606" y="1293"/>
			<point x="614" y="1308"/>
			<point x="614" y="1321" type="curve" smooth="yes"/>
			<point x="614" y="1344"/>
			<point x="595" y="1357"/>
		</contour>
	</outline>
	<anchor name="_top" x="311" y="910"/>
	<anchor name="top" x="334" y="1357"/>
</glyph>
<glyph name="cedillacomb.case" format="2">
	<outline>
		<contour>
			<point x="85" y="-534" type="curve" smooth="yes"/>
			<point x="101" y="-534"/>
			<point x="121" y="-530"/>
			<point x="142" y="-523" type="curve" smooth="yes"/>
			<point x="276" y="-481"/>
			<point x="322" y="-425"/>
			<point x="322" y="-355" type="curve" smooth="yes"/>
			<point x="322" y="-301"/>
			<point x="289" y="-244"/>
			<point x="191" y="-195" type="curve" smooth="yes"/>
			<point x="177" y="-188"/>
			<point x="172" y="-184"/>
			<point x="172" y="-178" type="curve" smooth="yes"/>
			<point x="172" y="-171"/>
			<point x="175" y="-164"/>
			<point x="179" y="-154" type="curve" smooth="yes"/>
			<point x="242" y="4" type="line"/>
			<point x="190" y="25" type="line"/>
			<point x="127" y="-127" type="line" smooth="yes"/>
			<point x="113" y="-161"/>
			<point x="109" y="-171"/>
			<point x="109" y="-188" type="curve" smooth="yes"/>
			<point x="109" y="-205"/>
			<point x="112" y="-232"/>
			<point x="158" y="-257" type="curve" smooth="yes"/>
			<point x="225" y="-293"/>
			<point x="242" y="-320"/>
			<point x="242" y="-359" type="curve" smooth="yes"/>
			<point x="242" y="-400"/>
			<point x="204" y="-433"/>
			<point x="89" y="-458" type="curve" smooth="yes"/>
			<point x="64" y="-464"/>
			<point x="50" y="-478"/>
			<point x="50" y="-499" type="curve" smooth="yes"/>
			<point x="50" y="-521"/>
			<point x="66" y="-534"/>
		</contour>
	</outline>
	<anchor name="_bottom" x="212" y="0"/>
	<anchor name="bottom" x="124" y="-534"/>
</glyph>
<glyph name="f.ss01" format="2">
	<advance width="626"/>
	<outline>
		<contour>
			<point x="295" y="33" type="curve" smooth="yes"/>
			<point x="377" y="1271" type="line" smooth="yes"/>
			<point x="390" y="1460"/>
			<point x="465" y="1547"/>
			<point x="574" y="1547" type="curve" smooth="yes"/>
			<point x="635" y="1547"/>
			<point x="675" y="1523"/>
			<point x="701" y="1506" type="curve" smooth="yes"/>
			<point x="714" y="1498"/>
			<point x="724" y="1492"/>
			<point x="732" y="1492" type="curve" smooth="yes"/>
			<point x="752" y="1492"/>
			<point x="768" y="1512"/>
			<point x="768" y="1532" type="curve" smooth="yes"/>
			<point x="768" y="1563"/>
			<point x="689" y="1625"/>
			<point x="582" y="1625" type="curve" smooth="yes"/>
			<point x="425" y="1625"/>
			<point x="307" y="1514"/>
			<point x="292" y="1290" type="curve" smooth="yes"/>
			<point x="211" y="49" type="line" smooth="yes"/>
			<point x="210" y="37"/>
			<point x="210" y="35"/>
			<point x="210" y="27" type="curve" smooth="yes"/>
			<point x="210" y="1"/>
			<point x="224" y="-12"/>
			<point x="250" y="-12" type="curve" smooth="yes"/>
			<point x="275" y="-12"/>
			<point x="293" y="1"/>
		</contour>
		<contour>
			<point x="140" y="845" type="curve" smooth="yes"/>
			<point x="589" y="845" type="line" smooth="yes"/>
			<point x="615" y="845"/>
			<point x="634" y="856"/>
			<point x="634" y="886" type="curve" smooth="yes"/>
			<point x="634" y="909"/>
			<point x="620" y="920"/>
			<point x="594" y="920" type="curve" smooth="yes"/>
			<point x="145" y="920" type="line" smooth="yes"/>
			<point x="119" y="920"/>
			<point x="100" y="909"/>
			<point x="100" y="880" type="curve" smooth="yes"/>
			<point x="100" y="856"/>
			<point x="114" y="845"/>
		</contour>
	</outline>
	<guideline x="323" y="454" angle="86.1904"/>
</glyph>
<glyph name="four.osf" format="2">
	<advance width="1169"/>
	<outline>
		<contour>
			<point x="159" y="-6" type="curve" smooth="yes"/>
			<point x="210" y="-6"/>
			<point x="628" y="-3"/>
			<point x="806" y="0" type="curve" smooth="yes"/>
			<point x="930" y="2"/>
			<point x="1029" y="3"/>
			<point x="1054" y="3" type="curve" smooth="yes"/>
			<point x="1089" y="3"/>
			<point x="1099" y="18"/>
			<point x="1099" y="41" type="curve" smooth="yes"/>
			<point x="1099" y="68"/>
			<point x="1086" y="81"/>
			<point x="1059" y="81" type="curve" smooth="yes"/>
			<point x="1037" y="81"/>
			<point x="907" y="78"/>
			<point x="847" y="77" type="curve" smooth="yes"/>
			<point x="156" y="65" type="line"/>
			<point x="171" y="40" type="line"/>
			<point x="305" y="361"/>
			<point x="440" y="715"/>
			<point x="547" y="1036" type="curve" smooth="yes"/>
			<point x="554" y="1056"/>
			<point x="557" y="1068"/>
			<point x="557" y="1077" type="curve" smooth="yes"/>
			<point x="557" y="1092"/>
			<point x="533" y="1105"/>
			<point x="509" y="1105" type="curve" smooth="yes"/>
			<point x="491" y="1105"/>
			<point x="484" y="1097"/>
			<point x="474" y="1067" type="curve" smooth="yes"/>
			<point x="361" y="731"/>
			<point x="235" y="381"/>
			<point x="117" y="105" type="curve" smooth="yes"/>
			<point x="104" y="75"/>
			<point x="100" y="60"/>
			<point x="100" y="43" type="curve" smooth="yes"/>
			<point x="100" y="18"/>
			<point x="121" y="-6"/>
		</contour>
		<contour>
			<point x="710" y="-472" type="curve" smooth="yes"/>
			<point x="729" y="-173"/>
			<point x="754" y="135"/>
			<point x="775" y="377" type="curve" smooth="yes"/>
			<point x="777" y="401"/>
			<point x="778" y="417"/>
			<point x="778" y="433" type="curve" smooth="yes"/>
			<point x="778" y="452"/>
			<point x="759" y="459"/>
			<point x="735" y="459" type="curve" smooth="yes"/>
			<point x="711" y="459"/>
			<point x="704" y="446"/>
			<point x="699" y="397" type="curve" smooth="yes"/>
			<point x="681" y="220"/>
			<point x="646" y="-249"/>
			<point x="637" y="-403" type="curve" smooth="yes"/>
			<point x="634" y="-456"/>
			<point x="633" y="-478"/>
			<point x="633" y="-490" type="curve" smooth="yes"/>
			<point x="633" y="-518"/>
			<point x="650" y="-527"/>
			<point x="670" y="-527" type="curve" smooth="yes"/>
			<point x="693" y="-527"/>
			<point x="707" y="-519"/>
		</contour>
	</outline>
</glyph>
<glyph name="manicule_bold-right" format="2">
	<advance width="5345"/>
	<outline>
		<contour>
			<point x="2205" y="1329" type="curve" smooth="yes"/>
			<point x="2156" y="1329"/>
			<point x="2108" y="1328"/>
			<point x="2063" y="1325" type="curve"/>
			<point x="2059" y="1328"/>
			<point x="2056" y="1331"/>
			<point x="2053" y="1334" type="curve"/>
			<point x="2093" y="1344"/>
			<point x="2178" y="1347"/>
			<point x="2277" y="1347" type="curve" smooth="yes"/>
			<point x="2468" y="1347"/>
			<point x="2708" y="1335"/>
			<point x="2760" y="1335" type="curve" smooth="yes"/>
			<point x="2763" y="1335"/>
			<point x="2765" y="1335"/>
			<point x="2767" y="1335" type="curve" smooth="yes"/>
			<point x="2830" y="1335"/>
			<point x="2888" y="1366"/>
			<point x="2993" y="1366" type="curve" smooth="yes"/>
			<point x="3111" y="1366"/>
			<point x="3227" y="1331"/>
			<point x="3357" y="1331" type="curve" smooth="yes"/>
			<point x="3485" y="1331"/>
			<point x="3594" y="1355"/>
			<point x="3683" y="1355" type="curve" smooth="yes"/>
			<point x="3970" y="1355"/>
			<point x="4461" y="1323"/>
			<point x="4546" y="1279" type="curve" smooth="yes"/>
			<point x="4716" y="1192"/>
			<point x="4903" y="1136"/>
			<point x="4981" y="1117" type="curve" smooth="yes"/>
			<point x="4992" y="1114"/>
			<point x="5003" y="1113"/>
			<point x="5012" y="1113" type="curve" smooth="yes"/>
			<point x="5082" y="1113"/>
			<point x="5109" y="1179"/>
			<point x="5118" y="1179" type="curve" smooth="yes"/>
			<point x="5120" y="1179"/>
			<point x="5121" y="1173"/>
			<point x="5121" y="1160" type="curve" smooth="yes"/>
			<point x="5121" y="1086"/>
			<point x="5087" y="1023"/>
			<point x="4981" y="1023" type="curve" smooth="yes"/>
			<point x="4958" y="1023"/>
			<point x="4932" y="1026"/>
			<point x="4903" y="1032" type="curve" smooth="yes"/>
			<point x="4831" y="1047"/>
			<point x="4654" y="1102"/>
			<point x="4527" y="1240" type="curve"/>
			<point x="4018" y="1240" type="line"/>
			<point x="3994" y="1304"/>
			<point x="3914" y="1323"/>
			<point x="3826" y="1323" type="curve" smooth="yes"/>
			<point x="3736" y="1323"/>
			<point x="3591" y="1236"/>
			<point x="3470" y="1236" type="curve" smooth="yes"/>
			<point x="3447" y="1236"/>
			<point x="3418" y="1241"/>
			<point x="3350" y="1260" type="curve" smooth="yes"/>
			<point x="3281" y="1279"/>
			<point x="3117" y="1320"/>
			<point x="2995" y="1320" type="curve" smooth="yes"/>
			<point x="2919" y="1320"/>
			<point x="2852" y="1304"/>
			<point x="2786" y="1281" type="curve"/>
			<point x="2608" y="1308"/>
			<point x="2396" y="1329"/>
		</contour>
		<contour>
			<point x="3350" y="-377" type="curve" smooth="yes"/>
			<point x="3461" y="-358"/>
			<point x="3577" y="-74"/>
			<point x="3572" y="14" type="curve" smooth="yes"/>
			<point x="3572" y="27"/>
			<point x="3569" y="39"/>
			<point x="3553" y="47" type="curve" smooth="yes"/>
			<point x="3552" y="48"/>
			<point x="3545" y="49"/>
			<point x="3536" y="49" type="curve" smooth="yes"/>
			<point x="3528" y="49"/>
			<point x="3519" y="48"/>
			<point x="3509" y="46" type="curve"/>
			<point x="3608" y="221"/>
			<point x="3714" y="445"/>
			<point x="3607" y="654" type="curve"/>
			<point x="3627" y="660" type="line" smooth="yes"/>
			<point x="3633" y="662"/>
			<point x="3636" y="664"/>
			<point x="3637" y="665" type="curve"/>
			<point x="3749" y="492"/>
			<point x="3676" y="235"/>
			<point x="3598" y="54" type="curve"/>
			<point x="3600" y="45"/>
			<point x="3601" y="33"/>
			<point x="3601" y="20" type="curve" smooth="yes"/>
			<point x="3601" y="-79"/>
			<point x="3552" y="-276"/>
			<point x="3408" y="-395" type="curve" smooth="yes"/>
			<point x="3320" y="-467"/>
			<point x="3254" y="-489"/>
			<point x="3215" y="-489" type="curve" smooth="yes"/>
			<point x="3201" y="-489"/>
			<point x="3190" y="-486"/>
			<point x="3183" y="-482" type="curve"/>
			<point x="3178" y="-520"/>
			<point x="3152" y="-577"/>
			<point x="3114" y="-577" type="curve" smooth="yes"/>
			<point x="3027" y="-577"/>
			<point x="3050" y="-390"/>
			<point x="3145" y="-390" type="curve" smooth="yes"/>
			<point x="3159" y="-390"/>
			<point x="3176" y="-391"/>
			<point x="3197" y="-391" type="curve" smooth="yes"/>
			<point x="3233" y="-391"/>
			<point x="3282" y="-389"/>
		</contour>
		<contour>
			<point x="3217" y="334" type="curve" smooth="yes"/>
			<point x="3218" y="333"/>
			<point x="3222" y="331"/>
			<point x="3225" y="330" type="curve"/>
			<point x="3169" y="199"/>
			<point x="3152" y="77"/>
			<point x="3152" y="2" type="curve" smooth="yes"/>
			<point x="3152" y="-13"/>
			<point x="3153" y="-26"/>
			<point x="3154" y="-38" type="curve"/>
			<point x="3026" y="-88"/>
			<point x="2930" y="-195"/>
			<point x="2877" y="-307" type="curve"/>
			<point x="2838" y="-309"/>
			<point x="2809" y="-310"/>
			<point x="2772" y="-310" type="curve" smooth="yes"/>
			<point x="2730" y="-310"/>
			<point x="2687" y="-305"/>
			<point x="2632" y="-276" type="curve"/>
			<point x="2654" y="-269"/>
			<point x="2676" y="-264"/>
			<point x="2695" y="-264" type="curve" smooth="yes"/>
			<point x="2704" y="-264"/>
			<point x="2711" y="-265"/>
			<point x="2716" y="-266" type="curve" smooth="yes"/>
			<point x="2723" y="-267"/>
			<point x="2730" y="-268"/>
			<point x="2737" y="-268" type="curve" smooth="yes"/>
			<point x="2757" y="-268"/>
			<point x="2766" y="-257"/>
			<point x="2766" y="-239" type="curve" smooth="yes"/>
			<point x="2766" y="-211"/>
			<point x="2740" y="-200"/>
			<point x="2704" y="-200" type="curve" smooth="yes"/>
			<point x="2650" y="-200"/>
			<point x="2577" y="-225"/>
			<point x="2540" y="-256" type="curve" smooth="yes"/>
			<point x="2518" y="-274"/>
			<point x="2507" y="-278"/>
			<point x="2495" y="-278" type="curve" smooth="yes"/>
			<point x="2477" y="-278"/>
			<point x="2465" y="-267"/>
			<point x="2465" y="-245" type="curve" smooth="yes"/>
			<point x="2465" y="-168"/>
			<point x="2527" y="-97"/>
			<point x="2681" y="-97" type="curve" smooth="yes"/>
			<point x="2754" y="-97"/>
			<point x="2832" y="-135"/>
			<point x="2911" y="-193" type="curve"/>
			<point x="2957" y="-135"/>
			<point x="3052" y="-33"/>
			<point x="3116" y="-29" type="curve"/>
			<point x="3116" y="85"/>
			<point x="3122" y="120"/>
			<point x="3132" y="170" type="curve" smooth="yes"/>
			<point x="3139" y="207"/>
			<point x="3148" y="246"/>
			<point x="3184" y="320" type="curve"/>
			<point x="3101" y="390"/>
			<point x="2951" y="603"/>
			<point x="2956" y="690" type="curve"/>
			<point x="2968" y="679"/>
			<point x="2973" y="676"/>
			<point x="2996" y="669" type="curve"/>
			<point x="3029" y="577"/>
			<point x="3131" y="406"/>
		</contour>
		<contour>
			<point x="2755" y="206" type="curve"/>
			<point x="2728" y="166"/>
			<point x="2724" y="144"/>
			<point x="2717" y="88" type="curve"/>
			<point x="2711" y="88" type="line" smooth="yes"/>
			<point x="2688" y="88"/>
			<point x="2662" y="83"/>
			<point x="2662" y="83" type="curve"/>
			<point x="2676" y="119"/>
			<point x="2706" y="172"/>
			<point x="2726" y="205" type="curve"/>
			<point x="2676" y="311"/>
			<point x="2669" y="424"/>
			<point x="2669" y="519" type="curve"/>
			<point x="2687" y="538" type="line" smooth="yes"/>
			<point x="2690" y="541"/>
			<point x="2698" y="552"/>
			<point x="2698" y="552" type="curve"/>
			<point x="2695" y="529"/>
			<point x="2694" y="504"/>
			<point x="2694" y="479" type="curve" smooth="yes"/>
			<point x="2694" y="389"/>
			<point x="2715" y="275"/>
		</contour>
		<contour>
			<point x="2826" y="675" type="curve"/>
			<point x="2826" y="675"/>
			<point x="2761" y="638"/>
			<point x="2726" y="627" type="curve" smooth="yes"/>
			<point x="2638" y="598"/>
			<point x="2491" y="586"/>
			<point x="2415" y="586" type="curve" smooth="yes"/>
			<point x="2402" y="586"/>
			<point x="2390" y="586"/>
			<point x="2382" y="587" type="curve" smooth="yes"/>
			<point x="2346" y="590"/>
			<point x="2321" y="595"/>
			<point x="2296" y="595" type="curve" smooth="yes"/>
			<point x="2258" y="595"/>
			<point x="2221" y="584"/>
			<point x="2148" y="545" type="curve"/>
			<point x="2122" y="551" type="line"/>
			<point x="2167" y="581"/>
			<point x="2267" y="629"/>
			<point x="2279" y="629" type="curve" smooth="yes"/>
			<point x="2285" y="629"/>
			<point x="2303" y="627"/>
			<point x="2322" y="624" type="curve" smooth="yes"/>
			<point x="2343" y="621"/>
			<point x="2379" y="619"/>
			<point x="2420" y="619" type="curve" smooth="yes"/>
			<point x="2561" y="619"/>
			<point x="2725" y="652"/>
		</contour>
		<contour>
			<point x="5195" y="1119" type="curve" smooth="yes"/>
			<point x="5195" y="1223"/>
			<point x="5139" y="1290"/>
			<point x="4994" y="1327" type="curve" smooth="yes"/>
			<point x="4865" y="1360"/>
			<point x="4760" y="1392"/>
			<point x="4642" y="1458" type="curve" smooth="yes"/>
			<point x="4581" y="1492"/>
			<point x="3779" y="1540"/>
			<point x="3548" y="1553" type="curve" smooth="yes"/>
			<point x="3390" y="1562"/>
			<point x="3341" y="1565"/>
			<point x="3292" y="1569" type="curve" smooth="yes"/>
			<point x="3270" y="1571"/>
			<point x="3221" y="1589"/>
			<point x="3159" y="1615" type="curve" smooth="yes"/>
			<point x="3047" y="1662"/>
			<point x="2894" y="1716"/>
			<point x="2770" y="1723" type="curve" smooth="yes"/>
			<point x="2630" y="1731"/>
			<point x="2360" y="1739"/>
			<point x="2112" y="1739" type="curve" smooth="yes"/>
			<point x="1802" y="1739"/>
			<point x="1484" y="1726"/>
			<point x="1363" y="1675" type="curve" smooth="yes"/>
			<point x="1225" y="1617"/>
			<point x="939" y="1566"/>
			<point x="870" y="1560" type="curve"/>
			<point x="663" y="1585"/>
			<point x="427" y="1613"/>
			<point x="262" y="1627" type="curve" smooth="yes"/>
			<point x="255" y="1627" type="line" smooth="yes"/>
			<point x="239" y="1627"/>
			<point x="229" y="1612"/>
			<point x="229" y="1597" type="curve" smooth="yes"/>
			<point x="229" y="1586"/>
			<point x="230" y="1430"/>
			<point x="237" y="1338" type="curve"/>
			<point x="100" y="1333"/>
			<point x="166" y="451"/>
			<point x="169" y="436" type="curve" smooth="yes"/>
			<point x="173" y="418"/>
			<point x="178" y="406"/>
			<point x="195" y="406" type="curve" smooth="yes"/>
			<point x="199" y="406"/>
			<point x="205" y="406"/>
			<point x="234" y="410" type="curve" smooth="yes"/>
			<point x="744" y="480" type="line"/>
			<point x="1019" y="318"/>
			<point x="1146" y="289"/>
			<point x="1356" y="289" type="curve" smooth="yes"/>
			<point x="1666" y="289"/>
			<point x="1895" y="387"/>
			<point x="2047" y="476" type="curve"/>
			<point x="2193" y="457"/>
			<point x="2406" y="436"/>
			<point x="2461" y="436" type="curve" smooth="yes"/>
			<point x="2474" y="436" type="line"/>
			<point x="2498" y="349"/>
			<point x="2545" y="258"/>
			<point x="2602" y="189" type="curve"/>
			<point x="2577" y="147"/>
			<point x="2577" y="112"/>
			<point x="2577" y="75" type="curve"/>
			<point x="2421" y="51"/>
			<point x="2266" y="-89"/>
			<point x="2266" y="-210" type="curve" smooth="yes"/>
			<point x="2266" y="-309"/>
			<point x="2331" y="-380"/>
			<point x="2422" y="-380" type="curve" smooth="yes"/>
			<point x="2443" y="-380"/>
			<point x="2469" y="-373"/>
			<point x="2484" y="-361" type="curve" smooth="yes"/>
			<point x="2501" y="-347"/>
			<point x="2551" y="-315"/>
			<point x="2567" y="-306" type="curve"/>
			<point x="2650" y="-351"/>
			<point x="2691" y="-370"/>
			<point x="2831" y="-370" type="curve" smooth="yes"/>
			<point x="2838" y="-370"/>
			<point x="2846" y="-370"/>
			<point x="2853" y="-370" type="curve"/>
			<point x="2837" y="-420"/>
			<point x="2828" y="-470"/>
			<point x="2828" y="-515" type="curve" smooth="yes"/>
			<point x="2828" y="-653"/>
			<point x="2914" y="-716"/>
			<point x="3008" y="-716" type="curve" smooth="yes"/>
			<point x="3113" y="-716"/>
			<point x="3193" y="-617"/>
			<point x="3220" y="-548" type="curve"/>
			<point x="3277" y="-545"/>
			<point x="3355" y="-515"/>
			<point x="3445" y="-441" type="curve" smooth="yes"/>
			<point x="3569" y="-340"/>
			<point x="3662" y="-157"/>
			<point x="3662" y="6" type="curve" smooth="yes"/>
			<point x="3662" y="27"/>
			<point x="3661" y="37"/>
			<point x="3660" y="46" type="curve"/>
			<point x="3709" y="169"/>
			<point x="3758" y="306"/>
			<point x="3758" y="456" type="curve" smooth="yes"/>
			<point x="3758" y="529"/>
			<point x="3744" y="602"/>
			<point x="3688" y="686" type="curve"/>
			<point x="3915" y="765"/>
			<point x="4038" y="882"/>
			<point x="4043" y="998" type="curve"/>
			<point x="4444" y="998" type="line"/>
			<point x="4602" y="926"/>
			<point x="4742" y="893"/>
			<point x="4857" y="893" type="curve" smooth="yes"/>
			<point x="5068" y="893"/>
			<point x="5195" y="994"/>
		</contour>
		<contour>
			<point x="3814" y="1169" type="curve" smooth="yes"/>
			<point x="3819" y="1147"/>
			<point x="3800" y="1129"/>
			<point x="3788" y="1124" type="curve" smooth="yes"/>
			<point x="3634" y="1056"/>
			<point x="3537" y="1034"/>
			<point x="3455" y="1034" type="curve" smooth="yes"/>
			<point x="3345" y="1034"/>
			<point x="3106" y="1123"/>
			<point x="2936" y="1123" type="curve" smooth="yes"/>
			<point x="2880" y="1123"/>
			<point x="2831" y="1113"/>
			<point x="2797" y="1087" type="curve" smooth="yes"/>
			<point x="2788" y="1080"/>
			<point x="2765" y="1077"/>
			<point x="2733" y="1077" type="curve" smooth="yes"/>
			<point x="2557" y="1077"/>
			<point x="2104" y="1170"/>
			<point x="2102" y="1217" type="curve"/>
			<point x="2120" y="1217"/>
			<point x="2134" y="1212"/>
			<point x="2750" y="1151" type="curve"/>
			<point x="2816" y="1196"/>
			<point x="2915" y="1209"/>
			<point x="2988" y="1209" type="curve" smooth="yes"/>
			<point x="3082" y="1209"/>
			<point x="3286" y="1147"/>
			<point x="3471" y="1087" type="curve"/>
			<point x="3655" y="1140" type="line" smooth="yes"/>
			<point x="3710" y="1156"/>
			<point x="3762" y="1187"/>
			<point x="3791" y="1187" type="curve" smooth="yes"/>
			<point x="3803" y="1187"/>
			<point x="3811" y="1182"/>
		</contour>
	</outline>
</glyph>
<glyph name="manicule_bold" format="2">
	<advance width="5345"/>
	<outline>
		<contour>
			<point x="3282" y="1325" type="curve"/>
			<point x="3237" y="1328"/>
			<point x="3189" y="1329"/>
			<point x="3140" y="1329" type="curve" smooth="yes"/>
			<point x="2949" y="1329"/>
			<point x="2737" y="1308"/>
			<point x="2559" y="1281" type="curve"/>
			<point x="2493" y="1304"/>
			<point x="2426" y="1320"/>
			<point x="2350" y="1320" type="curve" smooth="yes"/>
			<point x="2228" y="1320"/>
			<point x="2064" y="1279"/>
			<point x="1995" y="1260" type="curve" smooth="yes"/>
			<point x="1927" y="1241"/>
			<point x="1898" y="1236"/>
			<point x="1875" y="1236" type="curve" smooth="yes"/>
			<point x="1754" y="1236"/>
			<point x="1609" y="1323"/>
			<point x="1519" y="1323" type="curve" smooth="yes"/>
			<point x="1431" y="1323"/>
			<point x="1351" y="1304"/>
			<point x="1327" y="1240" type="curve"/>
			<point x="818" y="1240" type="line"/>
			<point x="691" y="1102"/>
			<point x="514" y="1047"/>
			<point x="442" y="1032" type="curve" smooth="yes"/>
			<point x="413" y="1026"/>
			<point x="387" y="1023"/>
			<point x="364" y="1023" type="curve" smooth="yes"/>
			<point x="258" y="1023"/>
			<point x="224" y="1086"/>
			<point x="224" y="1160" type="curve" smooth="yes"/>
			<point x="224" y="1173"/>
			<point x="225" y="1179"/>
			<point x="227" y="1179" type="curve" smooth="yes"/>
			<point x="236" y="1179"/>
			<point x="263" y="1113"/>
			<point x="333" y="1113" type="curve" smooth="yes"/>
			<point x="342" y="1113"/>
			<point x="353" y="1114"/>
			<point x="364" y="1117" type="curve" smooth="yes"/>
			<point x="442" y="1136"/>
			<point x="629" y="1192"/>
			<point x="799" y="1279" type="curve" smooth="yes"/>
			<point x="884" y="1323"/>
			<point x="1375" y="1355"/>
			<point x="1662" y="1355" type="curve" smooth="yes"/>
			<point x="1751" y="1355"/>
			<point x="1860" y="1331"/>
			<point x="1988" y="1331" type="curve" smooth="yes"/>
			<point x="2118" y="1331"/>
			<point x="2234" y="1366"/>
			<point x="2352" y="1366" type="curve" smooth="yes"/>
			<point x="2457" y="1366"/>
			<point x="2515" y="1335"/>
			<point x="2578" y="1335" type="curve" smooth="yes"/>
			<point x="2580" y="1335"/>
			<point x="2582" y="1335"/>
			<point x="2585" y="1335" type="curve" smooth="yes"/>
			<point x="2637" y="1335"/>
			<point x="2877" y="1347"/>
			<point x="3068" y="1347" type="curve" smooth="yes"/>
			<point x="3167" y="1347"/>
			<point x="3252" y="1344"/>
			<point x="3292" y="1334" type="curve"/>
			<point x="3289" y="1331"/>
			<point x="3286" y="1328"/>
		</contour>
		<contour>
			<point x="1995" y="-377" type="curve" smooth="yes"/>
			<point x="2063" y="-389"/>
			<point x="2112" y="-391"/>
			<point x="2148" y="-391" type="curve" smooth="yes"/>
			<point x="2169" y="-391"/>
			<point x="2186" y="-390"/>
			<point x="2200" y="-390" type="curve" smooth="yes"/>
			<point x="2295" y="-390"/>
			<point x="2318" y="-577"/>
			<point x="2231" y="-577" type="curve" smooth="yes"/>
			<point x="2193" y="-577"/>
			<point x="2167" y="-520"/>
			<point x="2162" y="-482" type="curve"/>
			<point x="2155" y="-486"/>
			<point x="2144" y="-489"/>
			<point x="2130" y="-489" type="curve" smooth="yes"/>
			<point x="2091" y="-489"/>
			<point x="2025" y="-467"/>
			<point x="1937" y="-395" type="curve" smooth="yes"/>
			<point x="1793" y="-276"/>
			<point x="1744" y="-79"/>
			<point x="1744" y="20" type="curve" smooth="yes"/>
			<point x="1744" y="33"/>
			<point x="1745" y="45"/>
			<point x="1747" y="54" type="curve"/>
			<point x="1669" y="235"/>
			<point x="1596" y="492"/>
			<point x="1708" y="665" type="curve"/>
			<point x="1709" y="664"/>
			<point x="1712" y="662"/>
			<point x="1718" y="660" type="curve" smooth="yes"/>
			<point x="1738" y="654" type="line"/>
			<point x="1631" y="445"/>
			<point x="1737" y="221"/>
			<point x="1836" y="46" type="curve"/>
			<point x="1826" y="48"/>
			<point x="1817" y="49"/>
			<point x="1809" y="49" type="curve" smooth="yes"/>
			<point x="1800" y="49"/>
			<point x="1793" y="48"/>
			<point x="1792" y="47" type="curve" smooth="yes"/>
			<point x="1776" y="39"/>
			<point x="1773" y="27"/>
			<point x="1773" y="14" type="curve" smooth="yes"/>
			<point x="1768" y="-74"/>
			<point x="1884" y="-358"/>
		</contour>
		<contour>
			<point x="2128" y="334" type="curve" smooth="yes"/>
			<point x="2214" y="406"/>
			<point x="2316" y="577"/>
			<point x="2349" y="669" type="curve"/>
			<point x="2372" y="676"/>
			<point x="2377" y="679"/>
			<point x="2389" y="690" type="curve"/>
			<point x="2394" y="603"/>
			<point x="2244" y="390"/>
			<point x="2161" y="320" type="curve"/>
			<point x="2197" y="246"/>
			<point x="2206" y="207"/>
			<point x="2213" y="170" type="curve" smooth="yes"/>
			<point x="2223" y="120"/>
			<point x="2229" y="85"/>
			<point x="2229" y="-29" type="curve"/>
			<point x="2293" y="-33"/>
			<point x="2388" y="-135"/>
			<point x="2434" y="-193" type="curve"/>
			<point x="2513" y="-135"/>
			<point x="2591" y="-97"/>
			<point x="2664" y="-97" type="curve" smooth="yes"/>
			<point x="2818" y="-97"/>
			<point x="2880" y="-168"/>
			<point x="2880" y="-245" type="curve" smooth="yes"/>
			<point x="2880" y="-267"/>
			<point x="2868" y="-278"/>
			<point x="2850" y="-278" type="curve" smooth="yes"/>
			<point x="2838" y="-278"/>
			<point x="2827" y="-274"/>
			<point x="2805" y="-256" type="curve" smooth="yes"/>
			<point x="2768" y="-225"/>
			<point x="2695" y="-200"/>
			<point x="2641" y="-200" type="curve" smooth="yes"/>
			<point x="2605" y="-200"/>
			<point x="2579" y="-211"/>
			<point x="2579" y="-239" type="curve" smooth="yes"/>
			<point x="2579" y="-257"/>
			<point x="2588" y="-268"/>
			<point x="2608" y="-268" type="curve" smooth="yes"/>
			<point x="2615" y="-268"/>
			<point x="2622" y="-267"/>
			<point x="2629" y="-266" type="curve" smooth="yes"/>
			<point x="2634" y="-265"/>
			<point x="2641" y="-264"/>
			<point x="2650" y="-264" type="curve" smooth="yes"/>
			<point x="2669" y="-264"/>
			<point x="2691" y="-269"/>
			<point x="2713" y="-276" type="curve"/>
			<point x="2658" y="-305"/>
			<point x="2615" y="-310"/>
			<point x="2573" y="-310" type="curve" smooth="yes"/>
			<point x="2536" y="-310"/>
			<point x="2507" y="-309"/>
			<point x="2468" y="-307" type="curve"/>
			<point x="2415" y="-195"/>
			<point x="2319" y="-88"/>
			<point x="2191" y="-38" type="curve"/>
			<point x="2192" y="-26"/>
			<point x="2193" y="-13"/>
			<point x="2193" y="2" type="curve" smooth="yes"/>
			<point x="2193" y="77"/>
			<point x="2176" y="199"/>
			<point x="2120" y="330" type="curve"/>
			<point x="2123" y="331"/>
			<point x="2127" y="333"/>
		</contour>
		<contour>
			<point x="2590" y="206" type="curve"/>
			<point x="2630" y="275"/>
			<point x="2651" y="389"/>
			<point x="2651" y="479" type="curve" smooth="yes"/>
			<point x="2651" y="504"/>
			<point x="2650" y="529"/>
			<point x="2647" y="552" type="curve"/>
			<point x="2647" y="552"/>
			<point x="2655" y="541"/>
			<point x="2658" y="538" type="curve" smooth="yes"/>
			<point x="2676" y="519" type="line"/>
			<point x="2676" y="424"/>
			<point x="2669" y="311"/>
			<point x="2619" y="205" type="curve"/>
			<point x="2639" y="172"/>
			<point x="2669" y="119"/>
			<point x="2683" y="83" type="curve"/>
			<point x="2683" y="83"/>
			<point x="2657" y="88"/>
			<point x="2634" y="88" type="curve" smooth="yes"/>
			<point x="2628" y="88" type="line"/>
			<point x="2621" y="144"/>
			<point x="2617" y="166"/>
		</contour>
		<contour>
			<point x="2519" y="675" type="curve"/>
			<point x="2620" y="652"/>
			<point x="2784" y="619"/>
			<point x="2925" y="619" type="curve" smooth="yes"/>
			<point x="2966" y="619"/>
			<point x="3002" y="621"/>
			<point x="3023" y="624" type="curve" smooth="yes"/>
			<point x="3042" y="627"/>
			<point x="3060" y="629"/>
			<point x="3066" y="629" type="curve" smooth="yes"/>
			<point x="3078" y="629"/>
			<point x="3178" y="581"/>
			<point x="3223" y="551" type="curve"/>
			<point x="3197" y="545" type="line"/>
			<point x="3124" y="584"/>
			<point x="3087" y="595"/>
			<point x="3049" y="595" type="curve" smooth="yes"/>
			<point x="3024" y="595"/>
			<point x="2999" y="590"/>
			<point x="2963" y="587" type="curve" smooth="yes"/>
			<point x="2955" y="586"/>
			<point x="2943" y="586"/>
			<point x="2930" y="586" type="curve" smooth="yes"/>
			<point x="2854" y="586"/>
			<point x="2707" y="598"/>
			<point x="2619" y="627" type="curve" smooth="yes"/>
			<point x="2584" y="638"/>
			<point x="2519" y="675"/>
		</contour>
		<contour>
			<point x="150" y="1119" type="curve" smooth="yes"/>
			<point x="150" y="994"/>
			<point x="277" y="893"/>
			<point x="488" y="893" type="curve" smooth="yes"/>
			<point x="603" y="893"/>
			<point x="743" y="926"/>
			<point x="901" y="998" type="curve"/>
			<point x="1302" y="998" type="line"/>
			<point x="1307" y="882"/>
			<point x="1430" y="765"/>
			<point x="1657" y="686" type="curve"/>
			<point x="1601" y="602"/>
			<point x="1587" y="529"/>
			<point x="1587" y="456" type="curve" smooth="yes"/>
			<point x="1587" y="306"/>
			<point x="1636" y="169"/>
			<point x="1685" y="46" type="curve"/>
			<point x="1684" y="37"/>
			<point x="1683" y="27"/>
			<point x="1683" y="6" type="curve" smooth="yes"/>
			<point x="1683" y="-157"/>
			<point x="1776" y="-340"/>
			<point x="1900" y="-441" type="curve" smooth="yes"/>
			<point x="1990" y="-515"/>
			<point x="2068" y="-545"/>
			<point x="2125" y="-548" type="curve"/>
			<point x="2152" y="-617"/>
			<point x="2232" y="-716"/>
			<point x="2337" y="-716" type="curve" smooth="yes"/>
			<point x="2431" y="-716"/>
			<point x="2517" y="-653"/>
			<point x="2517" y="-515" type="curve" smooth="yes"/>
			<point x="2517" y="-470"/>
			<point x="2508" y="-420"/>
			<point x="2492" y="-370" type="curve"/>
			<point x="2499" y="-370"/>
			<point x="2507" y="-370"/>
			<point x="2514" y="-370" type="curve" smooth="yes"/>
			<point x="2654" y="-370"/>
			<point x="2695" y="-351"/>
			<point x="2778" y="-306" type="curve"/>
			<point x="2794" y="-315"/>
			<point x="2844" y="-347"/>
			<point x="2861" y="-361" type="curve" smooth="yes"/>
			<point x="2876" y="-373"/>
			<point x="2902" y="-380"/>
			<point x="2923" y="-380" type="curve" smooth="yes"/>
			<point x="3014" y="-380"/>
			<point x="3079" y="-309"/>
			<point x="3079" y="-210" type="curve" smooth="yes"/>
			<point x="3079" y="-89"/>
			<point x="2924" y="51"/>
			<point x="2768" y="75" type="curve"/>
			<point x="2768" y="112"/>
			<point x="2768" y="147"/>
			<point x="2743" y="189" type="curve"/>
			<point x="2800" y="258"/>
			<point x="2847" y="349"/>
			<point x="2871" y="436" type="curve"/>
			<point x="2884" y="436" type="line" smooth="yes"/>
			<point x="2939" y="436"/>
			<point x="3152" y="457"/>
			<point x="3298" y="476" type="curve"/>
			<point x="3450" y="387"/>
			<point x="3679" y="289"/>
			<point x="3989" y="289" type="curve" smooth="yes"/>
			<point x="4199" y="289"/>
			<point x="4326" y="318"/>
			<point x="4601" y="480" type="curve"/>
			<point x="5111" y="410" type="line" smooth="yes"/>
			<point x="5140" y="406"/>
			<point x="5146" y="406"/>
			<point x="5150" y="406" type="curve" smooth="yes"/>
			<point x="5167" y="406"/>
			<point x="5172" y="418"/>
			<point x="5176" y="436" type="curve" smooth="yes"/>
			<point x="5179" y="451"/>
			<point x="5245" y="1333"/>
			<point x="5108" y="1338" type="curve"/>
			<point x="5115" y="1430"/>
			<point x="5116" y="1586"/>
			<point x="5116" y="1597" type="curve" smooth="yes"/>
			<point x="5116" y="1612"/>
			<point x="5106" y="1627"/>
			<point x="5090" y="1627" type="curve" smooth="yes"/>
			<point x="5083" y="1627" type="line" smooth="yes"/>
			<point x="4918" y="1613"/>
			<point x="4682" y="1585"/>
			<point x="4475" y="1560" type="curve"/>
			<point x="4406" y="1566"/>
			<point x="4120" y="1617"/>
			<point x="3982" y="1675" type="curve" smooth="yes"/>
			<point x="3861" y="1726"/>
			<point x="3543" y="1739"/>
			<point x="3233" y="1739" type="curve" smooth="yes"/>
			<point x="2985" y="1739"/>
			<point x="2715" y="1731"/>
			<point x="2575" y="1723" type="curve" smooth="yes"/>
			<point x="2451" y="1716"/>
			<point x="2298" y="1662"/>
			<point x="2186" y="1615" type="curve" smooth="yes"/>
			<point x="2124" y="1589"/>
			<point x="2075" y="1571"/>
			<point x="2053" y="1569" type="curve" smooth="yes"/>
			<point x="2004" y="1565"/>
			<point x="1955" y="1562"/>
			<point x="1797" y="1553" type="curve" smooth="yes"/>
			<point x="1566" y="1540"/>
			<point x="764" y="1492"/>
			<point x="703" y="1458" type="curve" smooth="yes"/>
			<point x="585" y="1392"/>
			<point x="480" y="1360"/>
			<point x="351" y="1327" type="curve" smooth="yes"/>
			<point x="206" y="1290"/>
			<point x="150" y="1223"/>
		</contour>
		<contour>
			<point x="1531" y="1169" type="curve" smooth="yes"/>
			<point x="1534" y="1182"/>
			<point x="1542" y="1187"/>
			<point x="1554" y="1187" type="curve" smooth="yes"/>
			<point x="1583" y="1187"/>
			<point x="1635" y="1156"/>
			<point x="1690" y="1140" type="curve" smooth="yes"/>
			<point x="1874" y="1087" type="line"/>
			<point x="2059" y="1147"/>
			<point x="2263" y="1209"/>
			<point x="2357" y="1209" type="curve" smooth="yes"/>
			<point x="2430" y="1209"/>
			<point x="2529" y="1196"/>
			<point x="2595" y="1151" type="curve"/>
			<point x="3211" y="1212"/>
			<point x="3225" y="1217"/>
			<point x="3243" y="1217" type="curve"/>
			<point x="3241" y="1170"/>
			<point x="2788" y="1077"/>
			<point x="2612" y="1077" type="curve" smooth="yes"/>
			<point x="2580" y="1077"/>
			<point x="2557" y="1080"/>
			<point x="2548" y="1087" type="curve" smooth="yes"/>
			<point x="2514" y="1113"/>
			<point x="2465" y="1123"/>
			<point x="2409" y="1123" type="curve" smooth="yes"/>
			<point x="2239" y="1123"/>
			<point x="2000" y="1034"/>
			<point x="1890" y="1034" type="curve" smooth="yes"/>
			<point x="1808" y="1034"/>
			<point x="1711" y="1056"/>
			<point x="1557" y="1124" type="curve" smooth="yes"/>
			<point x="1545" y="1129"/>
			<point x="1526" y="1147"/>
		</contour>
	</outline>
</glyph>
<glyph name="manicule_semilight-right" format="2">
	<advance width="5339"/>
	<outline>
		<contour>
			<point x="2773" y="1210" type="curve"/>
			<point x="2197" y="1319" type="line" smooth="yes"/>
			<point x="2186" y="1321"/>
			<point x="2175" y="1323"/>
			<point x="2166" y="1323" type="curve" smooth="yes"/>
			<point x="2111" y="1323"/>
			<point x="2109" y="1238"/>
			<point x="2154" y="1229" type="curve" smooth="yes"/>
			<point x="2773" y="1107" type="line"/>
			<point x="2839" y="1132"/>
			<point x="2909" y="1149"/>
			<point x="2982" y="1149" type="curve" smooth="yes"/>
			<point x="3092" y="1149"/>
			<point x="3243" y="1112"/>
			<point x="3315" y="1093" type="curve" smooth="yes"/>
			<point x="3397" y="1071"/>
			<point x="3436" y="1065"/>
			<point x="3465" y="1065" type="curve" smooth="yes"/>
			<point x="3506" y="1065"/>
			<point x="3550" y="1065"/>
			<point x="3649" y="1100" type="curve" smooth="yes"/>
			<point x="3727" y="1128"/>
			<point x="3766" y="1141"/>
			<point x="3808" y="1141" type="curve" smooth="yes"/>
			<point x="3858" y="1141"/>
			<point x="3916" y="1125"/>
			<point x="3916" y="1028" type="curve" smooth="yes"/>
			<point x="3916" y="842"/>
			<point x="3645" y="737"/>
			<point x="3314" y="737" type="curve" smooth="yes"/>
			<point x="3192" y="737"/>
			<point x="3064" y="756"/>
			<point x="2964" y="793" type="curve" smooth="yes"/>
			<point x="2942" y="801"/>
			<point x="2938" y="801"/>
			<point x="2934" y="801" type="curve" smooth="yes"/>
			<point x="2914" y="801"/>
			<point x="2873" y="793"/>
			<point x="2819" y="781" type="curve" smooth="yes"/>
			<point x="2711" y="757"/>
			<point x="2547" y="725"/>
			<point x="2384" y="725" type="curve" smooth="yes"/>
			<point x="2296" y="725"/>
			<point x="2260" y="734"/>
			<point x="2260" y="734" type="curve" smooth="yes"/>
			<point x="2238" y="734"/>
			<point x="2189" y="699"/>
			<point x="2125" y="653" type="curve" smooth="yes"/>
			<point x="1850" y="455"/>
			<point x="1647" y="403"/>
			<point x="1350" y="403" type="curve" smooth="yes"/>
			<point x="1145" y="403"/>
			<point x="1015" y="433"/>
			<point x="751" y="596" type="curve"/>
			<point x="190" y="523" type="line" smooth="yes"/>
			<point x="184" y="522"/>
			<point x="147" y="515"/>
			<point x="150" y="476" type="curve" smooth="yes"/>
			<point x="154" y="425"/>
			<point x="168" y="408"/>
			<point x="204" y="408" type="curve" smooth="yes"/>
			<point x="211" y="408"/>
			<point x="219" y="409"/>
			<point x="738" y="480" type="curve"/>
			<point x="1013" y="318"/>
			<point x="1140" y="289"/>
			<point x="1350" y="289" type="curve" smooth="yes"/>
			<point x="1660" y="289"/>
			<point x="1889" y="387"/>
			<point x="2041" y="476" type="curve"/>
			<point x="2187" y="457"/>
			<point x="2400" y="436"/>
			<point x="2455" y="436" type="curve" smooth="yes"/>
			<point x="2468" y="436" type="line"/>
			<point x="2492" y="349"/>
			<point x="2539" y="258"/>
			<point x="2596" y="189" type="curve"/>
			<point x="2571" y="147"/>
			<point x="2545" y="99"/>
			<point x="2533" y="67" type="curve"/>
			<point x="2374" y="22"/>
			<point x="2260" y="-89"/>
			<point x="2260" y="-210" type="curve" smooth="yes"/>
			<point x="2260" y="-309"/>
			<point x="2317" y="-375"/>
			<point x="2408" y="-375" type="curve" smooth="yes"/>
			<point x="2460" y="-375"/>
			<point x="2488" y="-335"/>
			<point x="2543" y="-326" type="curve"/>
			<point x="2630" y="-373"/>
			<point x="2683" y="-396"/>
			<point x="2761" y="-396" type="curve" smooth="yes"/>
			<point x="2785" y="-396"/>
			<point x="2796" y="-396"/>
			<point x="2816" y="-394" type="curve"/>
			<point x="2800" y="-444"/>
			<point x="2797" y="-464"/>
			<point x="2797" y="-513" type="curve" smooth="yes"/>
			<point x="2797" y="-652"/>
			<point x="2908" y="-716"/>
			<point x="3002" y="-716" type="curve" smooth="yes"/>
			<point x="3107" y="-716"/>
			<point x="3187" y="-617"/>
			<point x="3214" y="-548" type="curve"/>
			<point x="3271" y="-545"/>
			<point x="3349" y="-515"/>
			<point x="3439" y="-441" type="curve" smooth="yes"/>
			<point x="3563" y="-340"/>
			<point x="3656" y="-157"/>
			<point x="3656" y="6" type="curve" smooth="yes"/>
			<point x="3656" y="27"/>
			<point x="3655" y="37"/>
			<point x="3654" y="46" type="curve"/>
			<point x="3703" y="169"/>
			<point x="3752" y="340"/>
			<point x="3752" y="490" type="curve" smooth="yes"/>
			<point x="3752" y="563"/>
			<point x="3738" y="602"/>
			<point x="3682" y="686" type="curve"/>
			<point x="3909" y="765"/>
			<point x="4001" y="882"/>
			<point x="4006" y="998" type="curve"/>
			<point x="4438" y="998" type="line"/>
			<point x="4596" y="926"/>
			<point x="4736" y="893"/>
			<point x="4851" y="893" type="curve" smooth="yes"/>
			<point x="5062" y="893"/>
			<point x="5189" y="994"/>
			<point x="5189" y="1119" type="curve" smooth="yes"/>
			<point x="5189" y="1223"/>
			<point x="5133" y="1290"/>
			<point x="4988" y="1327" type="curve" smooth="yes"/>
			<point x="4859" y="1360"/>
			<point x="4754" y="1392"/>
			<point x="4636" y="1458" type="curve" smooth="yes"/>
			<point x="4575" y="1492"/>
			<point x="3773" y="1540"/>
			<point x="3542" y="1553" type="curve" smooth="yes"/>
			<point x="3384" y="1562"/>
			<point x="3335" y="1565"/>
			<point x="3286" y="1569" type="curve" smooth="yes"/>
			<point x="3264" y="1571"/>
			<point x="3215" y="1589"/>
			<point x="3153" y="1615" type="curve" smooth="yes"/>
			<point x="3041" y="1662"/>
			<point x="2888" y="1716"/>
			<point x="2764" y="1723" type="curve" smooth="yes"/>
			<point x="2624" y="1731"/>
			<point x="2354" y="1739"/>
			<point x="2106" y="1739" type="curve" smooth="yes"/>
			<point x="1796" y="1739"/>
			<point x="1478" y="1726"/>
			<point x="1357" y="1675" type="curve" smooth="yes"/>
			<point x="1219" y="1617"/>
			<point x="933" y="1566"/>
			<point x="864" y="1560" type="curve"/>
			<point x="618" y="1591"/>
			<point x="631" y="1627"/>
			<point x="261" y="1627" type="curve" smooth="yes"/>
			<point x="245" y="1627"/>
			<point x="223" y="1603"/>
			<point x="223" y="1572" type="curve" smooth="yes"/>
			<point x="223" y="1530"/>
			<point x="250" y="1512"/>
			<point x="267" y="1512" type="curve" smooth="yes"/>
			<point x="290" y="1512"/>
			<point x="313" y="1514"/>
			<point x="335" y="1514" type="curve" smooth="yes"/>
			<point x="534" y="1514"/>
			<point x="696" y="1466"/>
			<point x="862" y="1445" type="curve"/>
			<point x="921" y="1448"/>
			<point x="1233" y="1503"/>
			<point x="1380" y="1565" type="curve" smooth="yes"/>
			<point x="1491" y="1612"/>
			<point x="1797" y="1624"/>
			<point x="2099" y="1624" type="curve" smooth="yes"/>
			<point x="2336" y="1624"/>
			<point x="2607" y="1617"/>
			<point x="2758" y="1609" type="curve" smooth="yes"/>
			<point x="2867" y="1603"/>
			<point x="3008" y="1552"/>
			<point x="3119" y="1508" type="curve" smooth="yes"/>
			<point x="3192" y="1479"/>
			<point x="3253" y="1456"/>
			<point x="3282" y="1454" type="curve" smooth="yes"/>
			<point x="3294" y="1453"/>
			<point x="3338" y="1451"/>
			<point x="3524" y="1443" type="curve" smooth="yes"/>
			<point x="3714" y="1435"/>
			<point x="4501" y="1397"/>
			<point x="4612" y="1340" type="curve" smooth="yes"/>
			<point x="4782" y="1253"/>
			<point x="4896" y="1220"/>
			<point x="4975" y="1202" type="curve" smooth="yes"/>
			<point x="5020" y="1192"/>
			<point x="5055" y="1164"/>
			<point x="5055" y="1117" type="curve" smooth="yes"/>
			<point x="5055" y="1027"/>
			<point x="4981" y="1005"/>
			<point x="4831" y="1005" type="curve" smooth="yes"/>
			<point x="4711" y="1005"/>
			<point x="4636" y="1028"/>
			<point x="4452" y="1117" type="curve"/>
			<point x="4000" y="1127" type="line"/>
			<point x="3972" y="1220"/>
			<point x="3901" y="1233"/>
			<point x="3813" y="1233" type="curve" smooth="yes"/>
			<point x="3752" y="1233"/>
			<point x="3683" y="1216"/>
			<point x="3617" y="1197" type="curve" smooth="yes"/>
			<point x="3547" y="1177"/>
			<point x="3491" y="1165"/>
			<point x="3457" y="1165" type="curve" smooth="yes"/>
			<point x="3434" y="1165"/>
			<point x="3405" y="1170"/>
			<point x="3337" y="1189" type="curve" smooth="yes"/>
			<point x="3268" y="1208"/>
			<point x="3104" y="1249"/>
			<point x="2982" y="1249" type="curve" smooth="yes"/>
			<point x="2906" y="1249"/>
			<point x="2839" y="1233"/>
		</contour>
		<contour>
			<point x="3327" y="-89" type="curve" smooth="yes"/>
			<point x="3343" y="-89"/>
			<point x="3353" y="-75"/>
			<point x="3353" y="-45" type="curve" smooth="yes"/>
			<point x="3353" y="-13"/>
			<point x="3329" y="-9"/>
			<point x="3308" y="-9" type="curve" smooth="yes"/>
			<point x="3303" y="-9"/>
			<point x="3299" y="-9"/>
			<point x="3295" y="-9" type="curve" smooth="yes"/>
			<point x="3263" y="-10"/>
			<point x="3238" y="-12"/>
			<point x="3207" y="-19" type="curve"/>
			<point x="3207" y="2" type="line" smooth="yes"/>
			<point x="3207" y="69"/>
			<point x="3222" y="172"/>
			<point x="3276" y="299" type="curve"/>
			<point x="3324" y="309"/>
			<point x="3395" y="326"/>
			<point x="3395" y="360" type="curve" smooth="yes"/>
			<point x="3395" y="375"/>
			<point x="3388" y="403"/>
			<point x="3370" y="403" type="curve" smooth="yes"/>
			<point x="3345" y="403"/>
			<point x="3298" y="387"/>
			<point x="3278" y="377" type="curve"/>
			<point x="3268" y="387" type="line" smooth="yes"/>
			<point x="3218" y="437"/>
			<point x="3144" y="539"/>
			<point x="3093" y="651" type="curve"/>
			<point x="3174" y="634"/>
			<point x="3225" y="626"/>
			<point x="3307" y="626" type="curve" smooth="yes"/>
			<point x="3402" y="626"/>
			<point x="3493" y="642"/>
			<point x="3587" y="668" type="curve"/>
			<point x="3637" y="594"/>
			<point x="3651" y="550"/>
			<point x="3651" y="489" type="curve" smooth="yes"/>
			<point x="3651" y="343"/>
			<point x="3602" y="174"/>
			<point x="3550" y="54" type="curve"/>
			<point x="3552" y="45"/>
			<point x="3553" y="33"/>
			<point x="3553" y="20" type="curve" smooth="yes"/>
			<point x="3553" y="-79"/>
			<point x="3504" y="-276"/>
			<point x="3360" y="-395" type="curve" smooth="yes"/>
			<point x="3272" y="-467"/>
			<point x="3206" y="-489"/>
			<point x="3167" y="-489" type="curve" smooth="yes"/>
			<point x="3153" y="-489"/>
			<point x="3142" y="-486"/>
			<point x="3135" y="-482" type="curve"/>
			<point x="3123" y="-565"/>
			<point x="3070" y="-624"/>
			<point x="2981" y="-624" type="curve" smooth="yes"/>
			<point x="2931" y="-624"/>
			<point x="2888" y="-579"/>
			<point x="2888" y="-515" type="curve" smooth="yes"/>
			<point x="2888" y="-340"/>
			<point x="3064" y="-89"/>
		</contour>
		<contour>
			<point x="3188" y="334" type="curve" smooth="yes"/>
			<point x="3190" y="332"/>
			<point x="3193" y="331"/>
			<point x="3196" y="330" type="curve"/>
			<point x="3140" y="199"/>
			<point x="3123" y="77"/>
			<point x="3123" y="2" type="curve" smooth="yes"/>
			<point x="3123" y="-13"/>
			<point x="3124" y="-26"/>
			<point x="3125" y="-38" type="curve"/>
			<point x="2997" y="-88"/>
			<point x="2901" y="-195"/>
			<point x="2848" y="-307" type="curve"/>
			<point x="2809" y="-310"/>
			<point x="2803" y="-310"/>
			<point x="2766" y="-310" type="curve" smooth="yes"/>
			<point x="2724" y="-310"/>
			<point x="2681" y="-305"/>
			<point x="2626" y="-276" type="curve"/>
			<point x="2648" y="-269"/>
			<point x="2670" y="-264"/>
			<point x="2689" y="-264" type="curve" smooth="yes"/>
			<point x="2703" y="-264"/>
			<point x="2717" y="-268"/>
			<point x="2731" y="-268" type="curve" smooth="yes"/>
			<point x="2751" y="-268"/>
			<point x="2764" y="-251"/>
			<point x="2764" y="-233" type="curve" smooth="yes"/>
			<point x="2764" y="-200"/>
			<point x="2734" y="-192"/>
			<point x="2692" y="-192" type="curve" smooth="yes"/>
			<point x="2628" y="-192"/>
			<point x="2553" y="-210"/>
			<point x="2457" y="-279" type="curve" smooth="yes"/>
			<point x="2435" y="-295"/>
			<point x="2417" y="-298"/>
			<point x="2405" y="-298" type="curve" smooth="yes"/>
			<point x="2353" y="-298"/>
			<point x="2332" y="-268"/>
			<point x="2332" y="-215" type="curve" smooth="yes"/>
			<point x="2332" y="-110"/>
			<point x="2489" y="-2"/>
			<point x="2671" y="-2" type="curve" smooth="yes"/>
			<point x="2772" y="-2"/>
			<point x="2876" y="-38"/>
			<point x="2921" y="-40" type="curve" smooth="yes"/>
			<point x="2935" y="-40"/>
			<point x="2957" y="-34"/>
			<point x="2959" y="-4" type="curve" smooth="yes"/>
			<point x="2961" y="24"/>
			<point x="2946" y="35"/>
			<point x="2935" y="39" type="curve" smooth="yes"/>
			<point x="2872" y="67"/>
			<point x="2809" y="78"/>
			<point x="2748" y="85" type="curve"/>
			<point x="2778" y="191"/>
			<point x="2837" y="196"/>
			<point x="2907" y="196" type="curve" smooth="yes"/>
			<point x="2923" y="196"/>
			<point x="2937" y="210"/>
			<point x="2937" y="226" type="curve" smooth="yes"/>
			<point x="2937" y="243"/>
			<point x="2923" y="256"/>
			<point x="2907" y="256" type="curve" smooth="yes"/>
			<point x="2874" y="256"/>
			<point x="2847" y="254"/>
			<point x="2811" y="239" type="curve"/>
			<point x="2776" y="306"/>
			<point x="2760" y="394"/>
			<point x="2760" y="478" type="curve" smooth="yes"/>
			<point x="2760" y="509"/>
			<point x="2762" y="541"/>
			<point x="2766" y="569" type="curve"/>
			<point x="2819" y="579"/>
			<point x="2865" y="610"/>
			<point x="2923" y="691" type="curve"/>
			<point x="2945" y="683"/>
			<point x="2944" y="676"/>
			<point x="2967" y="669" type="curve"/>
			<point x="3000" y="577"/>
			<point x="3102" y="406"/>
		</contour>
		<contour>
			<point x="2688" y="479" type="curve" smooth="yes"/>
			<point x="2688" y="389"/>
			<point x="2709" y="275"/>
			<point x="2749" y="206" type="curve"/>
			<point x="2723" y="181"/>
			<point x="2701" y="144"/>
			<point x="2687" y="88" type="curve"/>
			<point x="2686" y="88" type="line" smooth="yes"/>
			<point x="2658" y="88"/>
			<point x="2645" y="86"/>
			<point x="2619" y="82" type="curve"/>
			<point x="2635" y="115"/>
			<point x="2659" y="156"/>
			<point x="2679" y="189" type="curve"/>
			<point x="2591" y="295"/>
			<point x="2559" y="361"/>
			<point x="2536" y="446" type="curve"/>
			<point x="2593" y="464"/>
			<point x="2630" y="499"/>
			<point x="2659" y="527" type="curve" smooth="yes"/>
			<point x="2670" y="538"/>
			<point x="2683" y="545"/>
			<point x="2692" y="552" type="curve"/>
			<point x="2689" y="529"/>
			<point x="2688" y="504"/>
		</contour>
		<contour>
			<point x="2820" y="684" type="curve"/>
			<point x="2792" y="661"/>
			<point x="2765" y="644"/>
			<point x="2728" y="638" type="curve" smooth="yes"/>
			<point x="2691" y="632"/>
			<point x="2653" y="616"/>
			<point x="2611" y="585" type="curve" smooth="yes"/>
			<point x="2530" y="526"/>
			<point x="2489" y="512"/>
			<point x="2446" y="512" type="curve" smooth="yes"/>
			<point x="2405" y="512"/>
			<point x="2124" y="544"/>
			<point x="2124" y="544" type="curve" smooth="yes"/>
			<point x="2180" y="564"/>
			<point x="2258" y="622"/>
			<point x="2273" y="622" type="curve" smooth="yes"/>
			<point x="2279" y="622"/>
			<point x="2297" y="620"/>
			<point x="2316" y="617" type="curve" smooth="yes"/>
			<point x="2337" y="614"/>
			<point x="2373" y="612"/>
			<point x="2414" y="612" type="curve" smooth="yes"/>
			<point x="2555" y="612"/>
			<point x="2719" y="656"/>
		</contour>
	</outline>
</glyph>
<glyph name="manicule_semilight" format="2">
	<advance width="5339"/>
	<outline>
		<contour>
			<point x="3142" y="1319" type="curve" smooth="yes"/>
			<point x="2566" y="1210" type="line"/>
			<point x="2500" y="1233"/>
			<point x="2433" y="1249"/>
			<point x="2357" y="1249" type="curve" smooth="yes"/>
			<point x="2235" y="1249"/>
			<point x="2071" y="1208"/>
			<point x="2002" y="1189" type="curve" smooth="yes"/>
			<point x="1934" y="1170"/>
			<point x="1905" y="1165"/>
			<point x="1882" y="1165" type="curve" smooth="yes"/>
			<point x="1848" y="1165"/>
			<point x="1792" y="1177"/>
			<point x="1722" y="1197" type="curve" smooth="yes"/>
			<point x="1656" y="1216"/>
			<point x="1587" y="1233"/>
			<point x="1526" y="1233" type="curve" smooth="yes"/>
			<point x="1438" y="1233"/>
			<point x="1367" y="1220"/>
			<point x="1339" y="1127" type="curve"/>
			<point x="887" y="1117" type="line"/>
			<point x="703" y="1028"/>
			<point x="628" y="1005"/>
			<point x="508" y="1005" type="curve" smooth="yes"/>
			<point x="358" y="1005"/>
			<point x="284" y="1027"/>
			<point x="284" y="1117" type="curve" smooth="yes"/>
			<point x="284" y="1164"/>
			<point x="319" y="1192"/>
			<point x="364" y="1202" type="curve" smooth="yes"/>
			<point x="443" y="1220"/>
			<point x="557" y="1253"/>
			<point x="727" y="1340" type="curve" smooth="yes"/>
			<point x="838" y="1397"/>
			<point x="1625" y="1435"/>
			<point x="1815" y="1443" type="curve" smooth="yes"/>
			<point x="2001" y="1451"/>
			<point x="2045" y="1453"/>
			<point x="2057" y="1454" type="curve" smooth="yes"/>
			<point x="2086" y="1456"/>
			<point x="2147" y="1479"/>
			<point x="2220" y="1508" type="curve" smooth="yes"/>
			<point x="2331" y="1552"/>
			<point x="2472" y="1603"/>
			<point x="2581" y="1609" type="curve" smooth="yes"/>
			<point x="2732" y="1617"/>
			<point x="3003" y="1624"/>
			<point x="3240" y="1624" type="curve" smooth="yes"/>
			<point x="3542" y="1624"/>
			<point x="3848" y="1612"/>
			<point x="3959" y="1565" type="curve" smooth="yes"/>
			<point x="4106" y="1503"/>
			<point x="4418" y="1448"/>
			<point x="4477" y="1445" type="curve"/>
			<point x="4643" y="1466"/>
			<point x="4805" y="1514"/>
			<point x="5004" y="1514" type="curve" smooth="yes"/>
			<point x="5026" y="1514"/>
			<point x="5049" y="1512"/>
			<point x="5072" y="1512" type="curve" smooth="yes"/>
			<point x="5089" y="1512"/>
			<point x="5116" y="1530"/>
			<point x="5116" y="1572" type="curve" smooth="yes"/>
			<point x="5116" y="1603"/>
			<point x="5094" y="1627"/>
			<point x="5078" y="1627" type="curve" smooth="yes"/>
			<point x="4708" y="1627"/>
			<point x="4721" y="1591"/>
			<point x="4475" y="1560" type="curve"/>
			<point x="4406" y="1566"/>
			<point x="4120" y="1617"/>
			<point x="3982" y="1675" type="curve" smooth="yes"/>
			<point x="3861" y="1726"/>
			<point x="3543" y="1739"/>
			<point x="3233" y="1739" type="curve" smooth="yes"/>
			<point x="2985" y="1739"/>
			<point x="2715" y="1731"/>
			<point x="2575" y="1723" type="curve" smooth="yes"/>
			<point x="2451" y="1716"/>
			<point x="2298" y="1662"/>
			<point x="2186" y="1615" type="curve" smooth="yes"/>
			<point x="2124" y="1589"/>
			<point x="2075" y="1571"/>
			<point x="2053" y="1569" type="curve" smooth="yes"/>
			<point x="2004" y="1565"/>
			<point x="1955" y="1562"/>
			<point x="1797" y="1553" type="curve" smooth="yes"/>
			<point x="1566" y="1540"/>
			<point x="764" y="1492"/>
			<point x="703" y="1458" type="curve" smooth="yes"/>
			<point x="585" y="1392"/>
			<point x="480" y="1360"/>
			<point x="351" y="1327" type="curve" smooth="yes"/>
			<point x="206" y="1290"/>
			<point x="150" y="1223"/>
			<point x="150" y="1119" type="curve" smooth="yes"/>
			<point x="150" y="994"/>
			<point x="277" y="893"/>
			<point x="488" y="893" type="curve" smooth="yes"/>
			<point x="603" y="893"/>
			<point x="743" y="926"/>
			<point x="901" y="998" type="curve"/>
			<point x="1333" y="998" type="line"/>
			<point x="1338" y="882"/>
			<point x="1430" y="765"/>
			<point x="1657" y="686" type="curve"/>
			<point x="1601" y="602"/>
			<point x="1587" y="563"/>
			<point x="1587" y="490" type="curve" smooth="yes"/>
			<point x="1587" y="340"/>
			<point x="1636" y="169"/>
			<point x="1685" y="46" type="curve"/>
			<point x="1684" y="37"/>
			<point x="1683" y="27"/>
			<point x="1683" y="6" type="curve" smooth="yes"/>
			<point x="1683" y="-157"/>
			<point x="1776" y="-340"/>
			<point x="1900" y="-441" type="curve" smooth="yes"/>
			<point x="1990" y="-515"/>
			<point x="2068" y="-545"/>
			<point x="2125" y="-548" type="curve"/>
			<point x="2152" y="-617"/>
			<point x="2232" y="-716"/>
			<point x="2337" y="-716" type="curve" smooth="yes"/>
			<point x="2431" y="-716"/>
			<point x="2542" y="-652"/>
			<point x="2542" y="-513" type="curve" smooth="yes"/>
			<point x="2542" y="-464"/>
			<point x="2539" y="-444"/>
			<point x="2523" y="-394" type="curve"/>
			<point x="2543" y="-396"/>
			<point x="2554" y="-396"/>
			<point x="2578" y="-396" type="curve" smooth="yes"/>
			<point x="2656" y="-396"/>
			<point x="2709" y="-373"/>
			<point x="2796" y="-326" type="curve"/>
			<point x="2851" y="-335"/>
			<point x="2879" y="-375"/>
			<point x="2931" y="-375" type="curve" smooth="yes"/>
			<point x="3022" y="-375"/>
			<point x="3079" y="-309"/>
			<point x="3079" y="-210" type="curve" smooth="yes"/>
			<point x="3079" y="-89"/>
			<point x="2965" y="22"/>
			<point x="2806" y="67" type="curve"/>
			<point x="2794" y="99"/>
			<point x="2768" y="147"/>
			<point x="2743" y="189" type="curve"/>
			<point x="2800" y="258"/>
			<point x="2847" y="349"/>
			<point x="2871" y="436" type="curve"/>
			<point x="2884" y="436" type="line" smooth="yes"/>
			<point x="2939" y="436"/>
			<point x="3152" y="457"/>
			<point x="3298" y="476" type="curve"/>
			<point x="3450" y="387"/>
			<point x="3679" y="289"/>
			<point x="3989" y="289" type="curve" smooth="yes"/>
			<point x="4199" y="289"/>
			<point x="4326" y="318"/>
			<point x="4601" y="480" type="curve"/>
			<point x="5120" y="409"/>
			<point x="5128" y="408"/>
			<point x="5135" y="408" type="curve" smooth="yes"/>
			<point x="5171" y="408"/>
			<point x="5185" y="425"/>
			<point x="5189" y="476" type="curve" smooth="yes"/>
			<point x="5192" y="515"/>
			<point x="5155" y="522"/>
			<point x="5149" y="523" type="curve" smooth="yes"/>
			<point x="4588" y="596" type="line"/>
			<point x="4324" y="433"/>
			<point x="4194" y="403"/>
			<point x="3989" y="403" type="curve" smooth="yes"/>
			<point x="3692" y="403"/>
			<point x="3489" y="455"/>
			<point x="3214" y="653" type="curve" smooth="yes"/>
			<point x="3150" y="699"/>
			<point x="3101" y="734"/>
			<point x="3079" y="734" type="curve" smooth="yes"/>
			<point x="3079" y="734"/>
			<point x="3043" y="725"/>
			<point x="2955" y="725" type="curve" smooth="yes"/>
			<point x="2792" y="725"/>
			<point x="2628" y="757"/>
			<point x="2520" y="781" type="curve" smooth="yes"/>
			<point x="2466" y="793"/>
			<point x="2425" y="801"/>
			<point x="2405" y="801" type="curve" smooth="yes"/>
			<point x="2401" y="801"/>
			<point x="2397" y="801"/>
			<point x="2375" y="793" type="curve" smooth="yes"/>
			<point x="2275" y="756"/>
			<point x="2147" y="737"/>
			<point x="2025" y="737" type="curve" smooth="yes"/>
			<point x="1694" y="737"/>
			<point x="1423" y="842"/>
			<point x="1423" y="1028" type="curve" smooth="yes"/>
			<point x="1423" y="1125"/>
			<point x="1481" y="1141"/>
			<point x="1531" y="1141" type="curve" smooth="yes"/>
			<point x="1573" y="1141"/>
			<point x="1612" y="1128"/>
			<point x="1690" y="1100" type="curve" smooth="yes"/>
			<point x="1789" y="1065"/>
			<point x="1833" y="1065"/>
			<point x="1874" y="1065" type="curve" smooth="yes"/>
			<point x="1903" y="1065"/>
			<point x="1942" y="1071"/>
			<point x="2024" y="1093" type="curve" smooth="yes"/>
			<point x="2096" y="1112"/>
			<point x="2247" y="1149"/>
			<point x="2357" y="1149" type="curve" smooth="yes"/>
			<point x="2430" y="1149"/>
			<point x="2500" y="1132"/>
			<point x="2566" y="1107" type="curve"/>
			<point x="3185" y="1229" type="line" smooth="yes"/>
			<point x="3230" y="1238"/>
			<point x="3228" y="1323"/>
			<point x="3173" y="1323" type="curve" smooth="yes"/>
			<point x="3164" y="1323"/>
			<point x="3153" y="1321"/>
		</contour>
		<contour>
			<point x="2012" y="-89" type="curve" smooth="yes"/>
			<point x="2275" y="-89"/>
			<point x="2451" y="-340"/>
			<point x="2451" y="-515" type="curve" smooth="yes"/>
			<point x="2451" y="-579"/>
			<point x="2408" y="-624"/>
			<point x="2358" y="-624" type="curve" smooth="yes"/>
			<point x="2269" y="-624"/>
			<point x="2216" y="-565"/>
			<point x="2204" y="-482" type="curve"/>
			<point x="2197" y="-486"/>
			<point x="2186" y="-489"/>
			<point x="2172" y="-489" type="curve" smooth="yes"/>
			<point x="2133" y="-489"/>
			<point x="2067" y="-467"/>
			<point x="1979" y="-395" type="curve" smooth="yes"/>
			<point x="1835" y="-276"/>
			<point x="1786" y="-79"/>
			<point x="1786" y="20" type="curve" smooth="yes"/>
			<point x="1786" y="33"/>
			<point x="1787" y="45"/>
			<point x="1789" y="54" type="curve"/>
			<point x="1737" y="174"/>
			<point x="1688" y="343"/>
			<point x="1688" y="489" type="curve" smooth="yes"/>
			<point x="1688" y="550"/>
			<point x="1702" y="594"/>
			<point x="1752" y="668" type="curve"/>
			<point x="1846" y="642"/>
			<point x="1937" y="626"/>
			<point x="2032" y="626" type="curve" smooth="yes"/>
			<point x="2114" y="626"/>
			<point x="2165" y="634"/>
			<point x="2246" y="651" type="curve"/>
			<point x="2195" y="539"/>
			<point x="2121" y="437"/>
			<point x="2071" y="387" type="curve" smooth="yes"/>
			<point x="2061" y="377" type="line"/>
			<point x="2041" y="387"/>
			<point x="1994" y="403"/>
			<point x="1969" y="403" type="curve" smooth="yes"/>
			<point x="1951" y="403"/>
			<point x="1944" y="375"/>
			<point x="1944" y="360" type="curve" smooth="yes"/>
			<point x="1944" y="326"/>
			<point x="2015" y="309"/>
			<point x="2063" y="299" type="curve"/>
			<point x="2117" y="172"/>
			<point x="2132" y="69"/>
			<point x="2132" y="2" type="curve" smooth="yes"/>
			<point x="2132" y="-19" type="line"/>
			<point x="2101" y="-12"/>
			<point x="2076" y="-10"/>
			<point x="2044" y="-9" type="curve" smooth="yes"/>
			<point x="2040" y="-9"/>
			<point x="2036" y="-9"/>
			<point x="2031" y="-9" type="curve" smooth="yes"/>
			<point x="2010" y="-9"/>
			<point x="1986" y="-13"/>
			<point x="1986" y="-45" type="curve" smooth="yes"/>
			<point x="1986" y="-75"/>
			<point x="1996" y="-89"/>
		</contour>
		<contour>
			<point x="2151" y="334" type="curve" smooth="yes"/>
			<point x="2237" y="406"/>
			<point x="2339" y="577"/>
			<point x="2372" y="669" type="curve"/>
			<point x="2395" y="676"/>
			<point x="2394" y="683"/>
			<point x="2416" y="691" type="curve"/>
			<point x="2474" y="610"/>
			<point x="2520" y="579"/>
			<point x="2573" y="569" type="curve"/>
			<point x="2577" y="541"/>
			<point x="2579" y="509"/>
			<point x="2579" y="478" type="curve" smooth="yes"/>
			<point x="2579" y="394"/>
			<point x="2563" y="306"/>
			<point x="2528" y="239" type="curve"/>
			<point x="2492" y="254"/>
			<point x="2465" y="256"/>
			<point x="2432" y="256" type="curve" smooth="yes"/>
			<point x="2416" y="256"/>
			<point x="2402" y="243"/>
			<point x="2402" y="226" type="curve" smooth="yes"/>
			<point x="2402" y="210"/>
			<point x="2416" y="196"/>
			<point x="2432" y="196" type="curve" smooth="yes"/>
			<point x="2502" y="196"/>
			<point x="2561" y="191"/>
			<point x="2591" y="85" type="curve"/>
			<point x="2530" y="78"/>
			<point x="2467" y="67"/>
			<point x="2404" y="39" type="curve" smooth="yes"/>
			<point x="2393" y="35"/>
			<point x="2378" y="24"/>
			<point x="2380" y="-4" type="curve" smooth="yes"/>
			<point x="2382" y="-34"/>
			<point x="2404" y="-40"/>
			<point x="2418" y="-40" type="curve" smooth="yes"/>
			<point x="2463" y="-38"/>
			<point x="2567" y="-2"/>
			<point x="2668" y="-2" type="curve" smooth="yes"/>
			<point x="2850" y="-2"/>
			<point x="3007" y="-110"/>
			<point x="3007" y="-215" type="curve" smooth="yes"/>
			<point x="3007" y="-268"/>
			<point x="2986" y="-298"/>
			<point x="2934" y="-298" type="curve" smooth="yes"/>
			<point x="2922" y="-298"/>
			<point x="2904" y="-295"/>
			<point x="2882" y="-279" type="curve" smooth="yes"/>
			<point x="2786" y="-210"/>
			<point x="2711" y="-192"/>
			<point x="2647" y="-192" type="curve" smooth="yes"/>
			<point x="2605" y="-192"/>
			<point x="2575" y="-200"/>
			<point x="2575" y="-233" type="curve" smooth="yes"/>
			<point x="2575" y="-251"/>
			<point x="2588" y="-268"/>
			<point x="2608" y="-268" type="curve" smooth="yes"/>
			<point x="2622" y="-268"/>
			<point x="2636" y="-264"/>
			<point x="2650" y="-264" type="curve" smooth="yes"/>
			<point x="2669" y="-264"/>
			<point x="2691" y="-269"/>
			<point x="2713" y="-276" type="curve"/>
			<point x="2658" y="-305"/>
			<point x="2615" y="-310"/>
			<point x="2573" y="-310" type="curve" smooth="yes"/>
			<point x="2536" y="-310"/>
			<point x="2530" y="-310"/>
			<point x="2491" y="-307" type="curve"/>
			<point x="2438" y="-195"/>
			<point x="2342" y="-88"/>
			<point x="2214" y="-38" type="curve"/>
			<point x="2215" y="-26"/>
			<point x="2216" y="-13"/>
			<point x="2216" y="2" type="curve" smooth="yes"/>
			<point x="2216" y="77"/>
			<point x="2199" y="199"/>
			<point x="2143" y="330" type="curve"/>
			<point x="2146" y="331"/>
			<point x="2149" y="332"/>
		</contour>
		<contour>
			<point x="2651" y="479" type="curve" smooth="yes"/>
			<point x="2651" y="504"/>
			<point x="2650" y="529"/>
			<point x="2647" y="552" type="curve"/>
			<point x="2656" y="545"/>
			<point x="2669" y="538"/>
			<point x="2680" y="527" type="curve" smooth="yes"/>
			<point x="2709" y="499"/>
			<point x="2746" y="464"/>
			<point x="2803" y="446" type="curve"/>
			<point x="2780" y="361"/>
			<point x="2748" y="295"/>
			<point x="2660" y="189" type="curve"/>
			<point x="2680" y="156"/>
			<point x="2704" y="115"/>
			<point x="2720" y="82" type="curve"/>
			<point x="2694" y="86"/>
			<point x="2681" y="88"/>
			<point x="2653" y="88" type="curve" smooth="yes"/>
			<point x="2652" y="88" type="line"/>
			<point x="2638" y="144"/>
			<point x="2616" y="181"/>
			<point x="2590" y="206" type="curve"/>
			<point x="2630" y="275"/>
			<point x="2651" y="389"/>
		</contour>
		<contour>
			<point x="2519" y="684" type="curve"/>
			<point x="2620" y="656"/>
			<point x="2784" y="612"/>
			<point x="2925" y="612" type="curve" smooth="yes"/>
			<point x="2966" y="612"/>
			<point x="3002" y="614"/>
			<point x="3023" y="617" type="curve" smooth="yes"/>
			<point x="3042" y="620"/>
			<point x="3060" y="622"/>
			<point x="3066" y="622" type="curve" smooth="yes"/>
			<point x="3081" y="622"/>
			<point x="3159" y="564"/>
			<point x="3215" y="544" type="curve" smooth="yes"/>
			<point x="3215" y="544"/>
			<point x="2934" y="512"/>
			<point x="2893" y="512" type="curve" smooth="yes"/>
			<point x="2850" y="512"/>
			<point x="2809" y="526"/>
			<point x="2728" y="585" type="curve" smooth="yes"/>
			<point x="2686" y="616"/>
			<point x="2648" y="632"/>
			<point x="2611" y="638" type="curve" smooth="yes"/>
			<point x="2574" y="644"/>
			<point x="2547" y="661"/>
		</contour>
	</outline>
</glyph>
<glyph name="s_e_h_r_g_u_t_exclam" format="2">
	<advance width="5005"/>
	<outline>
		<contour>
			<point x="411" y="1002" type="curve" smooth="yes"/>
			<point x="572" y="1002"/>
			<point x="699" y="1107"/>
			<point x="699" y="1259" type="curve" smooth="yes"/>
			<point x="699" y="1405"/>
			<point x="589" y="1474"/>
			<point x="489" y="1536" type="curve" smooth="yes"/>
			<point x="405" y="1588"/>
			<point x="329" y="1636"/>
			<point x="329" y="1721" type="curve" smooth="yes"/>
			<point x="329" y="1807"/>
			<point x="404" y="1874"/>
			<point x="517" y="1874" type="curve" smooth="yes"/>
			<point x="578" y="1874"/>
			<point x="621" y="1864"/>
			<point x="650" y="1857" type="curve" smooth="yes"/>
			<point x="666" y="1853"/>
			<point x="678" y="1850"/>
			<point x="687" y="1850" type="curve" smooth="yes"/>
			<point x="705" y="1850"/>
			<point x="715" y="1870"/>
			<point x="715" y="1883" type="curve" smooth="yes"/>
			<point x="715" y="1892"/>
			<point x="707" y="1903"/>
			<point x="695" y="1910" type="curve" smooth="yes"/>
			<point x="661" y="1930"/>
			<point x="593" y="1949"/>
			<point x="523" y="1949" type="curve" smooth="yes"/>
			<point x="361" y="1949"/>
			<point x="245" y="1854"/>
			<point x="245" y="1716" type="curve" smooth="yes"/>
			<point x="245" y="1587"/>
			<point x="342" y="1527"/>
			<point x="438" y="1470" type="curve" smooth="yes"/>
			<point x="528" y="1417"/>
			<point x="614" y="1364"/>
			<point x="614" y="1256" type="curve" smooth="yes"/>
			<point x="614" y="1152"/>
			<point x="528" y="1077"/>
			<point x="407" y="1077" type="curve" smooth="yes"/>
			<point x="318" y="1077"/>
			<point x="261" y="1093"/>
			<point x="223" y="1105" type="curve" smooth="yes"/>
			<point x="205" y="1111"/>
			<point x="192" y="1114"/>
			<point x="183" y="1114" type="curve" smooth="yes"/>
			<point x="164" y="1114"/>
			<point x="150" y="1096"/>
			<point x="150" y="1074" type="curve" smooth="yes"/>
			<point x="150" y="1058"/>
			<point x="158" y="1049"/>
			<point x="180" y="1040" type="curve" smooth="yes"/>
			<point x="230" y="1020"/>
			<point x="310" y="1002"/>
		</contour>
		<contour>
			<point x="1241" y="1002" type="curve" smooth="yes"/>
			<point x="1346" y="1002"/>
			<point x="1449" y="1040"/>
			<point x="1524" y="1106" type="curve" smooth="yes"/>
			<point x="1552" y="1131"/>
			<point x="1566" y="1151"/>
			<point x="1566" y="1162" type="curve" smooth="yes"/>
			<point x="1566" y="1181"/>
			<point x="1546" y="1200"/>
			<point x="1530" y="1200" type="curve" smooth="yes"/>
			<point x="1521" y="1200"/>
			<point x="1513" y="1196"/>
			<point x="1486" y="1171" type="curve" smooth="yes"/>
			<point x="1425" y="1114"/>
			<point x="1337" y="1080"/>
			<point x="1250" y="1080" type="curve" smooth="yes"/>
			<point x="1079" y="1080"/>
			<point x="1002" y="1204"/>
			<point x="1002" y="1384" type="curve" smooth="yes"/>
			<point x="1002" y="1688"/>
			<point x="1156" y="1871"/>
			<point x="1329" y="1871" type="curve" smooth="yes"/>
			<point x="1423" y="1871"/>
			<point x="1481" y="1822"/>
			<point x="1481" y="1738" type="curve" smooth="yes"/>
			<point x="1481" y="1608"/>
			<point x="1341" y="1489"/>
			<point x="996" y="1489" type="curve" smooth="yes"/>
			<point x="967" y="1489"/>
			<point x="949" y="1478"/>
			<point x="949" y="1458" type="curve" smooth="yes"/>
			<point x="949" y="1436"/>
			<point x="970" y="1420"/>
			<point x="996" y="1420" type="curve" smooth="yes"/>
			<point x="1368" y="1420"/>
			<point x="1561" y="1559"/>
			<point x="1561" y="1751" type="curve" smooth="yes"/>
			<point x="1561" y="1869"/>
			<point x="1478" y="1949"/>
			<point x="1338" y="1949" type="curve" smooth="yes"/>
			<point x="1121" y="1949"/>
			<point x="918" y="1741"/>
			<point x="918" y="1379" type="curve" smooth="yes"/>
			<point x="918" y="1150"/>
			<point x="1030" y="1002"/>
		</contour>
		<contour>
			<point x="1846" y="1002" type="curve" smooth="yes"/>
			<point x="1871" y="1002"/>
			<point x="1888" y="1015"/>
			<point x="1891" y="1047" type="curve" smooth="yes"/>
			<point x="1893" y="1068"/>
			<point x="1894" y="1108"/>
			<point x="1895" y="1129" type="curve"/>
			<point x="1981" y="1563"/>
			<point x="2191" y="1871"/>
			<point x="2361" y="1871" type="curve" smooth="yes"/>
			<point x="2423" y="1871"/>
			<point x="2462" y="1830"/>
			<point x="2462" y="1720" type="curve" smooth="yes"/>
			<point x="2462" y="1688"/>
			<point x="2458" y="1615"/>
			<point x="2450" y="1522" type="curve" smooth="yes"/>
			<point x="2412" y="1063" type="line" smooth="yes"/>
			<point x="2411" y="1051"/>
			<point x="2411" y="1049"/>
			<point x="2411" y="1041" type="curve" smooth="yes"/>
			<point x="2411" y="1015"/>
			<point x="2425" y="1002"/>
			<point x="2451" y="1002" type="curve" smooth="yes"/>
			<point x="2476" y="1002"/>
			<point x="2493" y="1014"/>
			<point x="2496" y="1047" type="curve" smooth="yes"/>
			<point x="2534" y="1517" type="line" smooth="yes"/>
			<point x="2543" y="1629"/>
			<point x="2547" y="1696"/>
			<point x="2547" y="1733" type="curve" smooth="yes"/>
			<point x="2547" y="1888"/>
			<point x="2477" y="1949"/>
			<point x="2372" y="1949" type="curve" smooth="yes"/>
			<point x="2184" y="1949"/>
			<point x="2021" y="1752"/>
			<point x="1902" y="1384" type="curve"/>
			<point x="1908" y="1362" type="line"/>
			<point x="1988" y="2522" type="line" smooth="yes"/>
			<point x="1990" y="2545"/>
			<point x="1991" y="2558"/>
			<point x="1991" y="2570" type="curve" smooth="yes"/>
			<point x="1991" y="2601"/>
			<point x="1979" y="2614"/>
			<point x="1950" y="2614" type="curve" smooth="yes"/>
			<point x="1926" y="2614"/>
			<point x="1908" y="2605"/>
			<point x="1905" y="2560" type="curve" smooth="yes"/>
			<point x="1807" y="1063" type="line" smooth="yes"/>
			<point x="1806" y="1051"/>
			<point x="1806" y="1049"/>
			<point x="1806" y="1041" type="curve" smooth="yes"/>
			<point x="1806" y="1015"/>
			<point x="1820" y="1002"/>
		</contour>
		<contour>
			<point x="2893" y="1002" type="curve" smooth="yes"/>
			<point x="2918" y="1002"/>
			<point x="2936" y="1015"/>
			<point x="2938" y="1047" type="curve" smooth="yes"/>
			<point x="2943" y="1158" type="line"/>
			<point x="2995" y="1555"/>
			<point x="3155" y="1871"/>
			<point x="3282" y="1871" type="curve" smooth="yes"/>
			<point x="3327" y="1871"/>
			<point x="3351" y="1837"/>
			<point x="3360" y="1754" type="curve" smooth="yes"/>
			<point x="3364" y="1718"/>
			<point x="3376" y="1701"/>
			<point x="3404" y="1701" type="curve" smooth="yes"/>
			<point x="3429" y="1701"/>
			<point x="3444" y="1725"/>
			<point x="3444" y="1764" type="curve" smooth="yes"/>
			<point x="3444" y="1873"/>
			<point x="3392" y="1949"/>
			<point x="3299" y="1949" type="curve" smooth="yes"/>
			<point x="3165" y="1949"/>
			<point x="3059" y="1827"/>
			<point x="2953" y="1462" type="curve"/>
			<point x="2961" y="1468" type="line"/>
			<point x="2988" y="1813" type="line" smooth="yes"/>
			<point x="2992" y="1864"/>
			<point x="2994" y="1890"/>
			<point x="2994" y="1905" type="curve" smooth="yes"/>
			<point x="2994" y="1936"/>
			<point x="2982" y="1949"/>
			<point x="2953" y="1949" type="curve" smooth="yes"/>
			<point x="2929" y="1949"/>
			<point x="2911" y="1940"/>
			<point x="2908" y="1895" type="curve" smooth="yes"/>
			<point x="2853" y="1049" type="line" smooth="yes"/>
			<point x="2853" y="1047"/>
			<point x="2853" y="1045"/>
			<point x="2853" y="1043" type="curve" smooth="yes"/>
			<point x="2853" y="1015"/>
			<point x="2867" y="1002"/>
		</contour>
		<contour>
			<point x="2022" y="-685" type="curve" smooth="yes"/>
			<point x="2253" y="-685"/>
			<point x="2384" y="-522"/>
			<point x="2408" y="-181" type="curve" smooth="yes"/>
			<point x="2481" y="848" type="line" smooth="yes"/>
			<point x="2483" y="871"/>
			<point x="2484" y="891"/>
			<point x="2484" y="896" type="curve" smooth="yes"/>
			<point x="2484" y="927"/>
			<point x="2472" y="940"/>
			<point x="2443" y="940" type="curve" smooth="yes"/>
			<point x="2419" y="940"/>
			<point x="2401" y="931"/>
			<point x="2398" y="886" type="curve" smooth="yes"/>
			<point x="2325" y="-156" type="line" smooth="yes"/>
			<point x="2303" y="-475"/>
			<point x="2203" y="-607"/>
			<point x="2032" y="-607" type="curve" smooth="yes"/>
			<point x="1947" y="-607"/>
			<point x="1880" y="-583"/>
			<point x="1810" y="-526" type="curve" smooth="yes"/>
			<point x="1789" y="-509"/>
			<point x="1780" y="-504"/>
			<point x="1769" y="-504" type="curve" smooth="yes"/>
			<point x="1751" y="-504"/>
			<point x="1730" y="-528"/>
			<point x="1730" y="-549" type="curve" smooth="yes"/>
			<point x="1730" y="-582"/>
			<point x="1844" y="-685"/>
		</contour>
		<contour>
			<point x="1938" y="-7" type="curve" smooth="yes"/>
			<point x="2118" y="-7"/>
			<point x="2305" y="219"/>
			<point x="2445" y="696" type="curve"/>
			<point x="2399" y="744" type="line"/>
			<point x="2284" y="355"/>
			<point x="2093" y="71"/>
			<point x="1960" y="71" type="curve" smooth="yes"/>
			<point x="1867" y="71"/>
			<point x="1820" y="162"/>
			<point x="1820" y="337" type="curve" smooth="yes"/>
			<point x="1820" y="659"/>
			<point x="1968" y="862"/>
			<point x="2162" y="862" type="curve" smooth="yes"/>
			<point x="2249" y="862"/>
			<point x="2315" y="839"/>
			<point x="2408" y="773" type="curve"/>
			<point x="2413" y="849" type="line"/>
			<point x="2329" y="912"/>
			<point x="2244" y="940"/>
			<point x="2158" y="940" type="curve" smooth="yes"/>
			<point x="1913" y="940"/>
			<point x="1735" y="705"/>
			<point x="1735" y="333" type="curve" smooth="yes"/>
			<point x="1735" y="113"/>
			<point x="1809" y="-7"/>
		</contour>
		<contour>
			<point x="2904" y="-13" type="curve" smooth="yes"/>
			<point x="3053" y="-13"/>
			<point x="3188" y="102"/>
			<point x="3297" y="481" type="curve"/>
			<point x="3281" y="492" type="line"/>
			<point x="3251" y="70" type="line" smooth="yes"/>
			<point x="3250" y="55"/>
			<point x="3249" y="39"/>
			<point x="3249" y="32" type="curve" smooth="yes"/>
			<point x="3249" y="1"/>
			<point x="3261" y="-13"/>
			<point x="3291" y="-13" type="curve" smooth="yes"/>
			<point x="3315" y="-13"/>
			<point x="3333" y="-4"/>
			<point x="3336" y="41" type="curve" smooth="yes"/>
			<point x="3389" y="858" type="line" smooth="yes"/>
			<point x="3390" y="872"/>
			<point x="3391" y="888"/>
			<point x="3391" y="898" type="curve" smooth="yes"/>
			<point x="3391" y="921"/>
			<point x="3377" y="934"/>
			<point x="3351" y="934" type="curve" smooth="yes"/>
			<point x="3326" y="934"/>
			<point x="3311" y="922"/>
			<point x="3308" y="890" type="curve" smooth="yes"/>
			<point x="3305" y="814" type="line"/>
			<point x="3217" y="267"/>
			<point x="3071" y="65"/>
			<point x="2914" y="65" type="curve" smooth="yes"/>
			<point x="2803" y="65"/>
			<point x="2755" y="134"/>
			<point x="2755" y="255" type="curve" smooth="yes"/>
			<point x="2755" y="293"/>
			<point x="2758" y="363"/>
			<point x="2766" y="445" type="curve" smooth="yes"/>
			<point x="2808" y="887" type="line" smooth="yes"/>
			<point x="2808" y="890"/>
			<point x="2808" y="893"/>
			<point x="2808" y="896" type="curve" smooth="yes"/>
			<point x="2808" y="920"/>
			<point x="2796" y="934"/>
			<point x="2768" y="934" type="curve" smooth="yes"/>
			<point x="2743" y="934"/>
			<point x="2726" y="922"/>
			<point x="2723" y="889" type="curve" smooth="yes"/>
			<point x="2682" y="450" type="line" smooth="yes"/>
			<point x="2672" y="342"/>
			<point x="2670" y="287"/>
			<point x="2670" y="255" type="curve" smooth="yes"/>
			<point x="2670" y="78"/>
			<point x="2753" y="-13"/>
		</contour>
		<contour>
			<point x="3908" y="-33" type="curve" smooth="yes"/>
			<point x="3990" y="-33"/>
			<point x="4071" y="2"/>
			<point x="4138" y="75" type="curve" smooth="yes"/>
			<point x="4164" y="103"/>
			<point x="4172" y="119"/>
			<point x="4172" y="133" type="curve" smooth="yes"/>
			<point x="4172" y="148"/>
			<point x="4155" y="165"/>
			<point x="4136" y="165" type="curve" smooth="yes"/>
			<point x="4127" y="165"/>
			<point x="4119" y="160"/>
			<point x="4093" y="134" type="curve" smooth="yes"/>
			<point x="4032" y="73"/>
			<point x="3977" y="45"/>
			<point x="3919" y="45" type="curve" smooth="yes"/>
			<point x="3838" y="45"/>
			<point x="3804" y="89"/>
			<point x="3804" y="201" type="curve" smooth="yes"/>
			<point x="3804" y="245"/>
			<point x="3808" y="305"/>
			<point x="3814" y="394" type="curve" smooth="yes"/>
			<point x="3871" y="1188" type="line" smooth="yes"/>
			<point x="3872" y="1203"/>
			<point x="3872" y="1204"/>
			<point x="3872" y="1211" type="curve" smooth="yes"/>
			<point x="3872" y="1243"/>
			<point x="3860" y="1253"/>
			<point x="3834" y="1253" type="curve" smooth="yes"/>
			<point x="3810" y="1253"/>
			<point x="3787" y="1244"/>
			<point x="3784" y="1199" type="curve" smooth="yes"/>
			<point x="3729" y="397" type="line" smooth="yes"/>
			<point x="3721" y="287"/>
			<point x="3719" y="240"/>
			<point x="3719" y="188" type="curve" smooth="yes"/>
			<point x="3719" y="46"/>
			<point x="3793" y="-33"/>
		</contour>
		<contour>
			<point x="3639" y="824" type="curve" smooth="yes"/>
			<point x="4088" y="824" type="line" smooth="yes"/>
			<point x="4114" y="824"/>
			<point x="4133" y="835"/>
			<point x="4133" y="865" type="curve" smooth="yes"/>
			<point x="4133" y="888"/>
			<point x="4119" y="899"/>
			<point x="4093" y="899" type="curve" smooth="yes"/>
			<point x="3644" y="899" type="line" smooth="yes"/>
			<point x="3618" y="899"/>
			<point x="3599" y="888"/>
			<point x="3599" y="859" type="curve" smooth="yes"/>
			<point x="3599" y="835"/>
			<point x="3613" y="824"/>
		</contour>
		<contour>
			<point x="4675" y="743" type="curve" smooth="yes"/>
			<point x="4705" y="743"/>
			<point x="4728" y="756"/>
			<point x="4730" y="788" type="curve" smooth="yes"/>
			<point x="4854" y="2537" type="line" smooth="yes"/>
			<point x="4855" y="2552"/>
			<point x="4855" y="2557"/>
			<point x="4855" y="2562" type="curve" smooth="yes"/>
			<point x="4855" y="2595"/>
			<point x="4839" y="2608"/>
			<point x="4803" y="2608" type="curve" smooth="yes"/>
			<point x="4777" y="2608"/>
			<point x="4751" y="2601"/>
			<point x="4748" y="2554" type="curve" smooth="yes"/>
			<point x="4629" y="828" type="line" smooth="yes"/>
			<point x="4628" y="813"/>
			<point x="4626" y="796"/>
			<point x="4626" y="784" type="curve" smooth="yes"/>
			<point x="4626" y="757"/>
			<point x="4642" y="743"/>
		</contour>
		<contour>
			<point x="4650" y="336" type="curve" smooth="yes"/>
			<point x="4700" y="336"/>
			<point x="4748" y="383"/>
			<point x="4748" y="439" type="curve" smooth="yes"/>
			<point x="4748" y="488"/>
			<point x="4712" y="525"/>
			<point x="4661" y="525" type="curve" smooth="yes"/>
			<point x="4612" y="525"/>
			<point x="4569" y="482"/>
			<point x="4569" y="426" type="curve" smooth="yes"/>
			<point x="4569" y="370"/>
			<point x="4605" y="336"/>
		</contour>
	</outline>
</glyph>
<glyph name="seven.salt" format="2">
	<advance width="1105"/>
	<outline>
		<contour>
			<point x="295" y="-12" type="curve" smooth="yes"/>
			<point x="318" y="-12"/>
			<point x="328" y="-3"/>
			<point x="338" y="26" type="curve" smooth="yes"/>
			<point x="509" y="517"/>
			<point x="737" y="998"/>
			<point x="1022" y="1441" type="curve" smooth="yes"/>
			<point x="1069" y="1514"/>
			<point x="1070" y="1528"/>
			<point x="1070" y="1547" type="curve" smooth="yes"/>
			<point x="1070" y="1576"/>
			<point x="1051" y="1600"/>
			<point x="1008" y="1600" type="curve" smooth="yes"/>
			<point x="195" y="1600" type="line" smooth="yes"/>
			<point x="158" y="1600"/>
			<point x="140" y="1583"/>
			<point x="140" y="1561" type="curve" smooth="yes"/>
			<point x="140" y="1534"/>
			<point x="164" y="1522"/>
			<point x="198" y="1522" type="curve" smooth="yes"/>
			<point x="1027" y="1522" type="line"/>
			<point x="1004" y="1544" type="line"/>
			<point x="681" y="1068"/>
			<point x="444" y="556"/>
			<point x="270" y="87" type="curve" smooth="yes"/>
			<point x="258" y="55"/>
			<point x="253" y="35"/>
			<point x="253" y="23" type="curve" smooth="yes"/>
			<point x="253" y="1"/>
			<point x="274" y="-12"/>
		</contour>
	</outline>
</glyph>
<glyph name="tildecomb.case" format="2">
	<outline>
		<contour>
			<point x="481" y="1065" type="curve" smooth="yes"/>
			<point x="546" y="1065"/>
			<point x="609" y="1108"/>
			<point x="668" y="1227" type="curve" smooth="yes"/>
			<point x="681" y="1254"/>
			<point x="685" y="1262"/>
			<point x="685" y="1272" type="curve" smooth="yes"/>
			<point x="685" y="1286"/>
			<point x="667" y="1298"/>
			<point x="653" y="1298" type="curve" smooth="yes"/>
			<point x="640" y="1298"/>
			<point x="629" y="1292"/>
			<point x="613" y="1262" type="curve" smooth="yes"/>
			<point x="559" y="1158"/>
			<point x="521" y="1135"/>
			<point x="490" y="1135" type="curve" smooth="yes"/>
			<point x="466" y="1135"/>
			<point x="449" y="1148"/>
			<point x="395" y="1211" type="curve" smooth="yes"/>
			<point x="338" y="1277"/>
			<point x="304" y="1299"/>
			<point x="254" y="1299" type="curve" smooth="yes"/>
			<point x="183" y="1299"/>
			<point x="125" y="1256"/>
			<point x="67" y="1137" type="curve" smooth="yes"/>
			<point x="54" y="1110"/>
			<point x="50" y="1102"/>
			<point x="50" y="1092" type="curve" smooth="yes"/>
			<point x="50" y="1078"/>
			<point x="68" y="1066"/>
			<point x="82" y="1066" type="curve" smooth="yes"/>
			<point x="95" y="1066"/>
			<point x="106" y="1072"/>
			<point x="122" y="1102" type="curve" smooth="yes"/>
			<point x="177" y="1206"/>
			<point x="214" y="1229"/>
			<point x="245" y="1229" type="curve" smooth="yes"/>
			<point x="269" y="1229"/>
			<point x="291" y="1213"/>
			<point x="341" y="1153" type="curve" smooth="yes"/>
			<point x="400" y="1082"/>
			<point x="431" y="1065"/>
		</contour>
	</outline>
	<anchor name="_top" x="328" y="920"/>
	<anchor name="top" x="363" y="1306"/>
</glyph>
